<mxfile host="65bd71144e">
    <diagram id="1rH5jBbKMhMheDQWBiM-" name="Page-1">
        <mxGraphModel dx="1047" dy="745" grid="0" gridSize="10" guides="1" tooltips="1" connect="1" arrows="1" fold="1" page="1" pageScale="1" pageWidth="4681" pageHeight="3300" math="0" shadow="0">
            <root>
                <mxCell id="0"/>
                <mxCell id="1" parent="0"/>
                <mxCell id="2" value="请求方法" style="rounded=0;whiteSpace=wrap;html=1;hachureGap=4;fontFamily=Architects Daughter;fontSource=https%3A%2F%2Ffonts.googleapis.com%2Fcss%3Ffamily%3DArchitects%2BDaughter;fontSize=20;fillColor=#CCFF99;strokeColor=#666666;fontColor=#333333;fillStyle=solid;" vertex="1" parent="1">
                    <mxGeometry x="60" y="50" width="120" height="40" as="geometry"/>
                </mxCell>
                <mxCell id="3" value="空格" style="rounded=0;whiteSpace=wrap;html=1;hachureGap=4;fontFamily=Architects Daughter;fontSource=https%3A%2F%2Ffonts.googleapis.com%2Fcss%3Ffamily%3DArchitects%2BDaughter;fontSize=20;" vertex="1" parent="1">
                    <mxGeometry x="180" y="50" width="50" height="40" as="geometry"/>
                </mxCell>
                <mxCell id="4" value="URL" style="rounded=0;whiteSpace=wrap;html=1;hachureGap=4;fontFamily=Helvetica;fontSize=20;fillColor=#CCFF99;strokeColor=#666666;fontColor=#333333;fillStyle=solid;" vertex="1" parent="1">
                    <mxGeometry x="230" y="50" width="120" height="40" as="geometry"/>
                </mxCell>
                <mxCell id="5" value="空格" style="rounded=0;whiteSpace=wrap;html=1;hachureGap=4;fontFamily=Architects Daughter;fontSource=https%3A%2F%2Ffonts.googleapis.com%2Fcss%3Ffamily%3DArchitects%2BDaughter;fontSize=20;" vertex="1" parent="1">
                    <mxGeometry x="350" y="50" width="50" height="40" as="geometry"/>
                </mxCell>
                <mxCell id="6" value="协议版本" style="rounded=0;whiteSpace=wrap;html=1;hachureGap=4;fontFamily=Helvetica;fontSize=20;fillColor=#CCFF99;strokeColor=#666666;fontColor=#333333;fillStyle=solid;" vertex="1" parent="1">
                    <mxGeometry x="400" y="50" width="120" height="40" as="geometry"/>
                </mxCell>
                <mxCell id="7" value="回车" style="rounded=0;whiteSpace=wrap;html=1;hachureGap=4;fontFamily=Architects Daughter;fontSource=https%3A%2F%2Ffonts.googleapis.com%2Fcss%3Ffamily%3DArchitects%2BDaughter;fontSize=20;" vertex="1" parent="1">
                    <mxGeometry x="520" y="50" width="50" height="40" as="geometry"/>
                </mxCell>
                <mxCell id="8" value="换行" style="rounded=0;whiteSpace=wrap;html=1;hachureGap=4;fontFamily=Architects Daughter;fontSource=https%3A%2F%2Ffonts.googleapis.com%2Fcss%3Ffamily%3DArchitects%2BDaughter;fontSize=20;" vertex="1" parent="1">
                    <mxGeometry x="570" y="50" width="50" height="40" as="geometry"/>
                </mxCell>
                <mxCell id="9" value="头部字段名" style="rounded=0;whiteSpace=wrap;html=1;hachureGap=4;fontFamily=Architects Daughter;fontSource=https%3A%2F%2Ffonts.googleapis.com%2Fcss%3Ffamily%3DArchitects%2BDaughter;fontSize=20;fillColor=#CCFF99;strokeColor=#666666;fontColor=#333333;fillStyle=solid;" vertex="1" parent="1">
                    <mxGeometry x="60" y="90" width="120" height="40" as="geometry"/>
                </mxCell>
                <mxCell id="10" value=":" style="rounded=0;whiteSpace=wrap;html=1;hachureGap=4;fontFamily=Helvetica;fontSize=20;fontStyle=1" vertex="1" parent="1">
                    <mxGeometry x="180" y="90" width="50" height="40" as="geometry"/>
                </mxCell>
                <mxCell id="11" value="值" style="rounded=0;whiteSpace=wrap;html=1;hachureGap=4;fontFamily=Helvetica;fontSize=20;fillColor=#CCFF99;strokeColor=#666666;fontColor=#333333;fillStyle=solid;" vertex="1" parent="1">
                    <mxGeometry x="230" y="90" width="290" height="40" as="geometry"/>
                </mxCell>
                <mxCell id="14" value="回车" style="rounded=0;whiteSpace=wrap;html=1;hachureGap=4;fontFamily=Architects Daughter;fontSource=https%3A%2F%2Ffonts.googleapis.com%2Fcss%3Ffamily%3DArchitects%2BDaughter;fontSize=20;" vertex="1" parent="1">
                    <mxGeometry x="520" y="90" width="50" height="40" as="geometry"/>
                </mxCell>
                <mxCell id="15" value="换行" style="rounded=0;whiteSpace=wrap;html=1;hachureGap=4;fontFamily=Architects Daughter;fontSource=https%3A%2F%2Ffonts.googleapis.com%2Fcss%3Ffamily%3DArchitects%2BDaughter;fontSize=20;" vertex="1" parent="1">
                    <mxGeometry x="570" y="90" width="50" height="40" as="geometry"/>
                </mxCell>
                <mxCell id="16" value="头部字段名" style="rounded=0;whiteSpace=wrap;html=1;hachureGap=4;fontFamily=Architects Daughter;fontSource=https%3A%2F%2Ffonts.googleapis.com%2Fcss%3Ffamily%3DArchitects%2BDaughter;fontSize=20;fillColor=#CCFF99;strokeColor=#666666;fontColor=#333333;fillStyle=solid;" vertex="1" parent="1">
                    <mxGeometry x="60" y="130" width="120" height="40" as="geometry"/>
                </mxCell>
                <mxCell id="17" value=":" style="rounded=0;whiteSpace=wrap;html=1;hachureGap=4;fontFamily=Helvetica;fontSize=20;fontStyle=1" vertex="1" parent="1">
                    <mxGeometry x="180" y="130" width="50" height="40" as="geometry"/>
                </mxCell>
                <mxCell id="18" value="值" style="rounded=0;whiteSpace=wrap;html=1;hachureGap=4;fontFamily=Helvetica;fontSize=20;fillColor=#CCFF99;strokeColor=#666666;fontColor=#333333;fillStyle=solid;" vertex="1" parent="1">
                    <mxGeometry x="230" y="130" width="290" height="40" as="geometry"/>
                </mxCell>
                <mxCell id="19" value="回车" style="rounded=0;whiteSpace=wrap;html=1;hachureGap=4;fontFamily=Architects Daughter;fontSource=https%3A%2F%2Ffonts.googleapis.com%2Fcss%3Ffamily%3DArchitects%2BDaughter;fontSize=20;" vertex="1" parent="1">
                    <mxGeometry x="520" y="130" width="50" height="40" as="geometry"/>
                </mxCell>
                <mxCell id="20" value="换行" style="rounded=0;whiteSpace=wrap;html=1;hachureGap=4;fontFamily=Architects Daughter;fontSource=https%3A%2F%2Ffonts.googleapis.com%2Fcss%3Ffamily%3DArchitects%2BDaughter;fontSize=20;" vertex="1" parent="1">
                    <mxGeometry x="570" y="130" width="50" height="40" as="geometry"/>
                </mxCell>
                <mxCell id="21" value="头部字段名" style="rounded=0;whiteSpace=wrap;html=1;hachureGap=4;fontFamily=Architects Daughter;fontSource=https%3A%2F%2Ffonts.googleapis.com%2Fcss%3Ffamily%3DArchitects%2BDaughter;fontSize=20;fillColor=#CCFF99;strokeColor=#666666;fontColor=#333333;fillStyle=solid;" vertex="1" parent="1">
                    <mxGeometry x="60" y="170" width="120" height="40" as="geometry"/>
                </mxCell>
                <mxCell id="22" value=":" style="rounded=0;whiteSpace=wrap;html=1;hachureGap=4;fontFamily=Helvetica;fontSize=20;fontStyle=1" vertex="1" parent="1">
                    <mxGeometry x="180" y="170" width="50" height="40" as="geometry"/>
                </mxCell>
                <mxCell id="23" value="值" style="rounded=0;whiteSpace=wrap;html=1;hachureGap=4;fontFamily=Helvetica;fontSize=20;fillColor=#CCFF99;strokeColor=#666666;fontColor=#333333;fillStyle=solid;" vertex="1" parent="1">
                    <mxGeometry x="230" y="170" width="290" height="40" as="geometry"/>
                </mxCell>
                <mxCell id="24" value="回车" style="rounded=0;whiteSpace=wrap;html=1;hachureGap=4;fontFamily=Architects Daughter;fontSource=https%3A%2F%2Ffonts.googleapis.com%2Fcss%3Ffamily%3DArchitects%2BDaughter;fontSize=20;" vertex="1" parent="1">
                    <mxGeometry x="520" y="170" width="50" height="40" as="geometry"/>
                </mxCell>
                <mxCell id="25" value="换行" style="rounded=0;whiteSpace=wrap;html=1;hachureGap=4;fontFamily=Architects Daughter;fontSource=https%3A%2F%2Ffonts.googleapis.com%2Fcss%3Ffamily%3DArchitects%2BDaughter;fontSize=20;" vertex="1" parent="1">
                    <mxGeometry x="570" y="170" width="50" height="40" as="geometry"/>
                </mxCell>
                <mxCell id="26" value="回车" style="rounded=0;whiteSpace=wrap;html=1;hachureGap=4;fontFamily=Architects Daughter;fontSource=https%3A%2F%2Ffonts.googleapis.com%2Fcss%3Ffamily%3DArchitects%2BDaughter;fontSize=20;" vertex="1" parent="1">
                    <mxGeometry x="60" y="210" width="50" height="40" as="geometry"/>
                </mxCell>
                <mxCell id="27" value="换行" style="rounded=0;whiteSpace=wrap;html=1;hachureGap=4;fontFamily=Architects Daughter;fontSource=https%3A%2F%2Ffonts.googleapis.com%2Fcss%3Ffamily%3DArchitects%2BDaughter;fontSize=20;" vertex="1" parent="1">
                    <mxGeometry x="110" y="210" width="50" height="40" as="geometry"/>
                </mxCell>
                <mxCell id="28" value="请求数据" style="rounded=0;whiteSpace=wrap;html=1;hachureGap=4;fontFamily=Architects Daughter;fontSource=https%3A%2F%2Ffonts.googleapis.com%2Fcss%3Ffamily%3DArchitects%2BDaughter;fontSize=20;fillColor=#CCFF99;strokeColor=#666666;fontColor=#333333;fillStyle=solid;" vertex="1" parent="1">
                    <mxGeometry x="60" y="250" width="560" height="40" as="geometry"/>
                </mxCell>
                <mxCell id="29" value="" style="shape=curlyBracket;whiteSpace=wrap;html=1;rounded=1;flipH=1;labelPosition=right;verticalLabelPosition=middle;align=left;verticalAlign=middle;hachureGap=4;fillStyle=solid;fontFamily=Helvetica;fontSize=20;fillColor=#CCFF99;" vertex="1" parent="1">
                    <mxGeometry x="630" y="50" width="20" height="40" as="geometry"/>
                </mxCell>
                <mxCell id="30" value="" style="shape=curlyBracket;whiteSpace=wrap;html=1;rounded=1;flipH=1;labelPosition=right;verticalLabelPosition=middle;align=left;verticalAlign=middle;hachureGap=4;fillStyle=solid;fontFamily=Helvetica;fontSize=20;fillColor=#CCFF99;" vertex="1" parent="1">
                    <mxGeometry x="630" y="90" width="20" height="120" as="geometry"/>
                </mxCell>
                <mxCell id="31" value="" style="shape=curlyBracket;whiteSpace=wrap;html=1;rounded=1;flipH=1;labelPosition=right;verticalLabelPosition=middle;align=left;verticalAlign=middle;hachureGap=4;fillStyle=solid;fontFamily=Helvetica;fontSize=20;fillColor=#CCFF99;" vertex="1" parent="1">
                    <mxGeometry x="630" y="210" width="20" height="40" as="geometry"/>
                </mxCell>
                <mxCell id="32" value="" style="shape=curlyBracket;whiteSpace=wrap;html=1;rounded=1;flipH=1;labelPosition=right;verticalLabelPosition=middle;align=left;verticalAlign=middle;hachureGap=4;fillStyle=solid;fontFamily=Helvetica;fontSize=20;fillColor=#CCFF99;" vertex="1" parent="1">
                    <mxGeometry x="630" y="250" width="20" height="40" as="geometry"/>
                </mxCell>
                <mxCell id="33" value="请求行" style="text;html=1;align=center;verticalAlign=middle;resizable=0;points=[];autosize=1;strokeColor=none;fillColor=none;fontSize=20;fontFamily=Helvetica;hachureGap=4;fontSource=https%3A%2F%2Ffonts.googleapis.com%2Fcss%3Ffamily%3DArchitects%2BDaughter;" vertex="1" parent="1">
                    <mxGeometry x="650" y="50" width="80" height="40" as="geometry"/>
                </mxCell>
                <mxCell id="34" value="请求头" style="text;html=1;align=center;verticalAlign=middle;resizable=0;points=[];autosize=1;strokeColor=none;fillColor=none;fontSize=20;fontFamily=Helvetica;hachureGap=4;fontSource=https%3A%2F%2Ffonts.googleapis.com%2Fcss%3Ffamily%3DArchitects%2BDaughter;" vertex="1" parent="1">
                    <mxGeometry x="650" y="130" width="80" height="40" as="geometry"/>
                </mxCell>
                <mxCell id="35" value="空行" style="text;html=1;align=center;verticalAlign=middle;resizable=0;points=[];autosize=1;strokeColor=none;fillColor=none;fontSize=20;fontFamily=Helvetica;hachureGap=4;fontSource=https%3A%2F%2Ffonts.googleapis.com%2Fcss%3Ffamily%3DArchitects%2BDaughter;" vertex="1" parent="1">
                    <mxGeometry x="660" y="210" width="60" height="40" as="geometry"/>
                </mxCell>
                <mxCell id="36" value="请求体" style="text;html=1;align=center;verticalAlign=middle;resizable=0;points=[];autosize=1;strokeColor=none;fillColor=none;fontSize=20;fontFamily=Helvetica;hachureGap=4;fontSource=https%3A%2F%2Ffonts.googleapis.com%2Fcss%3Ffamily%3DArchitects%2BDaughter;" vertex="1" parent="1">
                    <mxGeometry x="650" y="250" width="80" height="40" as="geometry"/>
                </mxCell>
                <mxCell id="37" value="协议版本" style="rounded=0;whiteSpace=wrap;html=1;hachureGap=4;fontFamily=Architects Daughter;fontSource=https%3A%2F%2Ffonts.googleapis.com%2Fcss%3Ffamily%3DArchitects%2BDaughter;fontSize=20;fillColor=#CCFF99;strokeColor=#666666;fontColor=#333333;fillStyle=solid;" vertex="1" parent="1">
                    <mxGeometry x="60" y="365" width="120" height="40" as="geometry"/>
                </mxCell>
                <mxCell id="38" value="空格" style="rounded=0;whiteSpace=wrap;html=1;hachureGap=4;fontFamily=Architects Daughter;fontSource=https%3A%2F%2Ffonts.googleapis.com%2Fcss%3Ffamily%3DArchitects%2BDaughter;fontSize=20;" vertex="1" parent="1">
                    <mxGeometry x="180" y="365" width="50" height="40" as="geometry"/>
                </mxCell>
                <mxCell id="39" value="状态码" style="rounded=0;whiteSpace=wrap;html=1;hachureGap=4;fontFamily=Helvetica;fontSize=20;fillColor=#CCFF99;strokeColor=#666666;fontColor=#333333;fillStyle=solid;" vertex="1" parent="1">
                    <mxGeometry x="230" y="365" width="120" height="40" as="geometry"/>
                </mxCell>
                <mxCell id="40" value="空格" style="rounded=0;whiteSpace=wrap;html=1;hachureGap=4;fontFamily=Architects Daughter;fontSource=https%3A%2F%2Ffonts.googleapis.com%2Fcss%3Ffamily%3DArchitects%2BDaughter;fontSize=20;" vertex="1" parent="1">
                    <mxGeometry x="350" y="365" width="50" height="40" as="geometry"/>
                </mxCell>
                <mxCell id="41" value="状态码描述" style="rounded=0;whiteSpace=wrap;html=1;hachureGap=4;fontFamily=Helvetica;fontSize=20;fillColor=#CCFF99;strokeColor=#666666;fontColor=#333333;fillStyle=solid;" vertex="1" parent="1">
                    <mxGeometry x="400" y="365" width="120" height="40" as="geometry"/>
                </mxCell>
                <mxCell id="42" value="回车" style="rounded=0;whiteSpace=wrap;html=1;hachureGap=4;fontFamily=Architects Daughter;fontSource=https%3A%2F%2Ffonts.googleapis.com%2Fcss%3Ffamily%3DArchitects%2BDaughter;fontSize=20;" vertex="1" parent="1">
                    <mxGeometry x="520" y="365" width="50" height="40" as="geometry"/>
                </mxCell>
                <mxCell id="43" value="换行" style="rounded=0;whiteSpace=wrap;html=1;hachureGap=4;fontFamily=Architects Daughter;fontSource=https%3A%2F%2Ffonts.googleapis.com%2Fcss%3Ffamily%3DArchitects%2BDaughter;fontSize=20;" vertex="1" parent="1">
                    <mxGeometry x="570" y="365" width="50" height="40" as="geometry"/>
                </mxCell>
                <mxCell id="44" value="头部字段名" style="rounded=0;whiteSpace=wrap;html=1;hachureGap=4;fontFamily=Architects Daughter;fontSource=https%3A%2F%2Ffonts.googleapis.com%2Fcss%3Ffamily%3DArchitects%2BDaughter;fontSize=20;fillColor=#CCFF99;strokeColor=#666666;fontColor=#333333;fillStyle=solid;" vertex="1" parent="1">
                    <mxGeometry x="60" y="405" width="120" height="40" as="geometry"/>
                </mxCell>
                <mxCell id="45" value=":" style="rounded=0;whiteSpace=wrap;html=1;hachureGap=4;fontFamily=Helvetica;fontSize=20;fontStyle=1" vertex="1" parent="1">
                    <mxGeometry x="180" y="405" width="50" height="40" as="geometry"/>
                </mxCell>
                <mxCell id="46" value="值" style="rounded=0;whiteSpace=wrap;html=1;hachureGap=4;fontFamily=Helvetica;fontSize=20;fillColor=#CCFF99;strokeColor=#666666;fontColor=#333333;fillStyle=solid;" vertex="1" parent="1">
                    <mxGeometry x="230" y="405" width="290" height="40" as="geometry"/>
                </mxCell>
                <mxCell id="47" value="回车" style="rounded=0;whiteSpace=wrap;html=1;hachureGap=4;fontFamily=Architects Daughter;fontSource=https%3A%2F%2Ffonts.googleapis.com%2Fcss%3Ffamily%3DArchitects%2BDaughter;fontSize=20;" vertex="1" parent="1">
                    <mxGeometry x="520" y="405" width="50" height="40" as="geometry"/>
                </mxCell>
                <mxCell id="48" value="换行" style="rounded=0;whiteSpace=wrap;html=1;hachureGap=4;fontFamily=Architects Daughter;fontSource=https%3A%2F%2Ffonts.googleapis.com%2Fcss%3Ffamily%3DArchitects%2BDaughter;fontSize=20;" vertex="1" parent="1">
                    <mxGeometry x="570" y="405" width="50" height="40" as="geometry"/>
                </mxCell>
                <mxCell id="49" value="头部字段名" style="rounded=0;whiteSpace=wrap;html=1;hachureGap=4;fontFamily=Architects Daughter;fontSource=https%3A%2F%2Ffonts.googleapis.com%2Fcss%3Ffamily%3DArchitects%2BDaughter;fontSize=20;fillColor=#CCFF99;strokeColor=#666666;fontColor=#333333;fillStyle=solid;" vertex="1" parent="1">
                    <mxGeometry x="60" y="445" width="120" height="40" as="geometry"/>
                </mxCell>
                <mxCell id="50" value=":" style="rounded=0;whiteSpace=wrap;html=1;hachureGap=4;fontFamily=Helvetica;fontSize=20;fontStyle=1" vertex="1" parent="1">
                    <mxGeometry x="180" y="445" width="50" height="40" as="geometry"/>
                </mxCell>
                <mxCell id="51" value="值" style="rounded=0;whiteSpace=wrap;html=1;hachureGap=4;fontFamily=Helvetica;fontSize=20;fillColor=#CCFF99;strokeColor=#666666;fontColor=#333333;fillStyle=solid;" vertex="1" parent="1">
                    <mxGeometry x="230" y="445" width="290" height="40" as="geometry"/>
                </mxCell>
                <mxCell id="52" value="回车" style="rounded=0;whiteSpace=wrap;html=1;hachureGap=4;fontFamily=Architects Daughter;fontSource=https%3A%2F%2Ffonts.googleapis.com%2Fcss%3Ffamily%3DArchitects%2BDaughter;fontSize=20;" vertex="1" parent="1">
                    <mxGeometry x="520" y="445" width="50" height="40" as="geometry"/>
                </mxCell>
                <mxCell id="53" value="换行" style="rounded=0;whiteSpace=wrap;html=1;hachureGap=4;fontFamily=Architects Daughter;fontSource=https%3A%2F%2Ffonts.googleapis.com%2Fcss%3Ffamily%3DArchitects%2BDaughter;fontSize=20;" vertex="1" parent="1">
                    <mxGeometry x="570" y="445" width="50" height="40" as="geometry"/>
                </mxCell>
                <mxCell id="54" value="头部字段名" style="rounded=0;whiteSpace=wrap;html=1;hachureGap=4;fontFamily=Architects Daughter;fontSource=https%3A%2F%2Ffonts.googleapis.com%2Fcss%3Ffamily%3DArchitects%2BDaughter;fontSize=20;fillColor=#CCFF99;strokeColor=#666666;fontColor=#333333;fillStyle=solid;" vertex="1" parent="1">
                    <mxGeometry x="60" y="485" width="120" height="40" as="geometry"/>
                </mxCell>
                <mxCell id="55" value=":" style="rounded=0;whiteSpace=wrap;html=1;hachureGap=4;fontFamily=Helvetica;fontSize=20;fontStyle=1" vertex="1" parent="1">
                    <mxGeometry x="180" y="485" width="50" height="40" as="geometry"/>
                </mxCell>
                <mxCell id="56" value="值" style="rounded=0;whiteSpace=wrap;html=1;hachureGap=4;fontFamily=Helvetica;fontSize=20;fillColor=#CCFF99;strokeColor=#666666;fontColor=#333333;fillStyle=solid;" vertex="1" parent="1">
                    <mxGeometry x="230" y="485" width="290" height="40" as="geometry"/>
                </mxCell>
                <mxCell id="57" value="回车" style="rounded=0;whiteSpace=wrap;html=1;hachureGap=4;fontFamily=Architects Daughter;fontSource=https%3A%2F%2Ffonts.googleapis.com%2Fcss%3Ffamily%3DArchitects%2BDaughter;fontSize=20;" vertex="1" parent="1">
                    <mxGeometry x="520" y="485" width="50" height="40" as="geometry"/>
                </mxCell>
                <mxCell id="58" value="换行" style="rounded=0;whiteSpace=wrap;html=1;hachureGap=4;fontFamily=Architects Daughter;fontSource=https%3A%2F%2Ffonts.googleapis.com%2Fcss%3Ffamily%3DArchitects%2BDaughter;fontSize=20;" vertex="1" parent="1">
                    <mxGeometry x="570" y="485" width="50" height="40" as="geometry"/>
                </mxCell>
                <mxCell id="59" value="回车" style="rounded=0;whiteSpace=wrap;html=1;hachureGap=4;fontFamily=Architects Daughter;fontSource=https%3A%2F%2Ffonts.googleapis.com%2Fcss%3Ffamily%3DArchitects%2BDaughter;fontSize=20;" vertex="1" parent="1">
                    <mxGeometry x="60" y="525" width="50" height="40" as="geometry"/>
                </mxCell>
                <mxCell id="60" value="换行" style="rounded=0;whiteSpace=wrap;html=1;hachureGap=4;fontFamily=Architects Daughter;fontSource=https%3A%2F%2Ffonts.googleapis.com%2Fcss%3Ffamily%3DArchitects%2BDaughter;fontSize=20;" vertex="1" parent="1">
                    <mxGeometry x="110" y="525" width="50" height="40" as="geometry"/>
                </mxCell>
                <mxCell id="61" value="响应数据" style="rounded=0;whiteSpace=wrap;html=1;hachureGap=4;fontFamily=Architects Daughter;fontSource=https%3A%2F%2Ffonts.googleapis.com%2Fcss%3Ffamily%3DArchitects%2BDaughter;fontSize=20;fillColor=#CCFF99;strokeColor=#666666;fontColor=#333333;fillStyle=solid;" vertex="1" parent="1">
                    <mxGeometry x="60" y="565" width="560" height="40" as="geometry"/>
                </mxCell>
                <mxCell id="62" value="" style="shape=curlyBracket;whiteSpace=wrap;html=1;rounded=1;flipH=1;labelPosition=right;verticalLabelPosition=middle;align=left;verticalAlign=middle;hachureGap=4;fillStyle=solid;fontFamily=Helvetica;fontSize=20;fillColor=#CCFF99;" vertex="1" parent="1">
                    <mxGeometry x="630" y="365" width="20" height="40" as="geometry"/>
                </mxCell>
                <mxCell id="63" value="" style="shape=curlyBracket;whiteSpace=wrap;html=1;rounded=1;flipH=1;labelPosition=right;verticalLabelPosition=middle;align=left;verticalAlign=middle;hachureGap=4;fillStyle=solid;fontFamily=Helvetica;fontSize=20;fillColor=#CCFF99;" vertex="1" parent="1">
                    <mxGeometry x="630" y="405" width="20" height="120" as="geometry"/>
                </mxCell>
                <mxCell id="64" value="" style="shape=curlyBracket;whiteSpace=wrap;html=1;rounded=1;flipH=1;labelPosition=right;verticalLabelPosition=middle;align=left;verticalAlign=middle;hachureGap=4;fillStyle=solid;fontFamily=Helvetica;fontSize=20;fillColor=#CCFF99;" vertex="1" parent="1">
                    <mxGeometry x="630" y="525" width="20" height="40" as="geometry"/>
                </mxCell>
                <mxCell id="65" value="" style="shape=curlyBracket;whiteSpace=wrap;html=1;rounded=1;flipH=1;labelPosition=right;verticalLabelPosition=middle;align=left;verticalAlign=middle;hachureGap=4;fillStyle=solid;fontFamily=Helvetica;fontSize=20;fillColor=#CCFF99;" vertex="1" parent="1">
                    <mxGeometry x="630" y="565" width="20" height="40" as="geometry"/>
                </mxCell>
                <mxCell id="66" value="状态行" style="text;html=1;align=center;verticalAlign=middle;resizable=0;points=[];autosize=1;strokeColor=none;fillColor=none;fontSize=20;fontFamily=Helvetica;hachureGap=4;fontSource=https%3A%2F%2Ffonts.googleapis.com%2Fcss%3Ffamily%3DArchitects%2BDaughter;" vertex="1" parent="1">
                    <mxGeometry x="651" y="367" width="78" height="36" as="geometry"/>
                </mxCell>
                <mxCell id="67" value="响应头" style="text;html=1;align=center;verticalAlign=middle;resizable=0;points=[];autosize=1;strokeColor=none;fillColor=none;fontSize=20;fontFamily=Helvetica;hachureGap=4;fontSource=https%3A%2F%2Ffonts.googleapis.com%2Fcss%3Ffamily%3DArchitects%2BDaughter;" vertex="1" parent="1">
                    <mxGeometry x="651" y="447" width="78" height="36" as="geometry"/>
                </mxCell>
                <mxCell id="68" value="空行" style="text;html=1;align=center;verticalAlign=middle;resizable=0;points=[];autosize=1;strokeColor=none;fillColor=none;fontSize=20;fontFamily=Helvetica;hachureGap=4;fontSource=https%3A%2F%2Ffonts.googleapis.com%2Fcss%3Ffamily%3DArchitects%2BDaughter;" vertex="1" parent="1">
                    <mxGeometry x="660" y="525" width="60" height="40" as="geometry"/>
                </mxCell>
                <mxCell id="69" value="响应体" style="text;html=1;align=center;verticalAlign=middle;resizable=0;points=[];autosize=1;strokeColor=none;fillColor=none;fontSize=20;fontFamily=Helvetica;hachureGap=4;fontSource=https%3A%2F%2Ffonts.googleapis.com%2Fcss%3Ffamily%3DArchitects%2BDaughter;" vertex="1" parent="1">
                    <mxGeometry x="651" y="567" width="78" height="36" as="geometry"/>
                </mxCell>
                <mxCell id="70" value="" style="shape=image;verticalLabelPosition=bottom;labelBackgroundColor=default;verticalAlign=top;aspect=fixed;imageAspect=0;image=data:image/png,iVBORw0KGgoAAAANSUhEUgAAA0oAAAEgCAIAAAAFSBSvAAAgAElEQVR4Ae2djXHjOtOsvwDkTORovOHY8XjjUUK8dbfr9NvuAUYk9WPJ7lOntiD8DGYegEALtMj/W/JfCIRACIRACIRACITADyLwfz8oloQSAiEQAiEQAiEQAiGwRN5lEoRACIRACIRACITAjyIQefejhjPBhEAIhEAIhEAIhMADybu3tz9vb3++a0g+P/8eDi/H4+udHTgcXj4//965U+3u/f3jcHjB/9/IX126f/p0Ot1/IED+PsxvN72B7nQ6LcuyG+Px+MpJCFM2B9awenv7c//r1/y87kcwGQK5Vke7h+xaDjy1nfsvGk+NK87fmcBA3uGCr6utLsEohS6p+TtWJd0kLkHQrFZN0bIst9v/mnDe3z9sQ7rzFoWor7V/9IQbDvcsGhK+kec93jWSZT2ZPoTbTW/9Vtb7cDaWBtcaVsORPdvpI1fYsZBuDefCIdva3dXr6/SDcU4DbmGWWJbFcviRGwFzDoeX2fJoqzdIsuHVI43BENhKwOUdllE9T6L+OB5f+5MGm+6bXLmkrXbUrFZNkVq4Z/p4fH1//9AeuTZp5u3SdXG8pK8HJFzDGRK+keeNXqmOXZhzoxDOeqUHGBf6cCGu4cie9f+XV7hwyL6dXl3B6jSodeh2LbJJWDdEtrXVWy+E4/GV+ybrJxECdybwRd71l/pN5Z1eG5cgaEJoii7pcXdbrCPWvK5NVuG6H8+O6abuHo3w0Pkh4Rt5blvF0J9rZd4ohN49+1Z2oQ8X4hqObO9/Si8csm8HWPVZnQa1Dt2uRXUSDhfJ4epNs9UIi5IIgbsR+CLv6oWhfgxnuVawtV6L+vTwUsHXJp516wk56qOIB4pWnw2XZWmK7DSe1uAwHaM1PWzDysgiJBip5ptZ1LGVReszje6G2le/O+r9cT15pTOzxGxMlVj9Gvr29oceYly0PosOhxf2q0NmBhGdWmCrPqEdMWp0xNmiu5fWZxqEUe10OpGkDvSyLBoy+1qWBaNQndf67IuBa33rCCFrc8Zic5V41Rr7YqmSH85DbcK++pnPcdFJyL+9azAS73BK29ihF42ustLo7G9ntaGRZ5j0WceU0TExXNmIaDYuaD6b3mxO/hodMzmOsFYnqo2pNkRag2VETJw1OMS4zGd+X0Tg8I3jQoZojlILjT5rwlZRXKpqFjkzU7V5nYTDbbE2VK9gpJ9UWj/pELgFgS/ybrbZo+O+FCrKrquVHlfL9RqjKSw3/GhtdTtnHSSaIlQwU1xx+OcX6BrLJaxxRcZ+zB6rKRb1zgyXksPhhR3RDjfIw+GFixe41cpshYQu2bofILTPz79qQe1z8aVBds2Fuy5qyq1asIX+LDp0rTNN7dvMqYM+JIxqRGqrs7pkBqFXCMFYmTOExsRwZGGTdWj8dDoxDYwKwRxjcyY0CmSiCccaGDF88Hw482mwRtdjVDhoy65hsxpkX/h7Kauv4277ejOHjflQumm//H5YM8G/H5fZ9F5DGAFqv+sJGxw1omkziI+8hBuMzcxvimyI9WIkEIyyeaI+a7rKLLWJmrUOLdQi8xAXml53zUJHsyvhs34SIXALAl/kna6/uET1CzFzKAhO/34uR7fWLJSszAQu42rKvrayPvdg5OBqZGmzKDRFaF73P7vU1YIV2UfbQugeEzNWdW3C+oIlj60IrW4AQwvs1xI1ZKtgu2a/bCkftWM0rJrOOutOjTRpNWgDoUWwMORTq9FnGNTedUswgGbcnFEjSLMXFvWEWa1qjhqCVh7uUuat1jHPh8aVA/qq1RjgmolqnZr/NMV8y6nhsKYW2TcxM8ImmtA5wPWnho8mFulseluwFV0d4qGwoP9mwT5qOJqu1WZx2bXZzPy+SDU6esfiDyBUlkNBr54jrefc3Jj0aw/cNn1GOzVYGxfYh4dsxXWYOZpAULMetWbSIXBTAl/knV2WdiBXS82zftJbZX7UlZeZ+uMmvbRw5fAyZoJ16mpFm00R6tQA7VJXC0hzqbIosMTbyk5PmpXL7KAJ1yAo7NO//yB/WUTj8Jkf+0QNGfVNynO5HLrHLpSPZXKAaJ/ouD+xyZoEwuQE4KbbDBnMDkOontMrDqX2RSAG0IybMzUu9sIis8B8Oq9u6FegGoK1NVeX/+6vaTVewuZ5NV5zevGxZqJap+pYvWTggM4rQzebw+o5erSO6kf2hfrYud/e/nAOV5FBI3WIUWTBqldsa0qxJwxEVBW1Lc1qovbLOYBqM4w2nRR+U2SzFx/1wFgHVP2cpeu8Uk/QqtahtVqEcaGfvNLZpE5FLUKpXphWmo8hcDcCX+RdvTD0UreLtrqolWvpLIcb87ACFxcsAXUxslZNhaYIRmqA/RLMJQAJ80Tv7doaAbO1vn0/ZgWC5V960cJseWLbPlFDxq6vy5POCk1Xy0PCyLRVW/9ma7b/VfvMQfjcXLXffshmhNUCeqFX/TZpAI2POUP/mWAvzDELzIfnvFtaj3ZqCNoWw8q9H0U6CsjhTDPPq3HW1F5qNQa4ZqJap2q57qnoS+eVosO6QQtapChUorHyMIFl6v39A07CCGagHfDYhCEBM2vBVnR1iM/KO66WWJEUjvXOj7VfZdVgbGZ+UzSjwdVyjc90fngyp/6jZp17tFCLbFxYkwlOAOZoYj15bZV0CNyCwBd5V2e2LuJ20VZvtHItHeb0lwqbaNfNAjFc/mikLmQsQkJ7QY4BUQvrgzUjwyWJntS1CQvf8fiKv4PB362zd9tLZvKF9i1RQ677qLpUu1ODykfzbcismpVqw1na3FCDRluLYE3Dof1ajV6ZQTZBwgCa8b5tRT3c0dmj9dVAYBNNWPPhVGEd87zyqdJwePURo3k77N06Vecrq6FL/B7FfmFkOC6wab3MPuIChP23tz9wFd85CQ1tLVLzhPYt2BrOcDLUarQPg7S/MlENajg0DmuKUavZaK4vUicNiBY16arP1Em6bV9saLA2P+tGbUJrUMNbFSqbJxEC1yXwRd7hK6mdEHDFtIu2+kHNUYtmOcNNolbWVQarp/6JhtXvb4nOrnPEbqV2qetSaIu4+aAfrSaMzJYAVLZSNDkeX5GPhyrBVRTRbTjcwFHHhiFbJk4mOAewI+pHdg3LQ/h2vGEPhdLBNfdmH3VcQIBnwPioZ70sgrWGsHJTr+wMQ72yi8K2FjjDU0ZtiLT2wlL9g1dsnChS44hCD1kxNDYctGnDinxgpHtKRglX3YZSNY60wkcOA0QR3YMFBX72/Iam2K9OJIwRZ6aOS53DYDWcqzRuCcCH/5+ff3Uj78elug3LPWHUwYioJw1hM6itmrQZ1Dlgc8YwKuH18g5OcsqpY/v8r2JLhwP2ax32W4t6N4Dr9PWPztmLbp3sIokQ+C4CLu/4lZF3HnkpYkVjvu2aaMjldU08Zy8V9kUfYJZ7Gypwz0ApzLKtejIsMmtoiAvYLnU05540A2K92B58VgRjGYUbDFy3fDjMIu5V6rlG3aRtja4AcffKhlUDt5XOYmfXCtnGa7b/se0woZRsXLQvwOGQwZS2BUazgFZKWEPWmW8A69aCKYShIUZ1AEU2SbQ7JczKOEyyVkP4SoPNaXPYpCot41M3RYC1ahUjHbCNUPOR5iTpWbEhzrZJWOMazmFgIYfhHNNM1OdEQr+sQDfquMymd7O2qPO0vGaiVlY6h+mtJdiFBUVZj3zD2Mz8pohTi51yyAyIOTn7WKdivQZrHVqrRb0bs9VbL/MaGrtLIgTuSWAg7+7Wfb0O79b15R1V57G2nrU8W+7PNkyFEHgEAlXDPYJXW32Y7dNb7TxOfQhQ9WerhNW2SQ8JZPUeYknmYxL4TnmnpyCPSafxSm8MoVrNqc3xJa/mJycEnoXADxBG/QnNswyE+Vm/XtYca5KPmwhk9d6EK5W/ncB3yrtvD/5CB3gIz5sXFxq8YvPh/R06vP6e1BVd2mSq3mai87xtt8lgKocA/kQME6leApxgNcF7sg/OUO/p8885cIZXg2KFBw8q7oVACOwjEHm3j1tahUAIhEAIhEAIhMCDEoi8e9CBiVshEAIhEAIhEAIhsI9A5N0+bmkVAiEQAiEQAiEQAg9KIPLuQQcmboVACIRACIRACITAPgI/UN7h9018nNJZLvURJ2eb8OlN9Q+017RNnRAIgRAIgRAIgRC4HYEv8q4+8qA+S2mHK3d+DMFM3s2e1xV5t2NM0yQEQiAEQiAEQuBhCfxAeTdjHXk3I5P8EAiBEAiBEAiBn0Qg8m7J6d1PmtCJJQRCIARCIARCYJu808dm2qM+tYh/9zZ8OC1LQR/3f9e8G5GjVc2iOW7L4gGe+vDb2YM9YRCvHdS27MhuK+v5H4r0fa/rQ9BnDqufy7IoRhI+Hl9x3xyvxEE41pA+JxECIRACIRACIfDLCWyQd4fDCyUFxA0FTX8AZiLJiG+Vd/qmHegkukHL9k5r5Ks4Y00+yJ6iU98tZp6rBRTxzehWU+1bGjXp8+fnX8q4GWFoPr40/e3tz/rurPd8DIEQCIEQCIEQ+PEEXN4N312zLAtEmOJQSTeUU6x8XS1ifdlHdDrMVHFG3yDvqO0sUvNcLVgRDt4o2tS+pVXDaVFDmIoTdU6nU+1dTSUdAiEQAiEQAiHwmwm4vFOho1oHdzCVFBQGcpCevcTwulqknt7x9IvufYu8q4joDxMqEJmJRG1OwgyHEvC6SM2TfAyBEAiBEAiBEHhqAteRd0AA7YLzP4VyXS0CicNTxuGBGfWQujGTVnoMqYq2PtxOLdSghp2qA8uyqAUrirwzIPkYAiEQAiEQAiGwj8BaecdzI3Zjqoj5VcFUJcTKOxKHw0s9rjM7Q6VVHUMrC0QjNc/VghXhNxZDrWm+4ecRlmmy0hxjOPSt9l4NJicEQiAEQiAEQuB3Elgr76Bs7KcVQ5lVlQfazqQPJMustI7KTB5pTeohzYQCYwgsauSd6jmkKS4tTL1lDMusb2+2QLxEx59WoD7dg31UYziRdxy1JEIgBEIgBEIgBGYE1so7tOctUf5itOZbESpArKD58M/71ss7NWUGoX7USXOGkgt14Fsj73ioxvqUd2bKguKNXXOg0qCeqySpCyPvACf/hkAIhEAIhEAIrCHwRd6tafC9dSCqePTFv2Zbrw6/1//0HgIhEAIhEAIhEAK3JvBk8k5vWQJNzbk1stgPgRAIgRAIgRAIgUcm8GTyzu6W4p4pb2I+Muj4FgIhEAIhEAIhEAL3IfB88u4+XNJLCIRACIRACIRACDwpgci7Jx24uB0CIRACIRACIRACYwKRd2MuyQ2BEAiBEAiBEAiBJyUQefekAxe3QyAEQiAEQiAEQmBMIPJuzOUxc4/HVz54jx4ic/grE30Q4O5nx9S3pbHreyaOx9dNIQyBrHd4zdOz11tLzQsJYCbbQyIvtJnmT0Tg7e3Ppsv/RqFdZVmoa/iNvH1es8Od7sJwdDe84kryIPvjEM4Xeff+/mGP5wWRYcs7ZOJVEFcciZnP9XF6s5pr8uE2f88L4wZ2jZ1ap5n0eEAMO7W2u1clOE+z9ZnSK9dc2IHk2jGg+ujpWaS2aD6pvKtuI65KfhNMNB9OQv16YNOm+bivVTU4u/RMze+TdwqtTlTYHDKpfl6Y0+PCUOrjPC/s7rrNh/CRCc/t4e1NUe9Ys0qgqA5ib1AfLw9Xz9bvK+xeSGm2brI6N2wOrJnAdTk9i3G2dMxWicYg4oJBbhMMdpbgtGHC2oKJ0ZhZW5OP0KyXNQ37OiBjZocYdShtq2qK+t6XZdHJUys/tLzDtXQ4vFS/r5uDQbrWZIK840p0n12kn767VyVbjNDLVviG93B4qUtSYxMAWWF4ReGNc3aZscmOxG5iO/rSJofDiykbWwsQ6aa5CuDH42uVMnwhyrIs9cV66pim97VSC5quAWLZ2hSjGkT6bDjYWiqTauqSHExXrgbVFMXQhfFWy5fn0Pn+mkUIw6uvKTL3zq4S/RJn1vCxftPetPJUm5cvC3Z169mPsdJ4ORBwiR/ruDQYmyK+sbOuEn0rbnYm8Ss6zbkco1pbk1bOa+qvrGP7Y4NRDWJkh9d7U6QWkD67Dj+uvEOcOzazSuFsjs3gs/X7CriAuW0cj6+fn3/5sW+7u1TXgmpk9+VkWy8HpXbR5Ogs5Pfp4WZQjdShqTl8eclKm7WXmrObWDW1KQf96lcaG4KtVwSmHwSTTUJsJ+remqj3tdJeLD3stEZtrfqP1Umrj/Pgujpbtcs/DqOjWU7mC+OlwesmuGdXGWEdNWE2RWpkzSqhp/jadpjul8Rhk7OZK2OZ2Tm7fqp9TfOBr7DcjEuDsS+C2qjyrmn1/v4BuWzCdBY+8y005t8uYVFcqyO7bJvF1nps/GmK1Ehd4irVbfJOTwJtq4CKxxdilaVcQHkM23yRVe8pt5lgqfYFs7SJ5bJ+L4cRXF0ohRQAI/rGBPtCAvmWOftIPXc6nT4//769/bGrWjEqK/bOBEu1yVDE9GtZHXiuF+jLRhOhmdtUZrPAZ/l2DfAL36y+5nP+aKYZNHlHeiqStA5h2ld5m1ecVNBGNMtBqTMTVAnTZtdw4DQuSDcsmuylBltzzMjwY124zX8MN50fGsEhn3IbtgLhNfGCraJGv4xRGVo1fI/SCvTZzkiYjwRF1XB2ISKN0ZrrRy44zIQ/cLVeQayGBPUK49UKmHKa06cRNTpFWwwBe2FzOKkD1A/ZGnnHGctekBiGZnXql5bhKsGBq81rztltkusA1RKNKEOddbqQcuKxlRoc0rArjg2ZIGdEWgfIzLK+WtA6itEGQovYvK4Sa1rV6USDw4RitArKUMNf/t2IfH//0KHRCrp6KwHYn00GDqKSRBe6EsK4mUU185/dafNap1mgmiK1Y3Op+rwsywZ5V9cIdqbs7AokPqCBEzoqNGIJziqDCNCojL54+ZlxdRitSNwmsflsnmDpMa1Q6zAH8u79/YP7tIZQpxH9pwVOZc2huhrSs9itYb2cPj//ar/qFdvqsCITvVDoqAW2soStU5i71bK14sdhTc4NTnH0wlYUr5qDOmyLWHjF2pRQYgoHrRC4TjB2RJf6EWF9S6Df0+nEuUqHWbPmsKhJWIA2xyB0cLU2Rla26rWC2edypmKr7rg6IrCAXqjDdJiAiBOVMNkQrbRHeoWBo1nmzxKYV6iPNK8LpQpnON/sch6OKZrM+q353BpRxPlpUx2DaAH2Q6Zsa7/saFORVgY3rmzNKsHZos2H6TphtJqW2qWKq4Aj9f7+QcfYyupgjyBSGOQ0QL+IkWbVGa2AVrDAOpzPZtPGpcHYFLEXTAy9WFa2Ag1SUoPDNDEOS+3SYJ3Z9IbbhK+c4RjXASbgqmoJjCBj1xFEug7ccG+Ct3WxZRTDvYmlcJgfm4ReCLrOaJMN8m4WjE1E+35vA6/o1Q9Lq01rYm7oRw1YT2vgEkeu8rUuzJmtH3EpYodGpwynDt5wZRzuOrNJD/fQxewCO3s5VTfAZGaQeHlRzSipY9zDdNRmDZHPJlqN4eCCJxmtU1HXUaYddZL9YiWtdsiKw6SsOAlrQ3VvlqZLx+Mr4FcCNWdmTfPrisO+KEnX+LyvlXpiaU4GrLanf/+tlHc6/TguGA79Pqax61hzBM2lrR9hE3+DYS4RF2cp9wkGXs+utjqA+hqmrXLaV70QznZnMgL1MVuwZdpC0RQN+9JB4fRWn9mKo8ycYQIxUgxxX8fo1HHnZWsNzThGkxOVpfXCqX7WTtkcCa5mOnbwh0sBI0ITG5cGY1OkbtgUWtkK4dscULOW5nAgoVszamq/bGu+kTkqs5opEOTXuVSvAuuUQeklzF50XJjJhLmKfNhHyFwEzhbRpiXoVbN6b5B3dM4GAxRmA8YxMOfw0Vqxjl0bOjaquG2EzJpyNIPmldmhG/sSXJ7InfOGObSMIn6kbBpeKrSj9ZFuirB52LqwfP3RDf6iX80aMS1i2jAyXxNkqxs2F1OtWdNsa0Vofjqd4OTn59/6143Vt2qNV0hdeVnUDBnHDn2BMP/8AtgxCYejaUHhI/vl37VwOrF+zWFRk6grDjDqWFQO1eC+VtUOc0gYlzkOS1ScoSbJsKEuC/oVrg60Xh1qZ0287K5PYA6Y2/Uios82P/eNqblE45avcgFpW8NrfcsxGWGlAF5XGK5mwyI1wiE7u0pUpGpH0zrQyOdMwyZi+wWUn04VtYY0m9j2TMtswsWBOdUfFmH26hxAczOiFeiPfp1oMDZF6oatEitbYTLvWOW0a00PR2E2vXnpcXTqdlbbGlvy1JHFPBleLP08NIwaGjvSgdMK/bXGmmvW4Q3yDnYx3uCIHFun2P2aUqvMjzpOTKtBZurC0Vw/NhjmMycxHbgkUS9C2IccsUGtk0y3W3NjOOlRpykayjv9pqhbI3usUbCIiZVXtc4WtG1GisZZU683ZAIRbn/zDrhdhDbE3GnUGt2o2zyLmoVbh5X6snLjPQXt2sLkR/aLUcO/1rB2weZNoq44WLzUuF0mQ2v7Wg1NIROE+VeqOLY0nTSbw3o10fl6OTPHZkUd98bPvoiKQTc5usS2zNGBHo4ym6xP1D1M23LaNCuM1tf02S3HwGrbpkirrVwl6vWoRjRdabAtR0HrI71mIcVY20DrVORJLe3XdZ5F1Ha6l2HG6prGOawN67g0GJsi2qyrxJpWGGIFQoPDhE3+Wmc4CnVA0XDNBKtthyPCawSWuXRXD62mVagYrcIwQNRpitTImnXY5Z2tqrwe1K7tlL03a9Cb8WpQZ3aDtQ4hLdv1bF6pfTbZl4Apm+jMtH6rrpoBhzOVDJ1sioZbo11gxgfWaHyWsFazajYuvatmxNqiFJSgA8C27tMVdR1lQrDKtGnHHuydyy4OG/AR53Z6/KCxDAPRCkjTJcwNsFIFtlsK1BXHoh7Ok+rhvlbVDnMwdvgFEn2whYj5bLX8O37WPVVnoykYTjmu19i0+C8HVO2vT4MJj5PZsF5HmAbIZ++asLGmqTWJfo7hqsHcXmNN61QZoaX9iWC9Nq0tPprzHDKrbCNrpfqxTlSurrWIDesqwSKdhPb1uBrU2YhrWeeq2kRb1XYo1aVguBDBHzPbYGyK6E9dJda0Qgi269FmTVhotcJw9M0TthpWZikStW0daLMD/VTXmardrS806ZcU9FUbrjGOVnXKVapf5J1OX3YzXG4MhM11dbo6oaXD9HA54PpSY6AReFWvk6qiqle0T2uawPqrObM0Jo1NdGYiwQsSDpNwM+TozrCrD02RDSta6XTHPNbpuGYNBUM6D7PIVFN1IvWoNajZooalk71g+pGqeqLW6vXMuYQizBykrYjGbciwGqIh5m3VJfCBBtWlmtZqkAv1+0zNqXZqTl24bXvgcsa2RGHzWUewtsLqtt5J41ZnI/xRMsjROWzXOOYh3VaHGd1MlGCIObu0/jCtk8eQ2kfzSq0NcWHZYRRaf5g2IFYHcfGmv5XiIpr1NQMII3ZRqOVh0e5VAqhtzdHuLG3rNuUdxmU2xJiBRDH8aQUs8GKHY7NVAqU0qE5yUDQTaZ0tNsdYuY6LAdcKTREN1lViTSt1laaaRL2WrTI6NWLN9G4UCCwP21qrGasK/+z+WDFqgNUgS4dFyKwHB+rwcB12ecdZW1cW5PDfip5FulRh4On9msRwJOg9Bl770qvUSllk36WqVyQIy+bnMNPq4CPsGBxkclVS57Wm5iPN9WJfEaBZW/WTvaikHoaAVuCGVmSrHNBjLdJxGepvNaJpOGNN4Abh6EfUt5BVt3EUMNVpWT1c/vsRPj1RgzpkiBc56JqxG3x2RJvDhC18WIDUZ7htOUNTyNQhYxTanJn0nNbIRENGadMKSkuXHhocJtALe7ePhhH9wo4tFMNrHPVn8HXa0zdOoRo16zBh3vLLDCenrahsaAldM1mE0Z85z2pMGBDmMwGDw7iGRUP4aI76nAbsYil/1KtFSMMsR5wVON/sKmAFG2LmNwkLYTjzEYVi0atG+atjdZ6Qhu3Ew2kGn7UJ0/RE3VDPLSjzv8E4K9KO6AZ7nLUiATZZedUrRhs7NYU0L6V+etuEpPOwP2urJDnQoMF+ecqACoiaY6T+Nxi1I5seTRGMk3/tlLjq1bTYg1HU0cdMg6yOHHI4MI/p9nN5tWMNvWmAuGZu2kWMX5cArkpdH69r/9bWsODWxfTW/Zp9LOtZ3IAFNL59UGyM1nxs1Mya5qnzUAQebX9s4AxO75ra316EK1zlXc35dief3YHhQcL3BoVvZt/rQ3pfT+BB5NF6h7Xm42jTTHuOy/N+jccOxUCSeHYCD7g/zpA+mbzjMSnPJO2ccxZn8p+dwNk/d3j2AH+G/7w98aThYGH59gMz6OPhDZcnBXuh229vf759UC4MIc1D4M4Enk/e3RlQuguBEAiBEAiBEAiB5yIQefdc4xVvQyAEQiAEQiAEQuAMgci7M4BSHAIhEAIhEAIhEALPRSDy7rnGK96GQAiEQAiEQAiEwBkCkXdnAF1ejN984ff8SOsvfy+3r8/7ecanBlxOIBZCIARCIARCIASUwFje4edj11Uh2uua9NWfcnQjaXX24V76qPSzPux+ps7Vca0Zo9QJgRAIgRAIgRB4QAIDeYeXo6so+Ra/r65XzkqrHWHOnoWtpvQxOWd9iLxTdEmHQAiEQAiEQAjsIDCQdxB23/4wxp8h7+x1NJF3O+ZomoRACIRACIRACGwiMJB3PG1ighahTnDr1m5KNkUQarUVHlTL56Dy9cz2CjY0tCd8otXKB11qF7CGf4dxaUf4szbepEaMx+OrBqsGWZOW7WG8aHg6nfgHcwxB7TCNUhhBk/f3D4Rj/K+uhhlCEiEQAiEQAiEQAs9FwOWdHtrZ/VkUUY58fv6lmmmKoEUIRe9mQq9QTh2Pr0zzzdyz3wpsknfoHdKKPtMlE0Z2exROorJ5uPx7ebbJLJodhjejXmQAACAASURBVEBdCDfQtbpkvbNfSG2cBb69/TGfh32pJ0mHQAiEQAiEQAj8HgIu71TSmTI7HF5mUqYvUvkCXQK+ppZMstjHy4dkJu9mB2zsEdEZDYYwY7Isi8JE/eqDvW16Ju8gfOHD6XSqcGoO/U8iBEIgBEIgBELgVxFweadqQ7WIpg3Q2SLeamQCZ3J6krcsi9m5ul4x+4yCXmlCJSka1lvV/endsLuaqcChCPUIE04SFCVmhVNzGGASIRACIRACIRACv4rAF3kHiaAqh8dyVZcQ076iqo1gB8rvFncbZ36awGJcTBALb0yziMKLOUzYjyqQX32w3mendzgjjLwj3iRCIARCIARCIARmBL7Iu6otqCeWZTEhohb3FZk2goqi2asfR1Vphb7MDTqABFq9v38M/Wna2j1ftaZHg4auDoHqYA5HdabmWCD5GAIhEAIhEAIh8EsIfJF3VZFANECOQFtQmuhPK9YXKVbVRlRRrFBzWLQsC3qsx2lap6Z5GKlFiHFmSv9AED/p1bY1B6WwqTWRrhLT5B3i4hEmWhEUSodHm5F3lXZyQiAEQiAEQuB3EvifvKvKA0RUEkFD4O6t/aSgKYIo4T1fNuTDQVBE4ciRUJv2F2n75B1ipCfDjg6HF/aFmiq2kMOGOFqjQYZQf1SBJhWyyTv8+R0NQnT28o6VmSBh9TPpEAiBEAiBEAiBX0Lgf/Lu/gFTtdy/65v2WDXcTbuL8RAIgRAIgRAIgRBQApF3SuM66eGPKq5jOlZCIARCIARCIARC4ByByLtzhFIeAiEQAiEQAiEQAk9F4Dvl3VOBirMhEAIhEAIhEAIh8BwEIu+eY5ziZQiEQAiEQAiEQAisJBB5txJUqoVACIRACIRACITAcxCIvHuOcYqXIRACIRACIRACIbCSQOTdSlA/rdrjP5Xmdz6oefjakp82+W4fz+NP79szSA8hEAK/msBY3uEBuXxI77cQ2re7Hw4v3+v2t7Da0ekl+x/e1YFJwrd94KM9AvqSsdg3AXagYBONSwNhhWFCn9rNB2IPa67J3CHv9OnffLQ1nkY+tIb6a5zZV2crRgVI/y8kuW9619WDTx03kojxkul9lq0+9f1sZVTQJiC5suEVq+Gpn3r52HNAdbpeOMpr3FYma+rj9Zuch8/4iHgARwjr/dfLlqv6SmKp9pgEBvLu8/MvFsf1M+MWse3b3esCfQvffoDNffsf1j5dlPE2XubrunDhWOybALuHRvdvCA7domZmUZOl+go7Zm5KqBubGqKyMR8+ghEX+A7ja5qo/+sxmuXdk5N29lkwevqibY0LM/PW2o7LL/ZdhtYk6lslm8o3KurlnU2J0+nEMG/hj06D9RjVE31pk+Y/bNrE9Er/daG4w/R+WHo/zLGBvMMLtTDG3xjtvt29LtDfGMIjd60L33o/myUS5xyHwwutXTgW+yYAe9+UqH2t5GMbqqm9TT6gssqIHc2N+dAfXcp3dNE02Y1RbVYjWroyvXL4zJrRm8k7HulZ82t9rKO2skebjdfyZ5OdXt7tG5dNDrDyboy0wJeba86Dp43wvqvJjDx4yHFvRmAg77jGMcHGzalvU4QZVs+KsRjhItRbCXpKzENyPTGiPzVRfWYddUNViMpZdKfHNhoXnVmWxS4bVNMv9KxcXdIi61FjV2uIAjca1D1GN0yoNXTE78oGfz1ePZ/TTrEDvb39ods1cK2P9BAvAgRhbLFwnpZpB/n8yITekVnjhikeekWDs4StgyvFWTMudTbOuh7mW7BkqJUtWBLWOkjfDaN2bUi1yNINxt3T2+YYdRVHlglzBqh5fWnpVoz2xmpYXnOF7pZ3SlIJGEZdNjVATePa0TVK18azx9szjLwkccmv8WQ3Rg2nXixaaukhRgLhNKiTBJtgXVpBgyGvmQO2AsClatk8t49nh8nq5+NjEnB5h/kEX4eXByfK5+dfLgRoNSyyr1C6dmO6c8ralIJNXSbWELTJzSZ2F0D7wgUwdANXJuNCTdg093QJW5aF1vj9j4HoaTngsEjhmEF0CmKsz+jWJGydgikuNOrVzNrQJVbGRng6nRj7bCzYpCa0CQgfDi+I11ih7VDeaSy9z3RApzr6tfFlTUugGkKGh7worObso41LMxtnFjRfAfJLCCqw6P39g+POorpf3hMjQyB85qxMGMYd0xsy14bP5J2tZuobPDewsMnMlbNRVRriavpVHxA11YAWNelm2dmBETHqGqVRgxKnYvVqiNFmxXoaXLo3YaRX6jkzZ4kZRhhhyBYLrCEiequZJDn7XqH+GHxMJHVMKzdpvfabail6cAIu73Sfs6uoGfK+SFdMTG5AUY3FrYizGTX5cSVHXkV9fQ3NLhstMh/0o6aXZWkWAi3StLWCQXVbx0Lzd6Ttsl/+CVDuOsuyGIRhF+a81eFGeDy+YtRWjgXtWLzrCdMCxTRz1GcY5OaHBJQZV0CqBOudBocJ2hyWNpl1XGwgdDY2dlhkzBkFOsKIG2e21YT1qxhRxJCRgOULMa6ch+on0hUjPUEFo1otIMeCwkdsupDd/LIxs2D5+zDyUuJImR3rZfgRDp9dPzFD1AI7vWSV0H518qAjctYlSH2wtI2m0mhm4yUYt3rYYByGb0rO4iUlraZzmO5p4nQ68XrX7ypGb9iXZq6cOdok6cck4PKOl4SJjzpHGc/ZIp2CSOPit2lndnSmsi8kzKCW2vamRVyg2RyletmYPoBLvMa0prk3dJ4dqVcqhc+uUzwJ00B2pPU8AM0NvobGu3X0H00sRnODM4eHQxq1Va4f6/rYE64WkKObk83hWROoCjTkflP9GTZHNVUAnC3D+pZZx8UGQmcItlsOylBqGHMM2el0en//oKm3tz9nnbwzRmDpJ5ih048V447prTsijXNWY1zIkBX6xD6MPHThMPFbR9+dldJ5y9ePiEgn1eHwwmVnB0ZOOfYyG1Z0zb5YvyZsVq8chatgxK5RXbKcBmMNf824VIy2MpgD+Mi+dHGoV8ewLTIRCCdeUzNFj0/gi7zDXmWXOjY8zpsa0r6i+tXQJrTt7rXfYY4tBKxj30h0gbDLRotmQqeeNSoE3fKrwrAbKPyaa/3S88sTw72hX7hnnTYLkxbhTt9sLIbGa2WbAEp4aAGZ+zbUuqitHA6Nmt8NOKaNn6hc97Z+NvYGq0DhNYUj1ePx9fPz7+3k3W6MHLsK5GzI153eeqsBPLHVcVzsnkPv3r7ZiMVKPWHvfXdWqt8krYgf+3m+Y5XglGMXzZWLa1wjZStN2OLQ+8yGV8R4Vu40LtXwbdGgw5qoGFfOAWzfampNd6iPKPgVV40k/YwEvsi7OoF01jazZF+RrR241AnRdnfm9wlbCFjZ+tK4LGotGu4csGnu6TWsFkzeWYx0r+pFLbokPevRgBiEWY/Nd1mdA/iBxWwsqvHh98uGcLXAHAsERrB/IG3fXqAnrK/63YP2NaGDjvxqR+trGjU1B2nz3+ZSrW85lTnGBWHiYHVI2+yYG/AWGOGSYcSWUMO3aWa96EfAPLuPahNeNZZZh8/CqfWRM6Nnd43XyCYYtH5XYqyDrhfXzHnLr5PTKuBjHTKtZsNn4WhNpmu/6IIVNKFANN/SFr6uQs1svArG+pXJfMPHBmMFYuEMDdZW+r3Crj58xLdKG7LGMesXNaPtDMtTf/wi7+q6r5cfrhZ+09KfVqwvUlg6ETGbdXGvOdp2lq4LNGrqwsQVoRbxAAZFdYFgv3r5Ic2u9YpqimiKCRzs8WNNoMLKwyE0p1dmTeHb7mU19SPC0SMWfe4dhw8/ZLGuAbMuHzMNrRhNJdMlXdeQqTMWaXODbS2hqydcNc7oi/MfzW3I1AgqYCsiGXY680onqs1Gtm0S1SzutcEBm4208+0YMQPrzzvo4VaM+6b3kB7Q6bhgXtmYIlMvDapP+3ZhU4gxakIVpKoZ1hnORpZClJgzyNTbdqhvc1iN7MOorNApr3pzqV4vQ4xKAOlmqqj/PUZeDnalq4Xq4VaM6EUHvcq74dqoXWOMjJ76yTQAsjslgDroy0zBSQ4TrSXx1AT+J+/qLERgOj8wdbCy2FRoijCf0EqtYcoynzOSQNWmTUfWsQStMcFLlzm4RcUFwhYjeEuz5qRuABoXrnmGwDUIi6m20iK4pPuEdUeD8AeljIhOzhK1L0a9b+FWN8x5W7PgqvrP0VT/ucJydGgH9Vl5OD/RiwKkJIJBG5cZqBqX1aSfGlFtVWcpJ4kabMaln41qZJjWmabu0e06Lsu/39kQO83Sc8yZapk1LYEuyF9LZxiRb+OoDemMZjYY903vGiOxDMdFHWZonLFwlZ5vxcgrok4q9sVhRV9sUgNBBQyNLd2cAGxOs/swUqzD4JASiqonDM0wclLxzoDOhCbNoCrG4YrEzOo8e9mEERERKVYkZcKvAVyc2RGdx9/O1hBYUxMagnXEoTFTxMseZ1NIO0r6wQn8T97d31FbO+7vwNkebU3ntXG24awC1notRY6tZVrhJ6WxiFwxIixkdQljF3VtZdHdEvq36nfrdFNHwbgJ16wy5GZzLX/7bDw70LPQ7pl/FmNdRe/pHtVYs+zs8Ofs2lg3ox29pMmvIhB51w23Ho+jXs3p2pcyrFyaXXO09Celb7G1nF0Tv31DxVak390fcEyD8fJBwUyrx1Fq+dtn49mBVm+/Jb0G47fLu6tjXLM2Rt59y4R86k4j784Mnx5W653lM83mxVgaaNYOyeftnrsE8V5R5UAWn6X3jRsquq5/6vRQAxmMVxkOTO+zxznfOBshic5eL1ehsdvISozfKO+ujpGrxNm1MfJu97z6tQ2/U979WugJPARCIARCIARCIARuRyDy7nZsYzkEQiAEQiAEQiAEvoFA5N03QE+XIRACIRACIRACIXA7ApF3t2MbyyEQAiEQAiEQAiHwDQQi764DffhH0/hL4eZBCdfp+zZW8EfE/S8Br97zEGPfCyAras3p235X6eM/Emg9mR1Dtt54aoZACIRACOwjMJZ32CDP/pZnX5crW+G34pu0EZro7n63X4oNNznVHCujfpxqTyHvGp204+d1d/ttWuP240yA5d/jjs/q++HMf6go4kwIhEAI/EICA3n3+fkX28/Zlf2mvHbLu02K8FohZJO7CslNGFF5NtyRd5ePyBoZumnILncpFkIgBEIgBNYQGMi7t7c/W1/8sqanrXUi77YS+wH1N2mFfoZE3l0+HyLvLmcYCyEQAiHwLQQG8o4vm2OCnmH3xT1HO9trivSeqbY6Hl/xKj3eTkVHeNQqM5FYc5u12e9Vs8Kgnfpop1aknliRPaOYt7O1CektywJKp9OJDRUIX1atzbVHtNIcNT5Ma1wwi4ev1nx6AmGklWn5LEbW3JQgDXRKjMt/r0NFvgXeDDffPFvd0L74HFrYt39ZypfRVfeq/TU5s5nP9x1p4ByXNZZrHR1N+G+XkkaNvvRa1tLZuNSForqRnBAIgRAIgXsScHmHLRMeYC+nNyjinvf5+ZfLfVNkhyh6HoCNlpuNve+r37zplSaaJlAzs77gCU1xQ8U+x5ARC6PWl1igJotgymKnvON2CIfZSg2irQka+GmZdLsmEDXyLRat/P7+QTKaz/epM5OiEDlqn3W2JjRqw6gO6OCq5mCaowYHKnyoNNIz+CgdctBJax5uDRb1MY50WO3DKwZ+le7oJIzzI0Qk3dB8+jksbYasGklOCIRACITA/Qm4vFNJZxukrunmaF9E+aKHE9hadDfV/Zs1uRlbj8OP3Brrlm9/Na+hDYUU7Fsr3Q7VAnWbRjo8QKq79WwjrzWHIfeZqhvUeW2Fjoac6Rvrm5673MkGYxWdOPSiMzZhmI+EWbZSfLQA63BzHmpzvUY0f33axkVVF9I6kczJ9b3UmvxewaLeuPmJVgb28jlAZ5IIgRAIgRC4FgGXd7rc68Ktaev7bBHFFhMQE7Z5mJ1m86YdJOhP08R2bt2irIjWoId4dId8ag7b4815Vj4cXtRgrabAVSWrh2phU1rVWO0apkwzqX31DfmVVa2jFs6mG4w8KdTh1sOkZriH2poqXA3q+NboaEebHA4v+rXkbIy1wnDm46Log6qm1ucYajTENNOJpwbNTxSZndm8UjtJh0AIhEAI3JnAF3mHrcV2MmyozSK+rwjiSXdr2MEmx1MTflzDpdkabedW8WRF2lGVPjeVd7hnR/6bYle3mebmDZsqZVCH4bCJJqp0q6zqgZBaOJtutELty6w1w01Zpk0wwXTKWYDDHnWqqLVL0iabNBBNX9KFtYVZy+RHlFbZan6ifjNkNJhECIRACITA9xL4Iu/q9qZ7m+2F6ve+Its8bAfasc81TSw0jUvTGtTwj7HosxlE13pPrVEYWo3oLHzzZN/HXnud7ZG+sXeL2hQ5q61PmEHF2IwL7KPyTATX5rW+BWjOrOllfaRak7MImepqdVIb7kuvHKbatfmJ3o0SWumU3udkWoVACIRACFyRwBd5Vw+rdO3GJsR1XH9asb5IXdfNAzuQHi/VHG07TNf9idVsT9INFb9X1dttPOCBQXqFVtATSgbpqqWsF94cJEN0DfuN84xi608rTL7QDhLV4VqBsaPIMNabegiZAM1g/dhjrOdJaqEndhZ+PdHU8dWOgF1zLI37yMbK6ujHZub3QfE7w3rCy79fH6/xrRLTm/v0vx8yVksiBEIgBELgGwn8T95BTqnygFu6hWNlx75oG0xThG2D9xzZ0O5F1q7VpsqvGS+tj+7YynRJ3cnUGT0QAhY6r10zLvRCtWRN0Bb7a4WsCqz+tZntylvlXQ+EQTGB6Kob/AtCKzL3eEv9cHhRhgqtpmcYUZO+IaFmEZ3mUEBbK/rJvjBY9fuMBshWy9fns3CgGQvNMqdPaC9mbRiUWuOYWuBaR9P0TZmgbZ2o2hBpvS54hdKmzfzaPDkhEAIhEALfQuB/8u7+3esZxv17f7QesWWqV8hZuYtrQ6SrlESOqpbaqs8xlTysDEEwLPrBmf1B43UD/52Er8sw1kIgBELgZxOIvHuU8cWJjnpTc7T0bBrHPDxx4dGa5pw1YhXOyjt0eomCtB6f4iOE+CVg14f5Owmv55OaIRACIRACy7JE3j3QNNAbYVc5DeJNNN6Y230WCEy9vEMv91E5DzJsvL95IdiV4fxCwivJpFoIhEAIhIAS+E55p34kHQIhEAIhEAIhEAIhcBUCkXdXwRgjIRACIRACIRACIfAoBCLvHmUk4kcIhEAIhEAIhEAIXIVA5N1VMMZICIRACIRACIRACDwKgSvLO/1xwLP8iX3/c4FHGaivftjD0rSwKdJqSOO3F3wSYa1gOftY7WtlXd/io7HiD1BmfT3j9J7FkvwQCIEQCIEfTMDlHXc4JDb9HvBhd/F+/M663TyfrynqO72ktHlRbFM07HEm7/D0jTr6Z1kNe9nXamjqipkzVngeTf1y8phRXBFITIVACIRACPwYAgN5x40N+1zd42fB21nIrNqj5Z/dthsN1xTdLsz6rgX21RSxzprEb5B3DavhEwefdHqvGe7UCYEQCIEQ+GEEOnlXX3vQBL+pcmPn/kXPJe8gvIaUmqJh/Sbzx8u7nhUONfWLzfNO72aUUxQCIRACIfBTCWyTdzjVGD5btdn/sJWilf6ZF++O8Y6wvu1gXyu+m0E76gfv7e3P29sf7Q71ERF9Y+Lz829TRAeWZWETjWv5+gJTvhWXTuIPvFRbsGhZFnirOUwPi3TI4A+c0Sceq3u1vj5gecYKjmkssA/faqtZdIyFCR0X9VPx6ituccaGSD8//yIca9hjRClfswtPZtO7n8MKmRMSTVB0PL5yLjHkYaJWgwWE1hNWhsO4OFGRoAP6t4brh4zNkwiBEAiBEPguAp28w+JOz/RGpO52ugdwn+BOr9s8lI3uc9yGqYqwi+xrBVexmbEX+j9LQAHQ4ePxlWk00cDNyLCIuyluc+Oj3vI2+9Wm6hUtVeyavyzLsAihoSYqVKFzOLzUTPhcd/SGlR2C6ghaK6tpgehHGCG69/cPuGSxaDXMqNPphF7e3z/UE0VBs+wRZmkB+WumN+/bKjeFDzGKcYc/b29/0B0yh6NAx9RtTGwjgL4o3bRroKApnd5DI6ypLmlcrJBECIRACITAwxIYyDtKNFVIWN81DDsrwlZRt0zufGirdrDPUUOohX2t1L31aVMbVQ0MNRzsD4sQo6LQappe7yRq8qyoNhwWWV/2EUZ0F6fZ2XbesFpfhIHmuLNTS5j40FLra/l3IIrpeji8IEGJUwd0yIoSeeiYTk71ZDaHa30iZRMNkKMwVJOcS5xaNpQMFr7V3umz0qBLKNWPFVHzp4o0nkQIhEAIhMCDEBjIO+wl2DC41WFXoPJDQk+hhjsKMq0Vj6Z0p1Ec+1qphU1p0wrVK9tK1fiwSLdJVNYuUKp3PNVgn6YIqNWGRbrrDwcIp0qbTu900JWVxrgsS1OETilZaizIqRhZs0oNyhFyoD/qCSywDg0iAUSc81o6o1eNoxWcVwuMmk3U5swls0CwPKhDBQbL+moQ00AvQ1SDAxx9NVKbUDeziyRCIARCIAQelsBU3mE34gEe96RZJLpXsc4wk6Uzm/ta0ezWhO5q3D7VyFDDocKwqOoSO+nkQRF2XO2rSQ8VA+rPikCY+zo3cu1FdQDzawgoalitL+rH96wPOKuzWNbLuxkrDsqDyzsKL/XT4FNK8u8IWdkuOs4Nm4rVIMcliRAIgRAIgccn0Mk77ATYGGb7PSOc7dlD9YBWttPQFDYn279Z2rRinU0J28mq/aGGQxfDosqqnjah+Qza0P+qEVltVmT3uFlfE8MBqiGgScNqfdHMuHpFsTU85LO+lq83ZzFzWMcGdMbKerePs5Ey42xV6zNqNtE6HIX+5iza8i8L2R2DRQ4s48q1Kcre8U1Gz2JpbfglR0uTDoEQCIEQeHACnbzDJsEDPGw8s3h0r9I62E6Gm7TuNNqEu8vWVjCCfZRum+X60bbG6pXe4rTmwyJu5Kg8rIMiq4lMcOZxCzJ1w0YO/22KKBpYuSaGdWCzKuyGlXJDmjcQrVW9zYfueNeeTgIdUfCnFeBG99AdqjEcdqqONaz44x6apRuN1lTjWn/57/fRzGTUbAJnMMnpNuvXhA0KDdafLc+K0DXHhZ7UvvAVayb+hvWTGQIhEAIh8DgEOnnHOzt0144WVH7pXsX6SHBTwQ0gCq9+d9nXips0ezFn6kfqAPXWqmngGjV3cYSGIogP3vayPZL5SFC7sMehvOPNR1ZjoikyT/QP/qCczBnaJEZUYAg9K1Lig2Zg0Iay6if6WWloW22I+Ub/6Tl1El3Vadaw4pcK7YVmZ9NbjbMyEwqZZtlEbdJttrUEEHEgOECY59pRNUVKx+Mr7NA4h4x1dHozE4k6OrSTRAiEQAiEwEMRcHn3UM49qTPYQa+7F9Y9m3BmRaoeUBk51Bm08HsSM1bPToBadlMgtRVk4iYjqRwCIRACIfCABCLvrj8oV5d3duKiHp8t0sMYVNYcNfXj0w2rZ4+9CrU1Eekz8FC/5qyxkzohEAIhEAKPRiDy7vojAhlx3dO7fV7qnc3cX9vH8Cla7ZN3+AM7vQO7/k8angJLnAyBEAiBX0sg8u7XDn0CD4EQCIEQCIEQ+JkEIu9+5rgmqhAIgRAIgRAIgV9LIPLu1w59Ag+BEAiBEAiBEPiZBCLvfua4JqoQCIEQCIEQCIFfSyDybsPQ10eNbGj8tSqeN7byR6xX7PerF/kUAiEQAiEQAiHwAwl8kXfQHBolnoN19keg+uO7+u4BNfiN6ctF0hoLs5/N2vvBZvJu+BPINf1uAotf1Kq4hNt4LYS+84CPtmZlC4T91nx9yFwfgr04izZnCVjTWTer+b35s8nwvV6l9xAIgRAIgR9P4Iu8w67JhyNwyz9LQbf2lYrwrM2rV+gVxpru1lhAnSqIV6re+8i7ZfTKLLwRAf7zvVV8dsYDyjtCrl9L1ozmHepE3t0BcroIgRAIgRCoBL7IO76XCRvn+mecqrxbo4GqH3fIudyxNRaGdZBJOdIEezd5B5fwBgsc5sG9z8+/OEuDnvv8/IsXeT2yvHtYFfWwjjUzMEUhEAIhEAI/gIDLu+Xfuc7x+Kpb/tk4e3mHTQ630ng0CJtapG9Etbt1Jnq0VW8QoqQ+3RfOMC5oHWTqaz1RAYdDvBVIocPmllAaKFJ5p9ZU8NG+JiC/2Jxt64vFUKQGzav6kbdo9S4q5N3n51+APR5fT6cT5gMs1Ohm+TDbwFfsGjWVJQ4RWcSoCQRdVxVFUPXQdPh6VhjUkVUmvEMNT7QavxHRSQyB9YLSOrXqoCQnBEIgBEIgBC4nMJB33HS5m57tRrd87Kxsgt2dH1W3oYiKRDWcVsPmyq2xMVg3afa7LMus1MSBuoFbk1SQMwvaC5pAAby9/UFbNNRq1imLrHfkozkho62JjB3ybvnvFi3Z4kX1+AhhhPQl8k5DMJ8ZtQ038hHmMGoA4czRLwbgz6lrnO1AmhqujiyLQGk2B8w+I9IQ6KeV5mMIhEAIhEAI3IjAQN5x11+/LfHowv4qX7UOAsB2iLTuoKbhbL9X0cP9vhrs99q6hcOCaheqQMRuUnJmAXb4L+Oi0tWo1e1KWCOlwdovu2CdfQkESDGEsyhIOmhTFCki489+dQ4wTcs1BDbEfKN+Yj6gqSLkrIC12ov6Tzt0vk4PYqzusaiOHVU7j+7YlyVqj1YhH0MgBEIgBELgFgQG8g5bvp2I4FyHG6rJOG759rsK24bZ/PTvP7txpsqGGzliZlFjEDV5V05lAYrqFo58eqUJNNeNnMqPlgkKDSlloCdOpxPc/vz8izue6A7/zjZ+RqqVq+cUH1pta1phUmjiL+0YLPJ1ODjW1l3NVydrCNpc7TO/IiIcWKNv+kOQ4V1RaEeGxi7oxogJSAAAIABJREFUYXWPRTbKGGs97+S0IUParyGwKIkQCIEQCIEQuB0Bl3fY597e/mBnomTpPdCtXZVf3TVpR3doZHLzXv7dNNTjHBY1BmlZ/1JK/Z+15UauFuiSujGzYA0h797fP/A/YKogoFaugoCRqs3ab+OzNuzTPFxUKV81EHiSg4612q/56mQNQduul3dwA9ZAD2kO9BAg+qqh0cPqHosg79TbYXr4vSLybsgqmSEQAiEQArcm4PJOj9+QXuOBbu3YDilcuE2anbqh6t9F2X6ve/bMoNm3u708juLZG+tbX8yvFrBbVwvahGIIP0qg+Hg0eafyXeOyA0uEppk61hp4zdeRqsOtbYdDULURb7PCGueYTtRGjVkRh2Y4N+h8dUM9t7QFsqmtmcrHEAiBEAiBENhN4Iu8w27EgxDsfzy2afrQrd1aYU8dSiLTc3qGpHoOmzflUWPQPLS91n4nwcoWNfN5xgbnUU0j1ZqahvN0GOc6hnG28SM6CheYBVJlSPHBftGLNWRpTSjt5b/fWFCbWv3L5d0MPjpSfcauDZHWARAGayNoodEgWmF6I60YLa0fecxJU7OEtqJq5AU1a5X8EAiBEAiBELgugf/JO2x4FCXoBmrj7P5kokd3Yv75Of9ESYUOM3EfU3tviuAVK9DgLJ/IuKmjLfMp3ZCvbtAmMi1SWtAEmphX/Ei3mWARjIAeSlWLXFHeVS3I0Vclx6BUbdNtJiCzKpmh1mErGkcCLqHU9DQydVDgLeUd5KlWYC9IsKYOtD3wpSmCfbXJsdDBsngRl5pVDy38fAyBEAiBEAiBKxL4n7y7otF9plRD7LOQVj+JAIQRldktQhsKslt0FJshEAIhEAIhcE8CkXf3pJ2+NhCIvNsAK1VDIARCIARCQAhE3gmMJB+JQOTdI41GfAmBEAiBEHgmAg8k754JW3wNgRAIgRAIgRAIgUclEHn3qCMTv0IgBEIgBEIgBEJgF4HIu13Y0igEQiAEQiAEQiAEHpVA5N2jjkz8CoEQCIEQCIEQCIFdBH6gvMOf5H/jM8bwVDY+Gm3XuNy8EZ/nN3s4iD297+YOpYMQCIEQCIEQCIErERjIu9mzf6/U4xXM9L+pjLzbhDjybhOuVA6BEAiBEAiBxyfg8g5nNnry9I3HYDN8vbybtbpb/lOc3pHGTN6xQhIhEAIhEAIhEALPReCLvIMuOfsKsm+PMPLuikMQeXdFmDEVAiEQAiEQAo9A4Iu8w9Fd41Z9MSjfm443eOK9nPoS1ePxFe+T5Ss71T6EWm2FOtodcuwVn2jI88XempayybIseMuqltYXYaEj9bxJ2+kdfLYeSUMPSuFMLYLBGeHGE3vhr/rAVlXezf4sz+KChcPhhcONCjYo7CiJEAiBEAiBEAiB+xD4Iu/6t77qRg4xpC+85xvlUUTVAolGBaBGTE0ej6+stizL4fCickSL0EUVYURmpqhy2AReob7Jr+PxVftFnd3yDsbZ77Is6psJplkRZZMCX3PI+vn5V6spfLKq8q4pMjg6EJqGTq0YaTmJEAiBEAiBEAiB2xFYK+9Miun+bRoFyoyqQiWLtkI1qsBlWaAPECpU0SxsUxK1mnVqLvHEEb2bqK2RVvt9DoGoiEQTjRE5ODu08K0IBonUMPbOaKlFiqJN8s7Iq0Ec07I7+Ky6lkVJhEAIhEAIhEAI3JTAWnlHFUJvqFSoZlikisGUFgUBWvFGJBMQBNaKlpEwkWGldkJGMWdSg3KELsHOteQdIrJOYZzBIoFTrqaoElYnQYM29ZgTKFhkB6KIVwfLSA6LNJNHthDQ2hHSKt/NeD6GQAiEQAiEQAjciMAXeaeiwfq7kbybbf8/QN59fv6tp3cN4aZoKO/W3Po0B0zIYohVrtmgD4ve3z/QNfX9WTtmNh9DIARCIARCIARuSuCLvIOM0JuA7LuKD2qFKj5UFphQY6t6w5R9nb35uPX0rvalPqtL/Cs9dWZrWo3bgVnjeVOkBuFMVdtDJ3UgZlStjtoZFsGZ0+n09vZHp4oNtNpJOgRCIARCIARC4J4Evsg7KAC944a7e7y/yRt/0CI4e6viQ2WB7fqqpSAZhwd4sMnu4Bi5oFS1BYuQsE4ZF2+V6k8E1KWZvMOtRutl9lGBIK0nbXaipkZmRWqQHjIWtWBp5WC/IGFNHSxmIjErwn3tw+FFfcCUaAbFjOdjCIRACIRACITAjQi4vOPf+PPvqLRjZurWbuLDjspUYdQDJCg8mlU9Z3/OpW6YkxRPZg1mKUG0VDu6qbxTVxkCZByjVoE7LAJh1j8cXmiqT2hDHLaRFdSe2qTZpgjdQckpQ82nTfbVO5nSEAiBEAiBEAiB6xIYyLvrdhBrlxOoAvpym7EQAiEQAiEQAiHwUwlE3j3ByEbePcEgxcUQCIEQCIEQeBgCkXcPMxRzRyLv5mxSEgIhEAIhEAIh4AQi75xIPodACIRACIRACITAUxOIvHvq4YvzIRACIRACIRACIeAEIu+cSD6HQAiEQAiEQAiEwFMTiLx76uGL8yEQAiEQAiEQAiHgBG4u7+ypct7/suBxdPUharVmckIgBH4kAX3cIx9U+e2RYmla6QYeBvlrn/V4dp1/TIx4SGcz5W79szZ7LuxKSqnWE9AH8u8jvK9V79WOUqwqzfzsbQ7kHSY0H07btz9bevayf2p5d/VJYPAxrnzNK2nXjQcbpD4hmZWbxA74mHB1elh+9URDUzWvDYe7Y7MED4vo2+Hwoh2Rw4yVioxNr9+oGDVY9YcDWjPpHhLEwnxtwrRxrq34yhY0GcaForqIsJet40KfNyXgfHVjk5ErVq5XWWMczg9BNa1+TNHZdX5lpHfGOJv59BYXsl1lLNWEXfJa1KTP7iC8olWy8N1F8F/d0/r2AqrGjb5IQxuuqE3znnD1f2YKFyPq89/Z5aaszhKuq/eyLGdbzfxs8nVo6jo8nPnInC2J5DDb6VzeIVSdLjOCTRhadK3LXm0+Tvq6k2AGv5d3aFXb9pRwxaLV+ivWZhveb1E7QjWdReioTlO4wXybprA/bNsUqT9mEKbwr7pn1zPhqKlhmjWto1oZnc7ySYAVqDWZYwkbC5TWVjp56rjMMCIuItKX+FEvDsfFnNz0cRjRJgvXrTwbsuv28jOs/dR13i6EZrBUS9n10rTqd5DZAqu060XN7poi1jmbMAJnFzoanK0trIDrS7mxaE2iQbdS3jWrd2N8jW+1ji4m7JfVQLVOm/VL4nBcvsi72iu7353QibjbyMM2vOIksKtIQ9YdGvmcK5+ff6G/t17JfK3ccFpo75p+e/ujWrCZfEqmqabG+ZWUMaIvBKsC6P39Y1bUGGxYAb52of6bTf24HqOuOGrBXuKHIoQMblaZH6uHW1s1GG2gdXI2rejbvsT6ebLP/tZWvMq2NvyF9X/qOq8zf/2wrp/J9SpmL7PpVxerBn5jnx31CbOwMrSzqwTB7pN3vRu62Jr/Gmyzejet1ML6tIWpg3s8vuKL9CXyTg3Sqy/ybliDVXHCwfNAfrNHBR4bWBg68zCirIDuYHB2VolSlRToDm1rK/V2fRpzBX3V00otRY8MhDSQUCZapLph5pWCsjqNvGNNOKkOsKhPbJV3yqeZMMfjK0fHtELjDwwarmEmjDRFrKAOI7Oy4lpD33SBYGaT6DE2oCDvbODQO/wcdooiA3W2FS7hCqRirKtbBVJb0VWsBuYeS2eJYVAU/bigbCnACYFeazrrNF/9R0dDg/XSnnnL/MYaivT12XSPzWuiziVbHDRqmzm6DteB3jcu1UPkaOCHw4t2p0UcsnqVgQwqDJto1xq1TS2N2orUgqZ1bmg+0mqQG1atNstBLDo0Oq8IBNfj+/sHLiW4RJu6hDKTLzHXMJvlxYwoZL5kHMbVQx1KC59ncnRJbdbpPVslOKXNPm8OgIYyZI/gphitlV7sIDAkTIP1iutbacjmhnmCYaozHxZ0EBGUkudYr1lAqkg4Hl+/yDsSZ9iaUARwjmPZFNEmIqws4DpNoUebr3WzQQVrpd6uT9v8w4XN5ijlJHt//9AhqY4ty4JI6ZtZoGVLDE2hTh052FQLGBH6qUV9Wseur8nQsC7YHNC25h4uFV0xtbKmsXZoDnd3xc4K6GhYRG8rkyErXbZsDrC7JtFjbEp5gdA4c+An8zVRv+etaaW7qVqrGOtstH2iHxcAnI2Ldq1pxGutbEqojNAiu+iaojo5uSjZxLCa6uowXaHBIA8JKuehndqvboHai20bnANDs8u/vyiiM7M6K/MtFu3a/FeHbd4OR1zr0xm7JDlktn0MDdJITZirqKBXqxGuFoY5BgdecUf4/PzLRQlxMRyNHYNOGcqNv8aInOqJRXc6ndgRJsPMJkcT4fOS5EpOO+iC4dj+OFslNASd2/CKxmfw0ZydWiw2JRrCJKYjjsymlVHVIYMnqpsRSw3EwLJTjghyECmvWeVG54c7HSJaK+8sJEhUuNIUsRrc4vxWz2wwUGRDjubW6lofVekbKYzBzG2bi/SH1wZzOAM4WrxouV3pDMPcYhEIaxOkaZ8yX2e8ljZp7beppkV073Q6ab5Gp57AW1bWrbc2r7QRPptrk1kRWXGl0FbwUz1EKf0ftlILNd1ghFnzX8dUi3QhQMPal9ZBqebMWvFrpXaH5hWj5eCjDY3VqX5uzamgNC5Y0zq8rFCkHzW9fP1D6WZtsVYIcH0U1pxXJYFrODDOiYqEbgakrW7UwdWj8erAeue31rRlUxe9hrAOH3cH67pG0cy0+tW3fg8x+/pR2SLfcnTI4LwNme3H3EF0DWkWBwuW44t+VSioMjaDcIlxqZ91lWM1jdSgoffT6aTjxWGlz6jGiUrLmhiOHS1g96eTDJ8WdHprpmJXJ1FHJ6f2xUuSplhfx8tWDGtFDmirPg+DRTUdPtinaKMzVof9cgFBQwXO2aj+c2TXyrtKmVE1RdxRbDoyHiR0MHh50G8mNEizsPsj57Fa4Fyv80argbViRSmbs3Jdg1jEhM1CfO+hgNbZzK9EbMt5wOtEi/p0PzTWFrgQMuZQDR9N1OxwfM1VWLYwYaq5ZpoitB1KSQyrOYCamGOYcpvmm8Zr0OrIagVbIrUyLzGtP9wU17QCK10aaHaIEZlAgQlsbYetaHNHol5uQwJcXnVwgZFjOitCNS4pTHDcaWF4lfVB6SigpkVkTjbWVC3peqKDQud51aA7fi1s7F9YhED0AqHDPWH7Ms+hVH8qRhrXakhjoIkCidmiVJuDp+bbdrZ+yGgEPvBjb8GCJdjayuaShjy8TOCArUsVF6upQaQ/P//SDdUinJDmEkPWRF0ljLnOgX56wyxdYi91e9UdZ0aYzTEnbc7MWqH3ygrXQjNRl//OzslWkcKZNfLO5iej0BWPdb7IO+POlthRLH5OKdpifRZxK0KObQ+sr4NBeafrLGtePYHR0nUKwwBXz05fmwRwj7Of3tb5xyIm6sxgKyZYuY4UXN0Bza5/djFMWLxNp4rOxteWeI64flXV3hGsjREqNEW0UHuvbqu3aFivNBocJmYYq+XanKNplfHR6tfVbU0rdGGXMC2vxGiza00rdrEmYYHwS4u15X4AB7jU6vIyK6r01DgtIxNGtEKftquD/nPq9r2rcaJAExatcQlNgIUNr5tAF4yL6zyvZZsq2jtXs+H0xvJrE7WujTTYFLFOk6g8bTtbP2ToBdiVTG/B5oyNu2Js7BBpjZQGMUYqKTT2ukjSVJ1IrKzGWd8S6EWBsDlq6kWnLpkdfqwjXsPXLmaEaXCNvGOkzSjoVaDGh2kYtKK66bBf1rRwmK+7KufwF3kH13WVZOPKnZSbIg0Y1XS+0rgOBjJrDitfPWF96fhpetjvkDXJsAmrYbS4ISGBL991IDlrmaDByhzNh3jZapiY6ZJZZZ0eDR/4AyOcbfhYW9UVRHtHsLpAsLQpYh1dPpBZWVWedRBpcJiYYaxXbG3O8a3frTlV2Eq/pSHzbCvEa1smDfKYakgY1ejhplZaeU0afqobdaponTqy7KUv0jnMJro+IrOi1so1zcucReqtSR9MOY4vEjpG+JaIv7ufGWR+TVR0tc7unGpc57mtqNYL2uLvwIYDUTHWy5M2myLWaRK1uV34GEGsq0jbkPHodPnveEYnMLpugFiw6o8dE9hc0qCa2Y5WqNz3pXNPjVsrdaNOA22INCIikyFDIMWfJKoArdbQo00bhcarjHXMf6uMLurq3bRqRnNovEaBqUIPWUEvImQqbbpaG7IIE5Vz+Iu8o8BXlYDpC6ycAegV1ZoilXdD43TLPAYmdQM1+S8qWCuWbkpgEef8M8RWan86OtwAAIe+wVXab3zD37SxJvdUJti2TiMdEVZDAk5y7Ky0zuymldEYhl8vMPPNCCNq80o/NgCbIliwvpBp/tBhIhouIlyD1DemhxhrR6zPRFMHRaxJPzm1tIhpa2WXJ6tposdog86GTSuMaXP90ogm4DnnP4pseijnZp1tiuD20Dedz0jPTpTVbaZtS7jk9I6au+52BoS9W6KBOYzdmp/9qFcWXKLQaQjDLIRLDY2lvBLpht1x1gpWxCZrEnBVa4IbECHdiCdtOLtMOJTEbj+tYCy27Nj1pTOf/fZXtxnkrk+XOL0R6XBhUSD1oMuitv2RHdlFTf9hkGSW/ySyVtC0XqHM1zCR1stfr0qtyeY1KLjRj4v6bKZ4IUDzaCnSsxmr1xRqAj7pDcNHTW3LIXN5xyWJ31HUOWbWK3NWpFOKg4dpBF+1IWcbpwVLyRr+YOoPp6M6vDINa+jLOjJPao9Y2tCWQ85JhvyVblhfnKO9vCMiJnR6kbnFNYTPaTRrRY3OvhiaGVRTNqnUEyVPm6hgDFF6tggzm6ZsvJjPBFlZd9aQpRxiBG5Rwyxj10uOoMiWPmiRphGL5qA7zalpa6Xzkz0iCgbFfG4hWqTjRYmpTdiKzsBPa8jSmjBrZlAh67jYWOui2RTVq0z9JK739w8jWd1GznAOYw7AAucDqNoUmpkd7jqoTCfBjQYNI/tlF1vHhQ2HCXb3+fnX1ihjooS5GlimNYFxDUGj1nyAojN1b6rO6/RmQ04teoLFYY28q/NNZyNDRl8auM7t2hE94V6AWLSVodCiioLB4llruuFaCFwYzXlSItWhk0PCGjib16h1oLUUNqsD5uHyTyOymgHhxVL3MsABz6ZVv4Cgd3Lm6Cgl9aFaQ1vUMYyzQbHpQZsDeUfuSYRACITADgJYlYar+Q5rwyboQhdKrv5N0dDUw2bq3nYVJ+8wLlfxM0ZCIAQuJxB5dznDWAiBEPhCAN99+c31S9mVPuCwQeUdc5hgVzWHRQ+b0JtK13LyDuNyLVdjJwRC4EICv0Le8aS0JnR7uBBlmodACPAexB1QsC9e1xSUTdEOx2i/Jq6+gOCAzW5P7/DZmhCI5c8+0o0acr3lNzPyjfl2c02juOmh8jeGnK5DwAj8CnlnMedjCIRACIRACIRACPxgApF3P3hwE1oIhEAIhEAIhMBvJBB59xtHPTGHQAiEQAiEQAj8YAKRdz94cBNaCIRACIRACITAbyTwW+SdPX7vNw51Yg6BEAiBEAiBEPgdBAbyTh8qePXfhSlV/piLP2ta+ZsmPOaAv5JTm7P0PnlnP79a6d7MB+bvc4bN75DYQfgOXqWLEAiBEAiBEAiBNQRc3tkP8t/e/mxSUWu6ZB3IO35cn9ghPvYpKntZKoTvej9nNfc5M7N2i/wdhG/hRmyGQAiEQAiEQAjsIPBF3t15U386ede8JmgT+si7TbhSOQRCIARCIARCYBOBgbxrbsjqzUqrpo/BXHkTs5d30Jq4b0uD6gBv6eqL2OxFcjx6xDmc2lyDyU7vaJxt9UY2+0Ip3dMDUc1kmm/HQ0PYNGvscZhQLBwXvAUSkI/HVw4Qe3l//0ApPEG+mqKHIAx6tI/69W13Qw+TGQIhEAIhEAIhcDcCX+Td8u9dvPYuZLqiL8mBVuBOj42fMuXz8y+L2LwmGnlnRdo13x88FEB2/9R0IYXg7F3v5mSVd3AMXauyAQG6ZA5Xs/TEijgENFUrWI72peMCV3F7nWNKnwGKbhgQC4c9al8cCJYmEQIhEAIhEAIh8AgEXN4tywJZgJMbigzs9+qxSh89oNI6fVo7QncUhfYubet9Jj5Ue1nXdj8UNa1O/agxopRd4GxMmxyPrxS4VFFagWlzhvk7EkYG54sQtXQVmg++0bFez60kbGpvh/9pEgIhEAIhEAIhcHUCA3nHPlRyQSvwbh0SOPvREyO21YS1YtFMY8GgtdIXHc7ERyObrMi61nus2tFM3vEurTnJw0LiYg6jRlsem2n+jjQ7Uk9gnDHqAKm8U9+0Do/lKO7VMVpAk2EdrZ90CIRACIRACITAnQl08m75d6/WtEL1z5RBrTDLof6wCmcNXl3emQP8WOUdZSITrFwT8JM3RllhTVtW7hMzhjyFXZZFeVKc2cGbabUZYdWm7+8fKhB7P1MaAiEQAiEQAiFwNwJr5V2z3+P3pLwvud71RppQhQytzZxpDJqiampqjybvoIEQ6UoLw5Mwc0Z73Jqeodgq72CHvTdmKQTxcw02SSIEQiAEQiAEQuBBCHyRd+/vH/zrN+oS5tivFjQAaB3WvNZPK2hQ++Jx1FBQ2lEZj5dMUa0UZyrvIGv0pqr1ZU7yY+0LObPbmuA8K6VZJmbjwn7hOWBSN+vpncpWmK057A5nuitj11ZJh0AIhEAIhEAI3IfAF3lX/6TMRIb9jZrKL5z34C/AKKr6GKg/htVQyj8pM5vanUouig80pP+75R0dsF97wGct5R/tQRtpUQ1Qnz9iOnWrvLOQ6SfxzuSdeqhDCW8bwiiqTWqYyQmBEAiBEAiBELg/AZd39/cgPX4LAT292+oA5N3WVqkfAiEQAiEQAiFwHwKRd/fh/HC97JZ3ehb4cFHFoRAIgRAIgRAIgWWJvPuls2CHvOPt8tyW/aWTJmGHQAiEQAg8CYHIuycZqLgZAiEQAiEQAiEQAusIRN6t45RaIRACIRACIRACIfAkBCLvnmSg4mYIhEAIhEAIhEAIrCMQebeOU2qFQAiEQAiEQAiEwJMQ+C3yzp57d8/RyU9N70k7fYVACIRACIRACAzknT67+Ka/keQvMfl8XXt28Wx48Nw1PrJ4Vk3z98k7PHyYHUGo2VOUtZdhOvJuiCWZIRACIRACIRACNyLg8u5weFGN9fb2h+Lm6h7wtQpbLd9Z3vGtEnA48m7reKV+CIRACIRACITAPQl8kXc7ZNMlvj6+vDseX9/fP6jnjsfXz8+//Lgy9pzerQSVaiEQAiEQAiEQAlchMJB3zQ1ZfVOqVYOIwW1WPf9rvOzlHbSmGVQHeEvX9JbW4dHj29uft7c/arNxjEXUc6fT6fPzLy2wAn3gC2dZpPe4+R5YlKqHhnFZlh3vnG3gA7JhXJaFspUh8JASpcyvoTHGJEIgBEIgBEIgBB6QwBd5R21hggl+63sO7EQKson64PPzb1UtNfhG3lmRdr0sS3PKCG3Evig0oagY1/H4yjQr1wTk3fv7x/v7B7Qdul6WBQQYMhxm1HqP21hpLFYEB7bKuwY+omZch8MLo6bsg8+KVNNsm0QIhEAIhEAIhMCzEHB5Zyc3PP2irGFgOA/DR1UzrHA2QYXBgyKVR0xTz9HgTH/AIH1m/WVZ7KcVqKkVhmmcup1OJ8pBcjCDUMZQk2ZcNRybszvFyMxNiRl87RcGlZux0srm/yZnUjkEQiAEQiAEQuDbCQzkHX2C6oLMwpZPHYYEjoJUGbCtJqwVi2YyAgatld4iVJlCa1XDNUXWtd1IpUDkTVWKMHaNP8vTLni7k5VRqnwajGpqfVqNW6sqJZdlYURGwNoSPlFYhXwMgRAIgRAIgRB4WAKdvMOJFDRcowYahdGHPbN51iA1ltmvJ2qsYEWzrlkfCYoh5sM3nOfxzixK18s7Wrs80bC6RN7BMapePUm93OdYCIEQCIEQCIEQuCmBtfJupqjg3OHwYlpnjdONxuoNzpxpDO6Qd1RyGgszzaDenLUieAuFNPNcu9ianrGqyk97b1iZA/rHglaUjyEQAiEQAiEQAg9I4Iu8e3//0HMa1SWQL4fDyzAGaAW2vdZPK2jQOoVwGQpK/fUAbteirUmuNeKGSk57Zybg0AcYxK1M5Ya0ngLajz/UONJbf1rRwLe+9K/01hCAPzP5WD1PTgiEQAiEQAiEwCMQ+CLvoIf4d1f6527wlXfrUEflF3WMaog+wl5hoJTO8DewsKnd8deg1UnorfpneX3XsEMlp1EgE4EjTQ+1Gp2HbyrvKJTZUDGylJ6r2VlaaRgofQgLxSh/QDM0qE2i7YaIkhkCIRACIRACj0zA5d0j+xrfQiAEQiAEQiAEQiAEzhKIvDuLKBVCIARCIARCIARC4JkIRN4902jF1xAIgRAIgRAIgRA4SyDy7iyiVAiBEAiBEAiBEAiBZyIQefdMoxVfQyAEQiAEQiAEQuAsgci7s4hSIQRCIARCIARCIASeiUDk3TONVnwNgRAIgRAIgRAIgbMEfou8s8can+WyvgIeX7fpMXXrjf+emvsw7mv1e6gm0hAIgRAIgd9JYCDv9NnF9sTd6zLis3/5gF97JO+sOzzFd5OiukTe0b36nOdlWWYKI+/ymg3fMH+GcViZmftasXkSIRACIRACIfAjCbi8s3dOvL392aSiNjFa8+qIocG7yTu8l0Jf9mBvyBi6h8zIuwZOikIgBEIgBEIgBG5H4Iu82yGbLvHs8eXdbg+XZYm8u2RupG0IhEAIhEAIhMBuAgN519yQ1beRWjV9AevKe6y9eBq+R1Ud4D1TO1HTOjx6fHv78/b2R22uQQYPacSa0IHD4YVFykErKC71UPNhBDfHZ52yI03o/XSjgRDgCYve3z+Ox1cUHY+v9Jk2FdT1/OyGAAAJ+0lEQVTK0VyWRVuxL+ZD8sITtamU6AASdKzWqTloAh940zzvzDWk+RgCIRACIfAbCHyRd9yAdW8mBT2Owr5LaYI9lTcxPz//sojNa6KRd1akXVMuDAUQhA77ooyAomJcx+Mr06w8TFQ5YtXMVZaaz8N8w4g6W+Vd82eFn59/OShQPAACn3Hn/XB4AQoqIYtoFggjQgKtOCg6EJR9cGYYtXW6LAuq0X+M4LBTzWRf8MS80ppJh0AIhEAIhMBPJeDyblkW7IiQNdyteShCEDgPw0f7iz3W6RPaEbqjKDwcXpimnqM1OEPfmN/s5aaBUJMN+4QettWaM1NDVdRjrMbX5Aw7GjYkBIJSCUV518MfWoZ2pBSjOMMgImodUPZFaxWjjbJ9RMOzrYZSkp0mEQIhEAIhEAI/ksBA3jFOlVzYR5HDf3Hqc3YHZX0kaL/uzSiCQWulv1od7vTLslC+sAsmrMi61pub2hGbU6/UUjPFJkPV1WBkw60J0OAhnDW30DBk9FnHDpLrLHwzCJGNVia4cf+X6txKzU+6xHzYpGS0EUS12srmhgZIy0mEQAiEQAiEwM8m0Mm75d/vA0wQVBy7d9C6N8P4WYO2hdOloQJAqRXNuqapWaKeU85MNfJuZvySfEAzAa13SFX+0mdFrfJOT9rWeAU7JuAulHf693MWF11iIMyxuaEBsk4SIRACIRACIfCzCayVd7ZrGpR6r80qDD/WvZnVeoMzZxqDDyLvZp4z8AsTpmYMIyEQlNZnZSY2OWOt1PKaqOkSO8XvP/hxmKitrC91Y2ghmSEQAiEQAiHw8wh8kXfv7x96bIOdkjl2FKQssMuy5rV+WkGD2hfvk/K2nZbaPUr9aQWOIVG5ygI1wrQ99g+t7IxqZmr4UwAciOovbdkXE+BsvbC0T5i40RNE/XEJfVb1Q32G0hn8mQOwT7f1xyvm1dACXWJpzWERE7WO9aUBslUSIRACIRACIfCzCXyRd7h/p3/0xt0aFOzvrlQBYFtFW4qqnl3dm7U+SumM2dTuVLdRP6Eh/efBFbrou1Y3LGQWQTfQPSRMcWpbZaX59jsG+k/P2eMsYT5oQ3Xy7e0Pz8MYvqofyjv7eU29Hz3zRIdMx8sklzZXDxkIMRoosmpaWV8aoPabdAiEQAiEQAj8YAIu735wqAntuQiYIud3j+eKIt6GQAiEQAiEwP0JRN7dn3l6XEVAb++iQc1ZZSiVQiAEQiAEQuCXEYi8+2UD/lTh8nYtEnrD96niiLMhEAIhEAIhcFcCkXd3xZ3OQiAEQiAEQiAEQuDWBCLvbk049kMgBEIgBEIgBELgrgQi7+6KO52FQAiEQAiEQAiEwK0JRN7dmnDsh0AIhEAIhEAIhMBdCVxT3uEpZfqAtwtDwXPU8gf1F2JM8xAIgRAIgRAIgV9F4Iu8q0+L3aTV7ibv7NG1jzxg+MnnJoyPHE58C4EQCIEQCIEQeHwCA3lHLQIVxVcIPE4wzyLv+BYHIn0chvEkBEIgBEIgBELgpxLo5B3eE2Cv/HoEEE8h7/g6LL5K6xHQxYcQCIEQCIEQCIEfT+CMvOPLSfEu1Pf3D0gr3HPk60313aDMJDseYtnbS/kKVD69lieF2oSZfC0V6yMBAQrH7JxM36O6LAvqrP9jPtORVGwMrUnwnVqRdw2lFIVACIRACIRACFydwBl5R40CeQc5BSe0CDkmhljtcHih34fDC48DqeGgyYbNTZ81HcFDlW4wyK7vKe80lsg7HYKkQyAEQiAEQiAEbk2gk3eQXzwPszd+olT9U02D/HrcpXVggad9tfKyLJvknRk8Hl9V7amrK9Pq7bIs6iH6snNEdqddR96tpJ1qIRACIRACIRACVyEwkHcqWbQPlSyaz7SJIZ6WsQISlDtVIFrNrfJO60OKUTtWy2tyLCKVd01zi4vxNk1SFAIhEAIhEAIhEALXIjCQdzyusz6eQt7xlvH7+wfP0iyQ9R/3yTs7cYy8Ww88NUMgBEIgBEIgBC4ncFt5V4+7VDDZKdcwGJNKqKNGrBUP7Y7H1wuP7nj6SDsazuzmLHzTE1CmZ7rZQsjHEAiBEAiBEAiBELiEwG3l3bIs+FEtXdQfz+6Wd5BZ+ota2meP/AGHFkF7rT/VUz2H9I6juB1N1OekQyAEQiAEQiAEQmATgevIOx5QMaES6u3tD/NVkzXyTpuwrQamh2Sm5FA0PCrbKu+WZdFTOvxt39Cy+mbpyDsDko8hEAIhEAIhEAI3JfBF3t20p7sZh4a7W3fpKARCIARCIARCIAQeisBPk3d6O/WhQMeZEAiBEAiBEAiBELgPgZ8j73gXdevN0/uATi8hEAIhEAIhEAIhcB8CP0fe3YdXegmBEAiBEAiBEAiBBycQeffgAxT3QiAEQiAEQiAEQmAbgci7bbxSOwRCIARCIARCIAQenEDk3YMPUNwLgRAIgRAIgRAIgW0EfqC8w4NRhg/DwyP09Jl822ildgiEQAiEQAiEQAg8PIEv8g5vmOBjhJnAW7lq6eW/UYUU41u/roJrKO9o+eybc1kziRAIgRAIgRAIgRB4RgJf5B0DeH//sNMvvOzr6udet5B3jGKYiLwbYklmCIRACIRACITAjyEQefdjhjKBhEAIhEAIhEAIhMD/J3BNeYe7tyvvtA7fKssjQx4f8gZxfVktithkWRacBSJ/dtA4PL3Duy6qQb5kls9MPhxedOLQvcPhZdaj1k86BEIgBEIgBEIgBG5N4NvkHQKb3ZylnMKf92m1z8+/KvWGumqo4dBjLVLjy7K8vf1RyWiaT5tr+tbjFPshEAIhEAIhEAIhsJLANnmnh1WHw8vKg7rGFZNWrAl5R/vNm2RNjcFCI7xq0fH4qnoRfbFrk4/a3eHwog3pfBIhEAIhEAIhEAIh8I0Etsm7q99/7OXdjIv9hlcP29CkajiaqkWmWfGRPwpuNByPGK+Ohd4mEQIhEAIhEAIhEAJbCTyfvIO2Y5x6nMbMquGaokbA4W/v+iM6KNTD4aWqTHaaRAiEQAiEQAiEQAjcjcDzyTtTY5fLu0YLrpF3GKrZMeTdBjIdhUAIhEAIhEAIhAAIXFPebfrlLLrHH7rV4zHc9xwOkqox/Py2HptpHTNSi6DMqg9oaGrSrPFj4zDrJBECIRACIRACIRACdyCwTd7Zn6nxD9Tg6A55Z08zoVBr1JI+xOTt7Q8fobIsC/8YTv3EjySaIvPBbrPO5J26ge7uMFrpIgRCIARCIARCIATOEhjLu7PNUiEEQiAEQiAEQiAEQuAxCUTePea4xKsQCIEQCIEQCIEQ2Ekg8m4nuDQLgRAIgRAIgRAIgcckEHn3mOMSr0IgBEIgBEIgBEJgJ4HIu53g0iwEQiAEQiAEQiAEHpNA5N1jjku8CoEQCIEQCIEQCIGdBP4fFxAiX7G/P+IAAAAASUVORK5CYII=;" vertex="1" parent="1">
                    <mxGeometry x="172.5019084087171" y="743.9982884457238" width="842" height="288" as="geometry"/>
                </mxCell>
                <mxCell id="74" value="" style="edgeStyle=none;html=1;" edge="1" parent="1" source="72" target="73">
                    <mxGeometry relative="1" as="geometry"/>
                </mxCell>
                <mxCell id="72" value="" style="rounded=0;whiteSpace=wrap;html=1;fillColor=none;strokeColor=#33001A;" vertex="1" parent="1">
                    <mxGeometry x="172.5" y="743" width="641" height="21" as="geometry"/>
                </mxCell>
                <mxCell id="73" value="" style="rounded=0;whiteSpace=wrap;html=1;fillColor=none;strokeColor=#33001A;" vertex="1" parent="1">
                    <mxGeometry x="172.5" y="764" width="845" height="269" as="geometry"/>
                </mxCell>
                <mxCell id="78" value="" style="edgeStyle=none;html=1;fontSize=16;entryX=0;entryY=0.5;entryDx=0;entryDy=0;" edge="1" parent="1" source="75" target="72">
                    <mxGeometry relative="1" as="geometry"/>
                </mxCell>
                <mxCell id="75" value="请求行" style="text;html=1;strokeColor=none;fillColor=none;align=center;verticalAlign=middle;whiteSpace=wrap;rounded=0;fontSize=20;" vertex="1" parent="1">
                    <mxGeometry x="67" y="735.5" width="78" height="36" as="geometry"/>
                </mxCell>
                <mxCell id="80" style="edgeStyle=none;html=1;entryX=0;entryY=0.5;entryDx=0;entryDy=0;fontSize=16;" edge="1" parent="1" source="77" target="73">
                    <mxGeometry relative="1" as="geometry"/>
                </mxCell>
                <mxCell id="77" value="&lt;font style=&quot;font-size: 20px;&quot;&gt;请求头&lt;/font&gt;" style="text;html=1;strokeColor=none;fillColor=none;align=center;verticalAlign=middle;whiteSpace=wrap;rounded=0;fontSize=16;" vertex="1" parent="1">
                    <mxGeometry x="67" y="880.5" width="78" height="36" as="geometry"/>
                </mxCell>
                <mxCell id="82" value="" style="shape=image;verticalLabelPosition=bottom;labelBackgroundColor=default;verticalAlign=top;aspect=fixed;imageAspect=0;image=data:image/png,iVBORw0KGgoAAAANSUhEUgAAA1IAAAFGCAIAAADvnDn0AAAgAElEQVR4Aey9iXEcOdd0/RtAeUJZQ5lD2SPZQ4f6j2/yfc7k5EWBxeZO5sSEAo3lLgcoIFnVy/936X8lUAIlUAIlUAIlUALfgMD/9w1ybIolUAIlUAIlUAIlUAKXyr4ughIogRIogRIogRL4FgQq+77FNDfJEiiBEiiBEiiBEqjs6xoogRIogRIogRIogW9BoLLvW0xzkyyBEiiBEiiBEiiBDyf77u5+3d396sSUQAmUQAmUQAmUQAm8LIGF7Lu//317+9Pd3N//vrn5cblcbm9/3tz8mP8/PDxsmubAI2H38PBwc/Pj4eEB7272z5+/1O8Ld3e/CPL+/rd3lgu1RhibJrfQcgmUQAmUQAmUQAl8RgJPk31kOKXhvun29qdrrJubH6EsNTzM+p0/SU9XhHiMghv58+fvzc0P9KKEHS9vbn4Q1aYp7PdlCZRACZRACZRACXxGAu8j+6TGpoZziTZp3tz8iFt3s8+sccXp5cvl4mFsmqbN1pRACZRACZRACZTApyPwPrIvbq2JmkTYhqDfnNt0i6bb25/cWQxZqWfBkpKbpjDYlyVQAiVQAiVQAiXwGQm8j+zz22xQi/tt1KsgpXjF3T7Eoixwi/H29qceB9/d/do0RRh9WQIlUAIlUAIlUAKflMBa9vF5CC94hv7+Oa+/XC7LJpd00li8qU7DQ3iFzcv/Pk0y6/c1up8nqedak3t7CmzTtLff1hIogRIogRIogRL4LATWso+nokqDT/KS1VLb0TmGI9oQkXyoAoN3d7/mKG9FqFH5aEFhc4NQytIVngK7v/+9aXrUSzuUQAmUQAmUQAmUwKcg8HayL27vBZ2NqvN34MWozUtpvnAq3emj+JjIpsn7t1wCJVACJVACJVACn5TAh5B9ugO3JBh37JZ9ZqUMhubTvT2v9Dt//hg6PuQ77bemBEqgBEqgBEqgBD4dgQ8h+/TpislOsoyntLPDsmb53kH1lEEeMfNpD3TesmnppZUlUAIlUAIlUAIl8LkIvL/s23yYg/cCekGfz9hQ9h/2YCB6TspP9SEoN00bd20qgRIogRIogRIogU9BYCH73jju/Yc53jiYuiuBEiiBEiiBEiiBr0rg/WXf5sMcXxV68yqBEiiBEiiBEiiBtyfw/rLv7XOuxxIogRIogRIogRL4hgQq+77hpDflEiiBEiiBEiiB70igsu87znpzLoESKIESKIES+IYEKvu+4aQ35RIogRIogRIoge9IoLLvO856cy6BEiiBEiiBEviGBCr7/jPp+uq+za8D/6f3tS/4CeBrDXRcCZRACZRACZRACTyZwHeUffqRX31js/9WG7/VsZR98ettIn139yssnPkawsq+J6/TDiiBEiiBEiiBEng2gW8n+25ufriqu7//zQ947GFW9u35tLUESqAESqAESuCDE/hesu/MrbijCavsOyLT+hIogRIogRIogU9B4FD2+S/b+u2xy+XiD0n9Vtnt7U/dPOOXcPX7uXrDnP+Wrp5y8pO4/mO4/sz0/v63XGOQIYJ7f//75uZHVB5x3z9aPYpBowiAghLfPOSNrN27yg8PD0D2rI/iV73HE6Ow5j98IoYCdXv7k+F7L20tgRIogRIogRL4egTWsm9zV8xvermUuVwuyA5hciM3Nz9co0iFqJuXZYSeakLEhJC6XC7qcFL2zeHL6fQEvcOy/jmyj7wCozuNslIg3z9//iK7nbB3E6K7u1/ygozGSLjoyxIogRIogRIoga9KYC37lhKHTzw4C9c9t7c//b6g6zkvh7ZD/cisJIvKGsVtwvPyyCOk7NbkRbfuUE7qeZT7st5vfHIjUBDkYhn8TMQxEvAsuLbz1sCrO7IKg6zlVGrv/C1S99JyCZRACZRACZTApyawln2oIpdx3F1D36hAn6UwEh0XOipLD6kcBm9ufqh1qpnnsA4dJlMhOi//3LPkdqO7W2Y35Rr3OMPdJOByk8fZ7jHKbiGaZhjyzpRdLhcfXtkXAPuyBEqgBEqgBL4DgbXsU+auyVSz12FLYQREpIlLHNci9KSwd0e3k4Wlrw8i+xCLm1yW8as/bBle2QeKFkqgBEqgBEqgBERgJ/vUw9VG3MEKiHvZhxC5vf3pN7o2d55eVvYt7+R9ENm3RwfnI1YTFDqSJp/HIzs4aqEESqAESqAESuDrEXhc9oXU0+c2liAe1S5SGzc3P3y4dIkLQVqRLNREQR3OfzpBufgz3POyT2/jiwDmbTb0lssslfHlTTyH1XNt7OvBd2AJVnykQwbJS2lqLAzdaWUfnFsogRIogRIoge9DYC374s12oUj4xG5Ik0dl35FKUz1OkS9IlqP5ODJ41F/1OFJBlRGDmjaJS1RtZB96Di/IvsvlsoyBsEMmUs+najQcUDMvIodhZZ9jbLkESqAESqAEviGBtez7hiCacgmUQAmUQAmUQAl8bQKVfV97fptdCZRACZRACZRACfwfgcq+LoUSKIESKIESKIES+BYEKvu+xTQ3yRIogRIogRIogRKo7OsaKIESKIESKIESKIFvQaCy71tMc5MsgRIogRIogRIogcq+roESKIESKIESKIES+BYETsm+L/btvvo2Y35K+FvMc5MsgRIogRIogRL49gReWPbxGxWvDXZ+u3J8d/EmgJeVfbKm7092Kalf9YivZX40yMjLDW4yek6Tf/l2/CiIpxY/heLZRZOCYez52DySOUok+Rrq2SFqnHxgd0fqFmOXL/kO7RgS9fg9GaoHA8mbmx8+9VoV9/e/oYoXFSLBZfytLIESKIESKIHPLfveff505HPA39z82BzAZ26a3t//9vNe6gr7L56v/8qItAW+pDD0UmkiSjxIdQu9eLlcUDMnY/afeInfwdPLCO+kWXWLebm9/Uku5+34j6zc3v70aQojCjUq50tR9QVzd/dLwCXmmAvBjJg9nmm8NSVQAiVQAiUwCVT2TSbX12zO+02T+3NFpfq9wvCxzy+7MPUyPzS3dOGKTR2UrBThckhUTjh4v7//LWGkPiihsLB/Gfavk33uwjWx16tM8LPJayY3tSKypfMeHh6kziv7nF7LJVACJVACVxA4lH3+FC+OMW7keH08ddJLP6h0Uh49k9LB7P33ycRB7p1RG8TJDZV9DG7kuvJGmjirjfEp+8Kmz0vcY5NcOCK8cUoTd8VkyjWWYIZHDZzCVMkyEdg/KvhNR353OG6nBQc3pZS9JspB9VHZp2Q9/TCo1JY0NivTjcjC0gXwReDu7tefP38DkX7WeRmAe2m5BEqgBEqgBJzAWvbFQe6ShedQHM9+9hy9ty/OwnmfQx1eUPYRsw5RD/LyzyNItKDjeGY5nk5ibSNZ6KNCCJSA7NwiL8kIAP758zdSDkfzpQzKQig2PU8EaYxFLKqeNRBGYpS/dB0mArFguN241El72RegNPsacjTwUdm3mdCg4Wl6eSZIqwJWnJQr++DTQgmUQAmUwNUEFrJv3oc4Ou91ywGpcblcOPIjoHgf0nlBEHZ4qVPTD29Ujozzcgb5SrJPfp0G0bpco3JZ2Mi+Cc2lwEm1sXSqSmkdlRElkh0SW8tlIKWrDpfLxTXWDPjIO5bJiAAYohocUb8psDw2Ej/i31ijSTkubSrlM0H6Xwi+mB8eHuCmB9xyBBnCiGuK+hZKoARKoARK4IjAQvZN5cGpzLnOgepNR7JPx6QPUfnM6XgU95QF9Dxz9J7XYZjdF5RjPJfUkDPxYHzCZ7iLA2DKo4stTD2pIBWCVpZT/YudqTMUkitdBxvDsTMLuts37/l5T/m6bs24xnKbKscanh2iRvCjUi89/WUHKucC1iS67PMnufMPqjkdGG+hBEqgBEqgBJYEnib7dDL5fY44MufhhFJEUizjeGrlPDWxgE6iZhbOH89z7KwRlpubH7Pp8sQHylP2kSmF6eWZsk+qyNWbDLqKnS4Ujy+GIH9e9oXoXP79IHfXyb7lHV8wPulG6eYvlkgf+8vC7CzCIfsYOxdGZR9wWiiBEiiBEjhJYC37XMHoNJImmGfVGdm3P3RPBhrdNhpoBhljnyrF5vCo2dz+UTDnJe/ydJe02ucVExERbl6KpGs+dQ6DAVzBuOaTVuM2ZBQ2AfC+Pe8T3unzHNm3nIUpZz2MKO/f8xfviI2x82XkiOyba0Dpuwr3G4HTcmtKoARKoARKYElgIftc56nM+RRnpI52VwxHt2RUvzx3FdaR+FgGjQhYtu7lkYYc3e1TGKFmll6o9LfEUUnhqVIgjvwQlBtfQfjkRzrEymeQyGVQMsuXBLdvH6Uk4xjcF/yW2/KZrMcTpoJStErlh2aiT3wxsuqX8k5RHelOJbtZ4XikoIyAL8gPDw+xBtR/VvZuHyRbKIESKIESOElgIfv49CinabzpSvU6dbxJLnU6qg9HGkKNsSEa4gh8NHr1X3bbyD6NIgYV/CDX2JubH1659KLKpUFSu1oKEKEDlEcpEjq4ziB4l1Cb4HXHCFMUyN2zc0cRgwZ6BzlVPPsAvJUAXKLxhwetMzs1uSlHwR8tdHBTM+zL/75rGg5xRTDc43yqvlcwkZ0MToXH5UMKvdvnKFougRIogRI4SWAt+04O/pLdNnfUvmS+TaoESqAESqAESuCbEKjs+89E6y7RvMf2n059UQIlUAIlUAIlUAKfkEBl37+Tpod3y6d+/3ZqqQRKoARKoARKoAQ+J4HKvs85b426BEqgBEqgBEqgBJ5IoLLvicDavQRKoARKoARKoAQ+J4HKvs85b426BEqgBEqgBEqgBJ5IoLLvicDavQRKoARKoARKoAQ+J4HKvs85b68T9d3dL7508Ogbra/27N+lh5errXVgCZRACZRACZTAUwm8nezTqe9fgfvUWKP/dQb1Bbkf/OO6y582jvSf9PIMK34lQpb3su85GPeWn5RXO5dACZRACZRACZwnUNl3ntXb9XwX2Rc/DrEXZ5V9b7ca6qkESqAESqAEXohAZd8LgXxRM+8i++I3Xiv7XnRKa6wESqAESqAE3p/AoezT7Rx9g3G8E8t/kpWnpTwipJVR/iu9y98zPXrXl37w138ZVsAeNbjk6nYI4+bmB7+4Si4azm+5Kjz/Bdv4GQ9SXv6Yr3wtQ5qVHhhld+e5E7AqvRtOvT8G/cdkFQM5ElLAZ8gZjHhXIZ7s7wUlAbRQAiVQAiVQAiXwsgTWsk8iABnx589fFMbNzQ/0nHdDJqqnmhiFtAoFMH9j3jWB5BTu3PXG4B7Q0dNJ94txmVIu3AyL1FCHjIoc0UD7wLz16G6fBxmJSN7JtcpuUDFHYN7BLat+Dz+8a4i8SCDe3Py4vf358PCwtMycegwtl0AJlEAJlEAJvCqBtewLgUUEutPDy8vlgkCZOsD10JEk0i20qQ7lIhQDvtT6qJTxOCnPONWk1BBG7jp03uVyoTXeD6cm5DJOn1qITDVcYbgp/+CtXN/e/lxiWVZiSkzIXfXkqJcR0hKjg2IJhR2nRwAtlEAJlEAJlEAJvAGBhexbnugKJXQGYu5yucxRZ2SfRvHwkYIkSCiGUB4bKeNPXePB64wTygSsPsig6YhIlo9Qn38rC/vExm1REKnAs1f1VOXUnTMFt7x0t4e/xOhegBl2KvucfMslUAIlUAIl8JYEPoTs87t9nnwohlAnLjJ81L681Csagv37+98u3aYj5C9D9k6f2ro0O2+1hlmlxm02b50peCvPr71yD3+J0b1U9jnMlkugBEqgBErgIxBYyD49eJ13jLjh5HEjUKYO4OBXf9cEbiG6edNeeRwZdAuzPOOkj5r0djRu9XFH02v0cYclEKw9pwBVN/JovhJ8ywQ3Y9XkjlTew3/UC9Madnq3b6JuTQmUQAmUQAm8DYG17NONJW7C8ZEOHfbcCZNiULepAzj4lYk6TDUZvjztUAwhho4MuoVleXk/TD31dDienIZmig9M6LMLS0eq1IPXTYfZFG80pIPC46UXPKo5fMMKCevWpjgL+PrbgJWgsQ6K2Y9JnJbDb1+WQAmUQAmUQAm8EoG17OMWlyRLnO6q1L/cA3tU9oVNl1aSKZjFXSiGqTykMzTQDe5hKVTceWcXstS7l6XIw5QKMJEFVWLtZMHfNehaOd62KM2tSmS6pFW8qdGzgJVQRMCK8FH4E6NcyNqUfTHLS1Yn4bRbCZRACZRACZTAFQQOZd8Vtr7AEAmXSMTVTDR99pdTSX/2jBp/CZRACZRACZTAEYHKvn/JzBuWavvCsm/5YY5/ibRUAiVQAiVQAiXwhQhU9v2/yeT5oz8nZZa/sOwjxxZKoARKoARKoAS+PIHKvi8/xU2wBEqgBEqgBEqgBP4fgcq+roMSKIESKIESKIES+BYEKvu+xTQ3yRIogRIogRIogRKo7OsaKIESKIESKIESKIFvQaCy71tM87dN8lt9O+C7fB3PdYTnN01+iiX6LoQ/BZkGWQIl8FkIfErZpw/e+qdu9WFb/1rj5QT4dyDHFy/Lgs6w5UnGtxP7lxuHEb4neen9TOX8HQ7F7E6nHWIjfofD55RpDQtywbdk89FmN3KSsCw750cnJYJZvozvjl72WVYup3LZ840r56Qo1OfgellRogjnwuOLuEXsOsJHsu8FU/j4hB0g12Z8y/obL8u6K4ES+PIEPqXsm+pqyq/lzMWhMjWWRi2/seX+/reG+8EcYkgnjaulZRibSgk4FFjYPxoY3zi4GaUIw44O8pubH14fcE4S1o+28SsgUpDPAaKQrpZ9ntHHLGvuprq6ItpY3ldY8CEKzFc7P7TzItG6L8ovm4LMfljCCi9kNChaKIESKIHXIPBZZZ+fSUe3JSavOFRkZIqSpezTb9fe3/92TXO5XHRnS742v/Y7gzmq8XRub3+Gu+WomUhkyqgp+5Ss5JqjuJpwyEdcP6dQ2XeG3tGknxm77DOX34u7CL+vYV8r+UWk6muEV9kXa6AvS6AEXpXAQvbNrc2FCHfa5jMpCSPJCH/0E8Mvl8uUKeoTtxb2mWvI5s7WHD5TW+65U/ZxclBw41J7rv+89YqyjtvJ7cjUEc/ZXza9/u7ul24uUqD1CsJLnhj0teFyVvWSnr6ulJc//1LZ5am3HtUTAGvv4eFBtzOnUvcn1G7waHm78SvKyxUVC9VnDVYzfs2gQ3at4/UOfxPzXIE+v05+GiG8uE/s9R6eW6P8pA1hxqCaJeH4Q8KBvyVhrfmjNPUjOpoFMfEcnSQWtErVdH//W2N5esCfqbLmy9stt1wCJfCFCSxkn3Y93xF8i7y7+8VmHT3ZhsTLd1I/LfTgLw4ebU9sXieJy2OY2oz1kFAAnqnGKi/SjIC1sboX9X/BHzpD7pwEov6eSGRKtOLMS7/Jpyy86XK5PInwDMOtyTVUZVkdAKjW6Kkw/OjCrE/9HMWbFOnPpDNZcg06X+qRzmZ5u/2nluUFLBoe0+ezBiutDQ9SghUmbiTgOPxNwDLOIpTrCNVjw5S7ptILS1MSJcTv/Z9TXhL2iQ6/b0n4UdnnotljPtqHNbN//vzVc4m7u1+O2i34ynkO3o4tgRL4XAQWsi9O2f3u4HouHgn5eRB3wnzUc3jJBcfSo6biNPIt1cf6Rql6l3phRB3m3+Ju8Iqytu84Yo/sxBwJC1LGR/mk8FYtdQgjqnwS4aUFvMeke+cA7k0a7scVBqMwR21kn8MhMIXhZv0O6GZ5+5CnlhV2THSsMZ81BbmMP0a5ZXJUeEtWy8g967Cv/h4bFh6dr5hxBi5d0HpdwTlgISJ0v29MmFubKrjqjVvRHiSJqMD8Ml+al4eHB1Cr4AN9eXt9yyVQAl+YwFr2+VYe72bTHupbFaordlKn5sfM3H285/myRxKnJjdmFCet/vyOjXJ6ZKNUkwePVMKmPzdZ3pGa9h+tEf+pShUY8HHnKNR65MJnNm5yXP65t4dNvzE2P124JBygPAY1OTS50+LZA5+BYTmAcA+PDpEvSS1lE9gh7FOwWd64u6KwJBMHvGcRrNxjjOJW7tKF/yUTiXNFo5s1cctLxmMjGObFRQyty4tIrTMFH3Vd+Sh9X+ru940JL6kq002TkvKFqlljlTIvpBOzrLFHE3Qd6o4qgRL4+ATWso8Dw89mjkzfLn1jYsdZpk3r3d0vP1eWnc9USnko1JObl2/uGxdslOqz3C5JQZ15G43riY2LTZM2dJ7O4OjRIWdccxjImh8blHF0BWFfD9hh5Ug9UI/yCOAi4OmweBiLdIDPHIVq8VGzGzEHHB+1kZ7R7akvFU+QiYXqgQUrdxejyHTpAvhuYZYxcuTXY4vhGqt1FU1H1iKFGHXdy6P0fR9zv0exzT+TgHPkgsW5iZzlN/scNcmdx09PrhTmhXSomY5aUwIl8H0IHMo+3f/X/gIOdhBq2G4ePRc1ViqN4VcXZE27qsquEo7M+uZ+1Ac9wUnMTsoQt4M2EoGTAhRTs6BbkvIeD8dnZ9Vw/Bx1oN63/jmbbudqwkef5PWlghDUrEUkHoYin1MwJd0cNfuEXxknsAgDaJsYos8VLxU2i00WfIFFFpsgY5T3JEfZX7I6Cl7wwzidfUVR6YWlL4/NOx958T5PLS8Jx4pyv0exTdnnPa8mHAM9u6Mm96v+9CQv5oXOFNxFyyVQAt+NwKHs0x6hL6sDSuzg+juev2jZcegfBfX3P1LpoE0KU9QfFfzpm/TWkdpwC765e71OVo7eSOTo0eHDw4PCRnECDeMidiY2DQkLGr4khoullPFWH87xoJSnSOXtRNcRVsBu9v7+t/i4nNWU0S0OpFhmPEb3pEKdw5m5UGcOP8ZO487ERTxDVIhVEa0EeX4Ny4LiYe2p0sNWmSUUrDyMWN5MJbHhhXeA+fCjMgEsU/NQlxaWAS8rEbjEGQa1hJZhRE9/uSTsrGT2aDW6KR+lv2C5uDbL2y3Msi+/aD1qijXs+zCrlHlx1JvlHa77sgRK4KsSOJR9Opjnm7o4AySG/FERO84RLI1d7ulqOrmha/NyO9oH2biPAohdO7rJrB+WoS3oL3fa6Nn31apKFx++KWNhWVhmcYZMHAPTuGKIU2Q5XxyBMfXL2KYj1UAyPPricW5+Mh2pWLcJXkWr7ByCymTtU+DdFG0E6Y5c8S9xOQGy88pHy4rHF7OGEAaP+1UfrNw+AXi+dPBWh0+HowIwPUgqHTLXr1fGQoqmuNxQqPsUjkJd1h8RJhK9Q4Pd440Jx/LzFDZNPpt//vxlH2aVqsPcwVhXSp9Lyf22XAIl8IUJ7GTfi6cdnw55cfsf06D2326vH3N2XjaquEX6ssZr7Ulv5C2uEiiBEiiBSeDtZN/mb+gZ1leqqRT4SrO5yaX6fgPnRZpK+EUw1kgJlMB3JvAWso8ncf6Q6DtAV+JPeqD2HbB8vRx54vndVvibTWUJvxnqOiqBEvjaBN5C9n1tgs2uBEqgBEqgBEqgBD4Fgcq+TzFNDbIESqAESqAESqAEnkugsu+5BDu+BEqgBEqgBEqgBD4Fgcq+TzFNDbIESqAESqAESqAEnkvgjWQf3yb13Hg/1Xi+GIzv2v1U4V8T7P6bEa+x2DElUAIlUAIlUAIvRKCy71+Q+rTgi3/BHt+b+q+nr1uq7Pu6c9vMSqAESqAEPj2Byr5/p7Cy718W15Yq+64l13ElUAIlUAIl8OoEKvv+RVzZ9y+La0uVfdeS67gSKIESKIESeHUCh7KP70edP5rpv+rIr3Aq0qNR+slIPe6cv1qhH/DQO+Ge9OXGHomjcoP81KZ+7pNfOJU7fb8ugfm78fwNefptVu/m7nzU/MLezUNexT+HuHHKYvvw8EDWwYp6/yVZhm8KPtC7eb6OUX34Fm7/0dW7u19B2A368pgGvWfLJVACJVACJVACL05gLfskm5B0f/785R1vd3e/kCnqRtNmlIQFMsWlZKii8x/+CPmIcRkkSLkWOCkVBMft7U/Kl8tFooR0nLWEHZ0JUkMAJddhIRJ0s4qNUL1pltFMsh/wHWlMxDTlNUcY//z5S176LVQIXy4Xpyo9LZsbwoqKZHtf0Geh5RIogRIogRJ4AwJr2ecaYh/Ezc0PxMFmFDpJ1vzIj1tTEgd7p9IZfjfO+3tIIebc7+VyCUG2l30uerBDgQAi0+mFnk8tzPDINBIRH0TqxpFU2qYDTZ6p3CHg6DP9emC640tnpbM0Qp8WSqAESqAESqAEXpDAQvZNeeH+1OqPNSX79qNCDKEhpjVZRg24I9d5YZAIZZDhqkdw4Ff1LkpCIGJQBQRW1GOZ+vv736G3wgs9n1qYhIlKj1bdYKjnp2KUKd3SYyx5BUb3G02eO3a8EHdG3VTLJVACJVACJVACL0vgabJPysPve6E8pijxQEOlIQ72o9xClMMgrTJY2ReyDz5ROMJ4WT3Gfb7s48ZwhNGXJVACJVACJVACb0BgIfv0Rq7lCR1vz4qeSMAZd8gLZF9YmAOPatxC9IkwXFnGKL8Xdd3dvjAoteSy+OM/5EXM7TF6psHNB3q3yD3WgI9quQRKoARKoARK4A0IrGWfznUewPGRDpdQUmyusY5GTTHk4iBGncxZkbjAoqz3q3HDzz+34X5DlMjv0dsTPU2PUDoYiaxccK2eqvRRlK/4SAeT4oo5aCgq74nHKMRA/3CGq7T4oIZcu150+F7vuQeriKQvS6AESqAESqAEXpvAWvZdLhcd0nobFoc6Ukn1f/78jTe3HY1yDXH0xn/e8uXu9vkzxN/2F0G6tUdln2QQZvF+JPu4RziHhCl1QCDK8kvJPlkjBv9GFVLYFHwg3Tz+u7tf8z2L/s4/lO6esC+P+AQxflsogRIogRIogRJ4JQKHsu+V/NVsCZRACZRACZRACZTAuxCo7HsX7HVaAiVQAiVQAiVQAm9NoLLvrYnXXwmUQAmUQAmUQAm8C4HKvnfBXqclUAIlUAIlUAIl8NYEKvvemnj9lUAJlEAJlEAJlMC7EKjsexfsdVoCJVACJaDKEc0AACAASURBVFACJVACb02gsu+tiddfCZRACZRACZRACbwLgS8o+/wrgpdM9e1x/q3Cy27vUqlvyzvzTcvvEt4rOdWM8OV/V3jxrx58jp2N6+X3FG76P7UpvvLwqcP5usorBnaIE2CiWUiPbik+/AuXxUHXmn8f6hdO+QVT23z56wt6qSkIfDfg5w/BF5Z9zz+6mLOrC4/u0ZV9V7N95kD/umb/5uqN7Lu7+xUHzFxj8WXgzwxyP3wT6n7go60zr0eHRIdHV370f/Tl/EptSSIfiEjyr0z3DUhl/0tmn+nsf/nfL0RjNpaExzPLwhJDXMHIrAbyteQEqb/EkID6xRoN8TXs9ZPbjOp8jXwRQHyX/mTiM3L0s0NL7z5wdpgrX2QcrCD4XE87mxrfH8jrTAr+3fIMFLGYF7V6zPSfNwJoii/Ad1DqQ8reFAY3KmSuRkVIXkBjNc4hikRrMkgSHnZevECovlDlBYwB5PLf65qQxJCX+n0HTQGXJ63iwEsvOPCJy9eAj/LyFaNE3ncGkcGdTw1A2G3cu3oqfYarw+w/D0ENZzr0Una+o+xzsh+trCXyBlfp2yfu16fS5NqIBeqxPSr7ZIrF7WNfo7wJ9Znu5pX8VINO+Kljl/2VLNMk+yzOmMRpYe7R6rPJVD/8MyfdN7VH/RIJPffSwbnhmuDdNZVoL2hEUnuPRLgvSLIovM0K36xJD37vy89I+Y3+kKFeeKfchwk9ryjc3Py4ws4McromU8WPF/8ZT1YOwzmhJVbiGKabF9yg/5am91HZV6C3Kozb258EqRpfDLPGLcyFGq0v9fL+/rcuAbYLfsKK4AOIL05fcsoIwr4L+QWoyI/QBfBNtw2B60YpF+bIVawM0vTw8KA0Z16aOK26uapjt1mugdgWfEeq7NtM+js0af64Tt4hgldzGfu4X1GxQD2ER1f8Zqzbeany67mLK/mKgB3pFcOXQ3w79o0jdtXl2OVeNn+b0cdqugXZ6/2E2FvwUdykici9TzwcJ+ajSHysRxXT9/y50DlKeBwVHoDK8QuZ3sEj9PookzX1aCNqpik0uvarP3/+ys6LbF+xXRDGvjC3i+jv8xKdfe/1bmHh8s89KkTJbKUm9oqJlJ5H7hSSz8484GcNZinMuaPppQpahB7qvE21J+x8BERr3sVi2OfqWGYxDS67bSqP5mUzRE1sOFoDXBFHE7F0RLKxUOcGGCtNMXhl7E6Hsm9zs1onQdzc5kauF1z470m5O+8pHLIZV9pRUxDUWEUiEEtr/GmiVv/bjnjUxMtnFmTN/3345z+dVQC5jmHEv0ncMXJMKrVN01HuflgqNV26fsFrrC9KlaUkNIqsr1vxOjNk6s+fv1qxshkXABsHx6pC1dhYcvzpTOc5nIXEKSiMt7c/sQw9nxeeDKqSnUKdfQuLUfQ8WvlsH/glEWqUL8So16RoFvy+DlPmPaM8/boXysy1fCmdOPVju/RVMZti8ZNChMfLJTclG2EwRAU/kGJdee5ixZqJa4FVARDnvFxgHkYE702X/woUOXp4eGBvYXlH8DGQZOmvGsk+XV8aIuOaUHQAeWlUpK9Kjkm99JVAzdHeQoepM7xJZb+OYuXIqYIXVaYs7MyB0UEv4xpx17LPRB9NIqy0e7C3eGBM6zIGVfofBo9i9PMdR/tRxEABv7FmgOCXMNuRX7m6uGIi/LKSi0DnweOLi+gIEdOhtUrWYdyHxxqIK0hTr3+dgO8Ybi2WCqkJSLB6quyTcZK6XC5r2Rc5eHyeLYuSDpuB9JkFDjw1gUlTSH/vtmnyqfIh2Ln8dzdUfaBZJqI14XauLvs2p4A1K0LKYaOoONc37pYBq78Didwja7e/afJuUda8cPWyyudS8Q1CvhCd7nqz4jlOvKDFw9UrLPf3v4Eg447Ul7RaESJ//vz1nmxPfgn5aQFwEZDTu7tfSlaVbEY+73Ele0g4lfFJkikgR4XELHi9d6YDBfZHT5DZcRTaf2VZtL01OOBUhaO1Kkf0YR9YLlrcBaulcb/cIhhSnvVz7UUfN+t+NUe+iljbnNyKP3rGtiZ3sU5mDDiKpuAmXyw/d+3Bywi5+xT7hfbw8CDZp8UmwSePikfikqXFVqA+1LO8Hx4ePH72QCoFB6m0ZEXYjPJCkIyV48ErKZ9ftzMHeitlUKuGlwqDBbxZgZoj7UK6HFTjrGYNAaggd1QebdHqoFnzzirv4bsac4k5QdFKQenrJZPLZQI0heGOqGGUr7HYlgMCCR4tv2nch2ip+Aa1vIJ0vfjA5V5KDOrJyud+/1zVuPNLkrICky/+9TDWsm/Olsb4vqyaCIho3Me+vLx6mXW/NuT94Z//QCPjNHEJ6WLwifEwZoK+CvHuV5cPf2aZi1l2/KWX1Rrr/sj1zIieS1Zq3VwMmybuFrDOcBELwI3ENSkjIuzTp8CYjlhgIY+4YGKm2K9ZXREJCyOAMxB6UZihKiS2Ht9u5PThn/+Yx1mQC0fHQDX55C4DUDdGRRYaoj4+U0BQk/4NIIzyBEkZwSEXfrWym7txlT1Tb/W59vnSJuuLDb9q8kSWxgOIO2XHiEqHFk16qaXFwuNcVJweUkyZE46meClHTOsMY56C0cdXjvw6OljJL9Onl57C5Ozzq4lD7VE40naRJmF48CxUKrmWVeMYvU+ETdNMIcDqZfBh1YUd6lVgGciLKj19toVYNjIr125Tc+E56gJUjbubNbIpyLLJzM79U649DDdO1nv4bNdhf0OYbZCr3iORXz8jPEIHpfLyIMAF17gPhMn0S9Zq8lEsD7+yImsNX15EasIga5UrQrOpesjE3qLhvroYTuQAcQi0rmUfK8ZNL9nF7bTlBRypKmgiCHzUKwZeYkR/+sQhpItKE8lURfBuajplJrzAyvCxL1L2c8iXnV/npMxS27g+mjIZ9KRU5tqmiRq8bJroE4VYAJ7a5b+f2/KV6mUZ9BXPtUGTz+wcyw7rV6NHEmWsTfiRHddSsPKBikcDceQddB2qxu0EOi7X2RPZHetT7uKS9L9hFBt7CutK9Ux3nLhsOj4REa0m1zu4LAiMc6w6kDIxk2BcsJ5jNC2N++UWwbCtRb2CASms1E31Xhl+NUfqHEvUF4PK2Akj7suXiurdjmrmvw5n9md9srC1BnT1xWy6KQLTtSPLipBuFJbR+lzHelP/WTnhuBGNYt/QS/83ZkFNzK9MuXxhrLLz+7WRGj2jIONMHNcXq5r+PhFUxlVwd/fr/v63o1bPWeMWVPb1HxjddTS5ndkEfAVAUsH5iLBQO/D4G4aB7M/LLYX4Y7ifAkfXOAkyNUyWmjBOTwqxBpZ8ZBYyjHXjcQX5gynNuE6xuBjDXTCXfVXyr3tfyz71YLmjsTYUNCSicU9H5cBHN4XLSxW0F2yamGAFH7CwNp2yiOnzqgVObq0MVltcQrF2Hw1pTtk0uDRCPHONbpqmqVgAmwXjk6gyEC72FH7u4+FijnVodI5IOFR83znDaukuAuYUx6lb1kpTjadMqKLKS271B23UWLiT5Vj5yvf+/jfYSVw1GPFQUQNsRiwPwiOqWTM34kiNsThi/1WBLOKC9VmIphmG1gOm3KnKTBNNMsIcAc37h8Hw6xg92jjLFZtnTQwUFJ4vFTXNS4MhFByOh6QORxOk9cySUGc3tRlOVNEfmDE22KpVWFhsqgzCR31iXjAY8VDvBbYFr1TZldMZUxrlPXXh67KN2ZwrUMN9yvQYPTCynMJgxO8rMDC662hyI7MJVrLga3hzmDJKHHyK3YXSvLv7pchZinPFEv9s8jDo5klFeZ50m1E+s35/QTaZZdkMR7xUdn/+/GVa9SZOfXb7RWTfw8ODsvAVspN9Cs5Xnq8eQveCz5zXb8pHQ9yvhuN904Ts4yBhxXgMMWfa5o72Cx/4ImUlsjQ1U/O1uxwyK8PIeQsTC8a9icvDL3VdwDGb+8uGqWFmcUfMYVAzxUBm2de0zgP1YXhEosNJoHDqA73SyzNUtTKn/I3kS9FnRKl5jSzEQ3B1YK/3GLxMgu5OwTgl7SP6y5LNVFMWZCIw37Y8QvIlGF8hqpwbseo9ZobPSg8sjLv3aJp2NK2bq9sd+TmKF+aC9Tathd85hCXqhI8QgYVpZbiaFFtU+iiVHY77VSsSLQaSuNe7qc1wbEb/sAkfzjb3dSTp/MYPFnwg3r2SWXORER3E2e1Hh6tlH5che5pfU/ISKxDXMWW6iv2+oy9XRs2Cw4+F6q69HEZilMOPiZ4aCFO+2qcv+MgCaUpCyYhboEZbbhhUhMCPVkKaBU9nM8q7RcpyrS0iwgh3mhctS6WvFRjfhjNXdUyH7MRu4JXO8PAjHR6cD7787zmdd/CyMIV77zDLzkitbKlxecSF5+erN/lUqczc4z3mjH1h9mSIdiJ36k1PKgdSHysavj35xeA9N+WwLwhu82jsxtemya3FcvS58G7+kA74LBtfowFEBuk5x8oL0RJPRCJE80ZasDr5kQ6c+jrkwGZr9stblxLHjJY6L2VwWekYZYTrxXNUmfUsDuqpd+Kzq/pqEW3+Ip80ABtaSj19Xjbn6LIzdx9JUIEJWlywzpkp5rQIjBGq7ANNrYASUr0UDX12QRe+anws0XoYMbm+hpeEMbIsnMTFWMLzmY1FyOKMKaN+bhcxBaKNL/euSu+vrB0ynFmHWFCBRUh9EPY14H1mSDEddPYCt2dUqY9h0SGmwFOjzyz4PhbLTH8wM0T2eUnBV472uoiTaZ3zGEaAHxjDdezMwIxRDn/OVOBSJDNyN+Ks2Jw1UBAUyUb2+RpT2TerSBM4s3BylANR8Gw7oVs8cfrIr/8hLfK+8wD2+bJPyw/v67t9fhdnXpbKij6xQShJtbLUJtyowVroqo21o6aYYHVj0bgjlblgtNroACNCVRMvn1Pw4GXW59uR+irceCRsFUhKQ8SEPn4xUxmOIsKTU+kXA0fIjMETZOcikiDPNawOASHONrWSC/HEqtBJMNc2OlK+AKXLhghnK8k6eZwqBWVNbG6Tb3vx7JRasDqaSgLAwlz5mAqSPteEKu9OAF0VdsKa5wUxhig898g7lqKP7CiA2HNiNeJFD6NZP+6FPkwQNW6NBRNxKrYIQxbUFL6Cm8+a8iLZaVNNsezlS2ZjpyIRxeytJDuvsthpMQI9FpIKU+vM08hve0Re5IvZ5QKjlTOPmiDss7ZkRe5yNAPwUTFfl//d4AALYcwmQnWDrmk01i98eipINgr3wpR55IqH1OjjNVynBO+tscKna584Bh7BF1u6KX5lx3WtMCZh3yhYdRrLSxlUkHF1e5PKvvIv/8wgi2SmqSGTFUPYUcEYc0q9ByZQPmWkyWQx0JkIOwP95bzQYhKXsxCVDnYt+yDSwmsQmEtQNXHxvIbr2nw9AvMv0Wf60nX7TCMd/pEJxPbNIfQaMWvf51x5DRduc8pEb72iPFldYaRDriNQ+Ndx+5ijKvveYV70B4E7njXe2vLHJxB/Wj0/4Dc+pJ8fcC1cQcCf8mj4rLnC7HLIG6+oyr7lLHzSysq+Tzpxy7Ar+5ZYnlsZt8S5qctdYr+RHm+nWPrW7UC3Qznuhy+Ht/L1CDDXL3Wzlrl+sxszrwenlh8lwIWsgj/3eXTskzpU9j0JVzs7gco+p/HZy5V9n30GG38JlEAJlEAJlEAJnCJQ2XcKUzuVQAmUQAmUQAmUwGcnUNn32Wew8ZdACZRACZRACZTAKQKVfacwtVMJlEAJlEAJlEAJfHYCbyr79F7113vP8mefjO8Qvz7x2o+hfIe5/iA5vuC2o9X7zM9evOpHK55k3L9J7pUm6wXhv1KEV5j1D+S91Ae5PIx+fsJptPziBK6RfVcvyiu2gOu+F+NJe9+LM31Vg1fDf9WozhvfyL4X/8aH81F9jZ4uSvgKWU/tCH58mNRFuTct/2DzI9B98QHn+Z3Y1zW58SeVr9h2HrX/nLX6pN3J+Z9RGE817l9O+2jWV3R4DfhXhPEaQ647m85E8tk3+TM5ts87EnhT2XdFntddWk/a+66I6h2HfOEd4TlH6TvOyMd0rQvHvwJGXx60/Fq4pUacefH1Q2rSVbbUDb5KdfAjWa5rmsG8b81z1urJ3WnidTl+lP5J4xr+Bnf7juL8AvXXnU1nEvdr5Ez/9imBJxGo7HsSrvfv/IV3hOccpe8/MR8vAuepH3G//PODRVM9nJR9EnAkeiQa5nFIJNc14fHjFMjoipBOKrOgfdLRSeOydjSDJ319825zMb8UkC+8yb8Uotp5DoFD2efPbjgn/IkDZf7c14+p62JQK3/iawtTJf09bnenen8ShC8i8bFedkeM4tcnFZsOP7X6cyuPnCH8SCu/rDf3SneEQXzRGol7yn5X5ggjdrwQNh2FlwML80J2sknwjPUgqYxdyc8nsmYgNh0vlfNnCslOTOIOk//oJ/FoCC/3BeFVePotxXBB5D7RWo1O+7xThx8LeC5yXOj8lpcYtU+QVmXKSxWec7fPf32OiQ77+iFLD5hErm7ChUiCiPqjgpOPUYLjHcKIT41fL+o2Zd/momAIazt0ti85fCk2Xnp4U9uxVtX08PCATb/W+PE3InEsDPHwNOkK5vb2p8+mQnKGPu9e714Uw93dL98QPE2v90jkTq2RlMOJMgt1mbLse6g+3IF4hB7JrPdRvrFf/vs7v8EksnaSHlLLJfB8AmvZF1tYuDlqZbmr/7Ib25PbjJ+p8EtaF8O8tHz4LM9tUX24tHTJebeHhwf366cjoxSG9ghCmgdA+NKVLyPsAi411MQusMe4pDoJeI3sE7A3KRdqIpejeYkY3AisJuEjL/t6N66e8yTQho6dfUF4//z5q/OM40d87u5+ASqmTDqAbv6HwcajHNHB510G1aSlyBqIKQvgWNsUJjd19oXNcE7EmHE6oM5ZwK4GNJwm/+FwGOodftc1EYaSghL1jxbmtqNlwCXv83L53/GMWbpRE1fK/Gsk+Lt933b0xyQZxbwL7PQeFtyImrhGomfMvmPxCBWGolIiui5YHgzcLG9Y0ZkarXyUjUcVATOEgmKbTOgQBfUHiF6yVkXYI8Gyh61R7Axysaw8wqgVgoUIQ5BpveJ6j6z7sgQ2BNayb25qbuJoUfrVq7/s59Ho15Js+uHnXlReXlqzW9Qc7R1xsfl2GRZ8144YwvjMyCNnf9FZoj3FjauzI91j9J4R89HL6Y6e7IaqUaYqb+YlYnD7Zwgfra5lvWhzLrovsnhSAbwy9fDwEPPr1mJyNXbT38cuy44u8vWXcaNOEHQq8FeBazWWmWILHeaRkL5Xeln2vQZHnIjcNGJefN5JhLuDELuuyYO5rhzz6BejDPq8sDA2vkiEPm4hdr9YtL6BgAg7MfW6DDUF9HELqiTB2YTUZhaww6iI0FUsNGRZM85ATKkQECI2Okc39z6DZNR1BV+ZsuBz5yotskYLMorVrpoZqieiPpGpKvWvM/Syh+H9Wy6BlyKwln1a0PxtF86OlrJfTjGEl7G+5/5LTxXmpUUHTqPYE+edCYZsrHGSudllDLGx6lKP7YOHpzqqZQdubMQRmF7uMWKEsSowZYrfT2h/PO3xKBHPV2X12YQRMfhmtye8T/DIo7uLQzEgnHmJF8L2mCeT2OuFKCqdsDp4JCHUOE5cWMeimpMSAt3tH5XnmtTlRgDLgRGJ9/GAfVLUB7Ba3r7IRViXGK0adabJY7iu/Oi24+l4+cgdydIhRrG6yJqeTthVHZMeFy8bGp+JdgsyS4KzCWVJgUgY5ZOlVuaFRNwyA7WiiHx5ZHhnGd+wcoP8MUPAVxT86p7eZ2z08aRUjnlZWl72kU0BdLPaRlSvXRfv+4tU3fpvCVxHYC37ZMuXqVuPi5amuRXSRGFeZvtR89LC1KbgO5R321jT/su1x2Y3BdzSuCz7rjd9sbdSIDZ11ss9kCP4mNoU0B/aT5eJMHwTRsSwYYU1LxxZPqqHpAJ2U1eU8ULYYd837liuCmApp44iiZtnjk4BcAy4lAy/R8b39eTl3R6926ccPRgfTmCeiDpQo7zcAqiva/IArisTNsNZBhH8yXstMXyOIuVHZd/5A56FN69cEpxNPi/hi1GbHYlE3DIDN8sb1HSmhpBUgws6CJouDV9I3uFkeV4FnuyMTWYjwqWvvWUNUR+E+3JvEViOnrmWlt5bWQJXE9jJPhn1q101R5fE3ApnWPMyO7KmsfPSmjZnzYz5UWsRvO9EEcOR8RCIMUp/xWoLc+MKzCFEJJGd94ymky/d/pwOjGwcRZOnM7PGIAUPgErx8W0xmvTxi2eeAe6FsImZAq6Dj87dzQJgIIWw4Og2N/COECl+lCKF5X0RpUMkKjwq+yYEt0DM0zgxTwvPbPIArivHLPgykEGfFxbGxhcZ0cctxEPeaBIfTdkZX7i4TvYRavjSMn50R2KUL3t4UpgYPey4bAMILhhCIXpSf76wXI3EE/FjdhMSfablOYr4Z2dcO1gZf/QiJYYWSuAKAo/LvrletbgfHh7CH/tL1PtL1jqVWvR+3nvZ9yaGnCmwRXrnmQutXJ9s2bwxMUbNqxQjftnHKH9AFimrJyf3HuMRfGJ4tOBTIGu49rERpP4GVQdPU+UjVm6Q8lGCjojO7pGHXNEq9ROVRy/xThbMVMxs3Gzw8DR2XgLTKe64gcEdF5+IGKiQOJyi9cxL5TIt7E+UOenuK8b6JRZAvOeLNCkMmfL9wcPblCdqn5d5f8Vv2/vKx0UMZ9PwOOOi0FWmmUU96+0BLAnsy6kvsMDoGflCjTXso3xJqIyRmHffkWSB+1XKgoHOQRfIzIXOZOebbaCjjwpuXzWKbXqJgbxUf0j6Vbx5b/dmXo4sg4j16RhjXnzKLv/9WiXdQD2fIPG0UAInCaxlnxYl/3LNYFQXz1y7rHh6quD9Met9qGSvpFUXjzqcvxjY1zRQ1mILwIUKxKAvOSOSGOUXcHhhCHf+3OaRu1Azc6eLgQ5znuvRGbVBJDFE2zqtMYPUe2rap9TEJ2HlN1h5MOFIw2Np8Rjaz0UZcZHhZnlfXVQevQQv55nH7EH++fOXtxIqMNfHqon4p1NfIXd3v/z9VfLrhH15R6s3TS+q8YURi8rzwqPS8QhjVMQQKwfyMhhR+VS+SJNfU2Hw6GUA8ThZBhobQsRXuDNZYmQNkHJcFCgb1GQsb2ZEhWnQI1fAPjX6uhZmJ6w5HB+lHBkVs0kMXCa+76HkfPHE8t7AD9q4cFDKIrYjpJVPiic4y54y/OlGItR4IUjCJOpja/JWhkRqvrfII6P4kgGPpOUSeEECa9n3gg6+rSltN37Zf1sUL5J4nJQvYvMdjfghqjBU48fwO4b3YV1LWn3Y8BrYGxCQoDy5tXYffoMZqYvPRaCy77Xmq9vNC5KNezMvaPm9TGl5+O3DWfNesX1Yv0JUZfxhJ+gNAtNfR/Mu4JHr7sNHZFr/bQlU9r3W1He7eT5ZHiGd3+Wf7/TNLMwnhidvYLxZhB/HESvBhfLHCa+RvA0BPQl9ku7vPvw2U1Mvn4hAZd8nmqyGWgIlUAIlUAIlUALXE6jsu55dR5ZACZRACZRACZTAJyJQ2feJJquhlkAJlEAJlEAJlMD1BCr7rmfXkSVQAiVQAiVQAiXwiQi8iuzj+6u+2JdubOZV7zX+FG/Jjy/N2iTVphIogRIogRIoga9E4OVl31dVFfvvEKns+0pXRXMpgRIogRIogS9J4OVl31e9w7eXfZ9ocXxVXf6JpqChlkAJlEAJlMC7EHhh2aev1/qS361V2fcuC7ROS6AESqAESqAEXorAQvbpp2/8KzH1BPOMyyPZx0+RylT8EqJ/by2/Paoharq9/cn3tRKGvodTBs9/na+Pwpd+uJZf0vQntvglchWQtl5PbBS8lXf+yaZ+SVMdIn5/c6QHKbNqxRq+NgXPOn6Y0ps8DP0crU+N7Ks/6asyJnQTSZtKoARKoARKoATei8BC9kkD8VvXUoGPxudKBa2DZEE9SC5IOki46Jensc/PWmvI3d0viSSZQl6olVEnb8VpFIJJMcsIPxzuL7F/uVz2LiIefjIc9awOSh8p6TQQUo8+hH2q7Ius3X6E7TnKC0KQeZkoNJvOquUSKIESKIESKIEPSGAt+3S0397+dH12JnoJGhQMQ0J5HHWT4pTCY4g6Sz8h++IdhCeVB8MVmIcR6tab1NklEXlRCP3kidAHC9O4B0Y3Bj6z4MYjsA3GCGOKRVfPqMNnhtrhJVACJVACJVACr0fgUPZdLhfdtON+lYKQwOJ+Xpz3U9Bo1FRFnlLcKXTZx20zSUkpGHkhBgouRKjktqVG0UcB6FFmiCE1hVoKGeTxXy6XmSCW6cmT7knJfUGYe6VYuKIws0bA7TFGvoxSDAQ87V8RZIeUQAmUQAmUQAm8AYFD2YcmCGG3j0mjju72Lcf6k1aXXwgpt+myb3pZ2qdyKVAQZyFrpHrdRcggzKpAtNRjmZqTsk/94X9z8wMLVxRm1mTqYKflyJdR6snL+/vfT1oh01FrSqAESqAESqAE3obAoezTe7n2ymCGeNR/qiLGct9INa4npHjcJp0pYOdMIUa5ZfzKjpr81mDIoHA3EwyDF3t3oPuVnQgM47MnTScL08Lt7U/uIx759WjlKNKBjz5tczKYdiuBEiiBEiiBEnhHAmvZ5290k6BxAbQJd4oMdZ6qCCMup+T30Ye8PFT1u3EY3BRkn1xcAIWs8U8wyKAzmS5mgnpWyyNyxzgpHckvGSFg+X3qRzo8TY1F9imqJUafF78LS+5hivoWSqAESqAESqAEPiaBhezTce5S4LzOmIJGaU9VBA4N0Vvx7u5+8SSUIW7T5ZE68B6+k48afZQPkarDGnKNOHUDjA7i48HTxNhoxZRnpErPCzsqhOYjjFmP/VnApj43jexDQNMBJo/KPklSXyfTb2tKoARKoARKoAQ+DoGFr3tWBAAAIABJREFU7Ps4wb1lJHG37y1df1Jfkn2fNPiGXQIlUAIlUALfkEBl3/9NemXfk1b/vGH5pOHtXAIlUAIlUAIl8PYEKvv+j3ll38nFx1PyPt49SazdSqAESqAESuCDEKjs+yAT0TBKoARKoARKoARK4HUJVPa9Lt9aL4ESKIESKIESKIEPQqCy74NMRMMogRIogRIogRIogdclUNn3unxrvQRKoARKoARKoAQ+CIHKvg8yEe8Zhj6lwTf2vWcoH8P3/OpKj0ut+qbD+FwLn3eZX/ftFlougRIogRIogXch8NFl3/JnKp5D6upvHomvL35ODG8/do+xsi9mZCP7Np/43kMOF31ZAiVQAiVQAm9PoLLvLPMvLPvOImi/y+Xm5kfc4YPK3d2v3jGFRgslUAIlUAIfkEBl39lJqew7S+rr9tvfKv7UK+TrTlozK4ESKIES+JfAQvbp12n5YdnLP3c4bm5+/DvouKRzUW97ijsfR297ur39eX//21tlPn4kVzb9x2T1TG360k0Xb9XP17oLjdK/x9n8vxbPyEfpls98CxcPARUA9PxXd2eCRzeQZmzLN5YpyIeHB1qBv8foTHzG5ddbMXi5XI4Ia5STn/fG1OrWZo5e8yhGn5T4nWJvwuOGFb93rIFhjcVwNFmVfT5xLZdACZRACXxAAgvZp3P95uaHjj3phjOh64RGPfz585cDMozc3PxAwEmpcCqHkJLNeQBLkRCVn7jy5fYpP3pyY3AW3AWtEYZEnrJW5OgevQSIW5MQoQnjs+BwnDbaVPD1kom4XC5HGHFxpEq9Axg3hB/NRZEw3dg/Kqg/q1HAtR4iTTWB0Qm7cVj5NDFKPScu9LRLSQGRX68/Uo0eRsslUAIlUAIl8PYE1rLvcrnc3v68vf05z79NiC5KvNuUAm42jmfulsmC93SbyCnvpnJYCGU2g3Gzm3LEqZ5L5aEmRe56Agtqcl9n3hYWiUidS3lEGN7kwUz1TAwh+yYln4gNYe+G8ecUwqAHFmFo0SIoIyNicAuqnD3D6WYsTeHd61sugRIogRIogQ9C4FD28XTSbxpx34h7G5yy8zQlQx2ivFQB3YYYUn2c5csDWL6IgYJkTVgItbSJM+7ohEiKOEnH3emBtZpm5PRc3h/iXpoGkhSEpzQE7Ewqsp7BEL8KIX2w7N2YMhJRa/gCo0tet/OkckTumTptIgEjkAGoPm5BNZE7izwWwKO3io9WyJPybecSKIESKIESeD0Ch7JPp+PRDbwZ0DxN6bPXEHFYhqSIU182N77mja4QJfuxxDwLEScdiFCWZz016LYIiQ77AsPpBtiZ1P39bwTQRsdgKqQPlungz69jjpbp6EFwmHVrJ8vgVX/PdC/71F/D/U0FbkF9ZpDhlFDnWJp6t89RtFwCJVACJfAxCRzKPgm+/TkXKc3jUx2mET9WQ06FpPCe7u7I19vLPp33+lSK3xmdkSNTZpOndlSe6gpWk3BoxEc9Bs9p0C3gV6HOwEghelJ/vuB+437bNB5rCS9uZKYWuW9U8hyLi8o+R9FyCZRACZTAxySwln3+CQwd6vOB18xHPXm05x/p0IM/hvhNxDiq4yzXQetySkbCF5YflX26axUP/nz4UdmZRB8Fw8cO1OpSQ1H5p6EDSBhcvhQKIpd90Q45MqfsCCOOpvSJCH3KYo7kDlNeiMlFUZGFd16WA6NnqibWxswagx6hW1CHmXs4xc4cS1Nln6NouQRKoARK4GMSWMg+nfeoN51noWmOktF5qfelxdHOU784ZUMZhKRAKMimP7jUWb58D9zs5gHr8GagN+3LIqOBzmcpJR2FP2TEhVvjbXO0HhUI22ckMnJ9iR2PBz4+KVhmiLeirvbC+mhSsKkwYm3QOgvqz18dIbwicYZHvQMJC5o7sgMCBQ91jsVjZZ+jaLkESqAESuBjEljIvo8Z6AePauq20CuvGv9ejryq6xovgRIogRIogRL4LAQq+15gpuKGpSxW9r0A2ZoogRIogRIogRJ4OQKVfdez5EmiPwfEXGUfKFoogRIogRIogRL4CAQq+z7CLDSGEiiBEiiBEiiBEnh1ApV9r464DkqgBEqgBEqgBErgIxCo7PsIs9AYSqAESqAESqAESuDVCVT2vTriOiiBEiiBEiiBEiiBj0Cgsu89Z2F+ReJ7RlPfJVACJVACJVACX5pAZd+/0/sa3363/G4XXH4E2adPHOvbifnWYiJsoQRKoARKoARK4MsQqOz7dyrfXvb96/udSv4tM0q/yu+dpqJuS6AESqAESuDVCVT2/Yv4G8q++KE8/+3af7m0VAIlUAIlUAIl8CUILGSffonV7/roCeA+30dHxa+18iurl8tl03Tk9Pb25/39bx9IT93B4qeEb25++Ncp+zNNfprW7fBjrP5Drm7NfwxXTt2muElBuimV+SVf/0FeRyGD3soQ2Xx4eKDV8/KB0yBwvIBBKj/CQ2eCaaEESqAESqAESuBlCSxk3+VykYaTelD5jNfNKH+YGKY2TdHTX0qgoNtub39SRoS5ApN4krxDFckIZjd3+/yuWAQsm4iz+/vf2L9cLvv39oUpReI6VR08EX78V0341Vhl5AGQ3SzIAvWy7JnS1EIJlEAJlEAJlMAXILCWfdIrt7c/l7pkk7bk1xwlbbQcuGla9lel67zL5eIeVXY9hJShICOh8+Il3u/vf6Mp8e5STGX6e+Gpsm/SuLv7Je8zvEjH/Z4p40uWJRafafOM3/YpgRIogRIogRJ4FwKHsu9yuei5ZGgaiSoeX87njMtRWJtPSE82ySyMQk65JHIJSP/L5eLihno9LNZLN0IH7n2SsgpK/MgXwyNO6lWYw+/ufgVS9SH+pZwNsydfyjL2NYq7iSeNtFsJlEAJlEAJlMBnIXAo+6SB/IHjmZQeHaWnkEttsWmarkNOuaSbWkrDvQ8GT8q+uNvH8CNfdIg4qVdhDn9L2ScgnppqXFlGwH1ZAiVQAiVQAiXweQkcyj4JvqfqgJOjNmJo0+SUo5vfsppaioHxBDOyi5eM4mEoNRSOhtAh4qRehRnq9PV6D3l1n9Xv5k7vEXBflkAJlEAJlEAJfF4Ca9nnH+OQFDjzKYHzo0J+Ob5Nk3dzOSXthXyZWoqB/qET3r9Iq2RQPGNV683ND78r5kPCZnykw5n4KJVnqMqFGNRBt9+mxJysnvSRDj5DrckNjDPa1pRACZRACZRACXxqAgvZJ+ngT/rOiIn9KKkf3h6HRJvvnPOmDVm5w6BHO7WU25GK9ffneaukD2a9iUoVXAe7zRm/h0qcYS0epnsrjl5D9qH85JHwPPGWS6AESqAESqAEvgaBhez7FIn53b5PEXCDLIESKIESKIESKIH3JVDZ9778670ESqAESqAESqAE3ohAZd8bga6bEiiBEiiBEiiBEnhfAp9V9r0vtXovgRIogRIogRIogU9HoLLv001ZAy6BEiiBEiiBEiiBawhU9l1DrWNKoARKoARKoARK4NMRqOz7dFPWgEugBEqgBEqgBErgGgKvIvuW31R3TXSfYYx/x94yXnXg6/eWfT5spb6SkK+PPhmnvjrx6AuuTxp5tNv+CxofHd4OQeC6hXrdqHD9Xi+vW95vHO11hOcXqb5G2P0irReket1qvG7UC4ZdU5+OwMvLPn5M7NOxeE7AuvaWFq7btZem3r7yuj2lsu/tZ+r5Hq9bqNeNen60buHqPwCuWN7zW9M9ktcoX0e4su815uJVbV6xGvm+/af+Zf6qidT4Byfw8rLv5ubHN/yxh43s++Ar4POGd/Vh/3lTbuRLAm+5Et5e9i1T/iCVvdv3QSaiYZTAeQIvLPu+7Z5Y2Xd+zb1Uz7c87F8q5tp5DQJvuRK+7Ra3nLjKviWWVpbARyawln23tz/v739rM52PGPwHduPG3mZPdGt+R/r+/rfeBCZHNzc/+FnbTdPlcjkyqPrL5cJbDN3d0WTc3f26u/vlNuPdeIR3c/MjmrjTHsZ9SDRdLhexUh8ivL39GW+Jm4JSec0YpgtqZCR8KewNfOJnRpYG3awDJCmNepQwxikI0cxUd5SZaOKM1cgC8CnDJq0RJ95nYTlle4ysDaeEZZ8XDzKW9/k76M7fFxKsllkD8ObmB7Gp4CnTTU28jFHPIRze/eWSle9FxEPimw3Erc3lHb8VrhXoQ/AVuXvAUfYhvqQ1uW6cgT6ESgreqrLMMsWxoq6bF122OFUBsDopCB7y6uar0a+yK7YCAvAZP4nxcrk4Kx8VTR7kvol4ZsH5+460OVUB6Mcflj1lJaIVuxn1HML4beGrEjiUfVpeStvfrud/3mkf0cr2tc41xi6gBQpEN8LalR3tFLoyH21aGmSv0bXhQdJ/Fri01KSXKssCZ4Oi8uuZo32aPWpSkNj88+fvTF/WtFm4ZaGOzcs7RNlz0V4W84KqcPgYmTuRCBDAzc2P2C4v/2juqFQYuJ4CF48UlnOnyoeHBybaV4tH5Xg5AjU8Uo7ZJAAvHE0ZUxw2FckG/pK2PC4T92CW5ZgXrRP1hNXmotBwt6wwwBi5qOfRqKBxhrC7jvKGFRKZqWesYotIottc3pf//cWIHV/JV0xNYFRUANFu6deFu2N1EYwKftHJYOQ1iSmMoEEYYZ+Xvvl7pYLUGiPgGRVDfM+/YiuQHV/SkubYP8K4h+9RYQpf5BVNm5dOQFPA5aPg+TthCXauRr/oIhfCOBrli4oyo1r4tgQOZZ+vEnZ2rWOHFX8Lal3OrYS9RmPdTuxZbmHTtDEo4x7DvCo8BZX96uJWnIzM63NuFiCalpdNvjvEEG9SLrGhR//9S+epnm5zQxizk14AiZcaOBFFtyUWnFJgollpLB5PJKaMuxHYQT1PIDNBRnnB58XrOZiZJlxQoL/HvCHg3Rj7aCESce8yuL8oZjwRRrxUPHOU+1WfCOzRRGaH6cX7LAPbzIuPnbHJF7PpnWOZRdPRy1j5l//+URTranaeuQfheKkwJpPZbeY+U+BS0nBh4WqKy9yD58r1eFT2bkzTdB01+3k5whi+JnxkWbg7AyeGzJly7/GH7uysv8kjniAcLxXADNX9nicc6fTlVyVwKPuWf+hopXIzL/7AOtoTtV/EKO6+LFe/cB817Q3O/c4njz+5FA+be1wnfgWyx2GHrdBr+DOOShVmFnP/9SHeH63jHZ5UFo0Ywo7svqIPL+eeolGgmx1ib5WpIByu9ZJFwt4HfDXp1o7+JomJdqoS8VhTQUvauykwj182GchVMEfBZ7Or7uH7UyRgYpaF6lpNrTQpTo1VhGEHesEKL16IGeFyZi5iBjX2aJSH7YTd45PKTErk+Ojdvr2XGdsyTYxsVsJyXi7/iDwYyo5vIDMAfNF57i2ucuYULJnMyN310cpnDcuLErm9/an5DRUCOvliyiho7ui2TPAIY4wKSp6LN3EJUOnwlZTD9G4Km02ApiNWc7uGnpbBNIVNFWYWfj9izuBm1PLGTbjry+9J4BrZtyG1XJfLSows9yy1HjXtDepKm2cDHpeFuaegjfYbxz7UpSbYx++tiONlzGcqfd+hP6kdEaany18qj3Y9Oiz3uCB8xrWe49zd/Xp4eNCW+ufPX3btmGjnFr48MO+m+rnVen+V5yjvc5TLHj4WOOdcKqkV/Rq6gbEUFGEse5ZusGKUF5ZZcGCr4P1VnqMmqzOEp+VlzZLVUXYztmlzxrZZPEjhOVPTMjXMAjWs4eX1RTcVllnAQfMS836F7AunvGRd6a3PEhNsIHvZd0QpCC8TJAAKMYp6FeY8qn4PX320fm5ufrhUerRJHfzf15B9gsNluNwHZu7B6iRhz6XlL0zgabLvaHsF0Nzx1TTXJUM2K3LTtDH4aJC49kJcJ2x2Uh6xHcRmt9R2GF9msYkfrfPnz99H/zrEy1FhzojzWcYWpmaocyeNIS8o++7vf9/d/dIHjASEvdUTifN4k9cEMhOc6eyP5yN301fE7I7moqI1Fif1UYhE3PvGL0ZmFq5O6BaFOcr9qnMEFhaueBmsjrKbsU1fM7b9qJndtBk1c/o8/hlADJ/xKN/oFi8nkxn5o65lU398ag/UfT7+HPVEYqvcGA8gM8HIRS/33Y7cha/l1iT7kxhhbJroszwF3Huw8oGUZxYobPrMwhzlfpeBTSOt+T4Enib7dM3MJw7wmjuLmnTFLv/421zMjzYtDZ68RIlZhbhO/La/DPJnlqKKP68fDTXcqT/x85EOdZPHowtef+hHAGHfX6o/NZ7aJmzvT+6qPLN/zT5B+IxrHumy5PQXueKJiY61t/zbPdSh0pmbJrl7YTNlm1w28N34XlZOmDFWL3VrkIXh7yUKVsvhM4tZMwfOPjERy9SO7lFN+8uamDJ5jFV68rQLU3IXiyf++vIraBleVO43kGUAbmESPjObs8+ZeXG/lLWQhFd/CXA9xsr0a1xhs8VhLdThyWnS8M28HGHcw/eoJmdaN030YW9htcg1BIKVD6Q8s5g1dKYw+/hEPIkwNlv4wgSeLPtQftx2Zlmz7r0GdrpyGMW1sbmiNk0s5Wlw7nfEsCnwNE0G4wjRjokv7ES9j900abji1BBoYNnPbCpVeKrs0z5L8J7ahnAA0XAFsExNTTHLGiUhct1OJF/wUVRaYDHR6ulrj5Q9jGU3ZxK0/eXRlG0wbuAHYY8hMJK+B7Ms+0AfFax87HI2CUaLzUmK8GbUGcIy6xF6SLO8YaXOPjXcm9/MSxhUgu7XE0dJq0Pk7qOOypsh88xeelGEzMuMnyafLJXF+cy8LOOXL0GQEQiHlFle48TDdC+7LV3PyqN5OcLIqUQY2IxJQcvOId7E8KMCjrgnqp7ByofP2cSjL2xZBv5m1HMIe2Atf0kCa9n3JVPdJxXXyb7zG7SeeZD6BmEsXcwd9qn3P5ZmW/nRCMyLQifN8+PUYYZSeb7Bb2VhylnVhDz9Vky+ZLJTqaumF86XnO43S6qy7/9QzxPuzeZgOvpQwUR4c9+ZNTGkLz8pgXnLedZcl5ru2Vw3tqOm+J41pfQFCOivI3+CMWu+QJpN4Y0JVPb9H/APorTiNv4br4aT7uZzB9+YThppt09BwJ9Yvcg9Xd2X4kHVp4DwAYP0Z53xjrcPGG1DupqArhe/DHtP92qYHSgClX1dCSVQAiVQAiVQAiXwLQhU9n2LaW6SJVACJVACJVACJVDZ1zVQAiVQAiVQAiVQAt+CQGXft5jmJlkCJVACJVACJVAClX3vuQb0vuyP+XkIfyvx8vsC9MGOj/Pe/PllB49Orb8v/jmz8CirRyP5CB0+yKdr9aHUF3nf+uab0j4C8JMx6O38TwXyghjPLG/vw/fz8Rtxyw3kZPpnumkv2iNaYvSPSmwcXbG3bKy9WdNTt+jrPtd4Bv6bpeyOjn7vwPt8sfLJhfp2su/FF8eLG3z7FXAk+667/F4p/vktfXL01D3llcLD7MkVT//XgLxk9VkWamUfa+NDFZZ65dEIX1D24Wu5vNF2S9Wlxf9hZZ9Sk2YlzVl46t4yLbxLzdEWfZTOdVvix9zfzvyw5OtNyhHh1/Moyyf9Vva99kRcY/+6y+8aTyfGHO31J4a+aZeTK56YXuNvwSWrj7ktwoFCZR8ovkDhLWUfP5M9uX0c2Tdjo+aryj4SjMLRVnndufMx97f3/b2DI8IxES/+8qTfyr4XJ/8CBq+7/F7A8crEUsqsOr5z3ckVryif1Pl8YktWH3NbnEl9kFX36Bk8Iz+q+RoPeY+y29e/IEYcLZf35XLZcH6lC42QVHjmJfYoq7fJIpJ6vZdH6Vy3AzwT/mukqZBew/JJm0eETw6/uttJv4eyT+P1fMHfq6GLnLdE8I4o9X94eNA9A/9mV/3dyRAV/D1hmqTpS4Jd16RaheNRgxtq7ivu93jKHp6s+UCeWaiSpxsBXfZn/MGQ4frR+gDFVjt/IOHR3UqRH2FUq4cXE60OBKCXPNOZ80UHnyBlJ1CsliPLPstY2xdYbxrrLrzJIfObm94ZLz6KiY6Z1UzRythg5RyY1rm0GO4FX2++UFXvSyhmzZ1G1m7/TBlfBB8pU+8/P7rZCuTUI1xOwVFsWqsRw1FnIbq//+0r3Dt7fUzKEXxWjhKPUW7cy7LGXMRa2uwSjtcNPqfsyzvif3ReYnkTxkb20WcWhCVW7+wWNR4kSOdC9XX1KEathHCk9eNj3ebsTM0RYe3DvrSIX2N9INb2BaehUHV1uBcn7GveU5MX3bX1sXgPRejEJvzzV6j7ilFOA/JiqCYubU/QEyF4FTz3WPne5FvZ5XLZNHnwxBD9gUwwPso3djocFXzghhU21d9FBaPWsk8D6PTnz1+4u57zbtrLwiWj0Aqx0MFKqr6DaHYB6q43BjE1C7HhegflQnjLVU469/e/1TNGhX1NOSvMU5PrGE484f2os64BRh0VhNHDoKxdg4HLr/s/2usvB3/lyx02mb5IX7nTTQURi8rNS18SE74vYC5mhcfVGHN0d/eLNaAINelh/KTsU+RHs7zJa7qjs6wxKdHzCD7Dn1TAl5hoR1NZfiGsJmd1tBX4MojgH41NXnD6aH/RWK7AP3/+up3NQnIvMZXL69T7qxyjIutYgc5Hw5X1NHtFzSZg9xsR4ohV54HFpcSFxqijgrAwO0fdvP5oeW8WKsM3GJdNJ5cE9lXYExarZc/Ye89g8d07rkei8mml8mh+ZZDTwW80RF5OLODHasfpLMjIPFW1u0JABnW1agHo4lVq090yu831Pi0Q6qbJCcyjcBkDfzSSMo4eLZxk5X4VPNejLGj3Xss+X/EeUKR6uVxYDe5PQ2KPOCLI8aBR6qZyLFl8eU+loZpH/z2KQdPmx4DSkXGVvRVHYTAgBMaIf6NcZ095dIPhmpBmwa9edxrRepMbiXn0ppggRPxyUnzZCTgXtts8X47V6OnM9/OGRPbOG4/kPvvT5MOXlednClObIWryjQOnQRhrVxciDIcwlyiLwbvJNRHKoMezeVuYd7uuTEgaPr1j1tOJrOmz3yW8W5TDYPDxi9p3VIzEOqf+ikIAwcIks5wX5pGBKhyZjW7PfLlZ3nvC8rvBOJuiJqZsk8gGRezD7sIF3MZ4NIWveKnOy8qjdPwqYDOXnU1TwJ+XSYStl4pheao6mfAOQ/V5eHiY3ufmPwPwdKY7+m+aNrplI+9mtPjaFM6z8pkNX960kH3eHKHMvUCml3nGHhFByLJ8Hf29GEvWp+pIo8is/ibArKsQmvzg9BuhjGJel5HLUTQFuiAQMDcpRKYM9FUYc6FICN4VVWAkSA3BuApkTf0mi7C8PLSw43fIFIPPi3c7WQ4C5KUwQEHBmXhnd6d6hpD77E+TD19WxiKJ/u7Lm44W6sba0bJxs08qhy+HEDJah4TuE3g3uQOLFrCnHDc5nhTeo51jfSowVh2EFQ83OXRuqfL8LuGjNBZHG4x+URyl41f9UZ+T9YpkMj85L8xjuAvO0fpSLzfLe09YAWwwzqbN3sK+zTL2jeWIsJaH93Qs1wF0sTgvOtlfWj7qHIQdy6Yp4Gv7PcqUrOcomgI+wJ0hsU07m1XKlMUlQD3XLMEsmwSQJgoMPyKsFNQ/9hZvUgeszRwJL1i53xjlTR9C9s38lVUs2Vh5kRUgzhR0wfj68HJY2DiKJid7ZkOP4fiNTKl3+9y8pfWoEBhlhL+TYtSryj7yur///ei+EIHNl5sVj6M5SjVOkj6q9MBYFbM/TQw/mvGjWfaBR+W5UDfWHs36yMtRffhyCM+RfUfuXrw+Vr6nI82HxyW6CX856Rg5Krjf+RfyozY54Y7sP7Ve86ijRWNPujgKNTg/NZ6T/ZdzpLF7wo/mONPf7C1nop2Edaj73uJ2rgOosNEcyztnS8t+IXsYQdixbJoC/j5T3M1RNAX8J8k+mcUUhTPXO38HTkESTUcAcfdoh7m3MHYWzrNyvzHKmxay7+j0iru+Co7V4EbVFHtEBEFu0Y36uXrwpT5HBt3CvuwGl5eHhs/UMBsxRM9NarIQwzHrgVGpgi6JP3/+Hu0g0X9ilNN5/HB1PTw8uJFNFhOa7xRuRGXx0ed+wsvs/GhNUFJeumL3YSxzX6ZP7jGzR9cI/T34o1n2PvuyZ7qx9mjWey+zNXw5BA9JA1kM3k1NYAmD0+PL1hCSzDofQlLTTIdIvCkM0mdfiKyDT0QyTXnYs/XqGg8jIjyyeRTqdViOvBzVbzhE/J4a1jbDZ5NPOjvDVAMYXxYijA2lcLe0Nivnn+izz9JpBMaoCMOxbJoC/tHeiBcVjmLYywzSIbbwPiWj3MXSjXQ8Nlx4pcreFAaj8yY777kJw7ttrIUF0dBCDTJuZC37xJRVzkc6NBLB4T7cqCIOLuow/yIJX56tU54PEI8MuoV92e0rlxmeLEibo1T4SIdnrbJfikFgBhMTQwcxwR31bEDuxVuXZU8zoMXfQPE2I1nbZOGWcR33z1kt6iCP/kCNgdovbm5+eM2m7MtPZccSYYQdnziaolJ/RrMknEM0YcH7UBnMqT9fcM5Ha0bWIuuAf96jeoYv56Mm4PiK9W5ERc9Yck8KSV7OJ+XcYha8SVf30Zr0npH1yeAdiMqxUIGzNKisl03PqYzJPTMvy+V9Ofho16OxKYAj7MvhR8s7cnHg2NlgnE0y6MenTxk294WIyhdSDFTAvrC9HJ15eTQddNhMzXKrDw3hWGaZjTrS1NXkMbDm40Tbn6oQ8LmAIfG4dzkKL4qEgbwF6Gjhbah6kwJAI3m+Ki8JRzePKpri5RErh6MyC9XJxJ2OtexzeTGj566yP2ecV5ozUg6EFVevCGKW+Q4osSgjyKNZdHxHjmZ4ESF/gszz3m1KuLAUJgGCIVkKZK0+mubpTlfymWTxpQ0dR4S3d+QBMFZDPGWa/GJzj17PlEUMhCprvHy0QCQCworXQGJTwSOZy1VDMChT/ijTV69uWHJab1ilZR4RAAAcQ0lEQVTJrI89M3ceRlyAcTFPRBv4s/O+JnwFNL0EMqai2/zr3yOMKcPIsgDGZeusjHnxVefB39398reBb+CzgMn6zGzG7nFyl/AIcceSm8meqcGOCn5FXP5Rb94BXIFRfdxdbNTetCmTYISxGRJBMnCzUPHiqQnjpsmnbLm3HAXpXvx8VOSxyYcRHxtNy5dcDgxkNcYaVgdwIQIYKPtxwsoIrrls7+5+ybWaAiMxMJA4PQC1epyxtonNMbLSiM2n3q9ivM8g43qP5e1hbJp8hSjUmNzAMvONjT0Cni+PWFEfC9XJMOO6qA9l3/Tamg9CwLXImZC4VM50fu0+vl+8tq/a/3oEdPZ8vby+Z0Y6Vqca+J40npS1VAXSnHPdVcuTDH6Bzpv7LF8guxdMobLvBWG+han4g+yMy48j++ZWdSb+9ikBEdDfDN/5YPtKK0G7Qdwj+UoJvmouuhZc9s2aVw3goxnvDYXzM1LZd57VO/fUneR5C/3RsD6C7ONGtO9Tj0beDiUgAjwx6fr5GktCu1kV/HNmk02V56G9b/ocnt9nbGXf95nrZloCJVACJVACJfCtCVT2fevpb/IlUAIlUAIlUALfh0Bl3/eZ62ZaAiVQAiVQAiXwrQlU9n3r6W/yJVACJVACJVAC34dAZd/3mev/y3R+FlhvDe5H6r7dUvgACb/Udy48dQ1/hM85fQD8DaEESuDbEfjcsk9f+/TueuWKI4SvvuRDWG/2EcUPK/v4tOb7fh5t8rl6V5AW8Zk9+RUk8Rm9d1/hRwSuWPlh6ozsW3qJr2Y9kn0CPlfU0mbE1pclUAIl8PUIfG7ZpzODX4l5r+m54gi5YshLZfeCsualQpKd+/vfiu19v9bhZfnE1wvPX39ZMnRN85G/3uz5y/iM7Fv+zqZWy5KeV1b2OY2WS6AESuATyz6+nvFJv+/0GlN+xeF3xZCXivxlZc1LRXX557eh7u9/u+J5QePnTb0sH4k2CVndkZp3nmZsAeFlQ5rurq55/jI+Kfvm11UuteBMpLJvMmlNCZTAdyawkH3zjInjyh9Q+o0Z/WiY9lk9u9QJF8P5GRl/+KU+bu3RWWHfp+BD/Nf04qA9auIhY9yScX3p3zLq/XlWe1KDHp2XsqmffJXNeMDnTqPJ58XZbn5IVNg9KRhqNr0DTfPnCJ/684JuSmUSp+B9fFHFItk0ORDWAPZpBaNPIuVw51GdLIuh4jxpbS/7fA2EHvImpaAg46JWSB4/NPwXMNUBFMzy9KI+vur8KvN6fgods48yCRpkpInzJeqmPAB8gSuWN/XOpOUSKIES+HoEFrJP55Pv1K5R7u5+cYJGT04OYfKTJv6mn/u49m7ftR9ljcBSGN5fkVDDuX7538+NzyYZITUPXk3h7ogPlvcFR+o9OVBlPwjrJZT+/PlLGBzJiDy6ie0yNVzHBAEKdG4/DHoTBp9a8CURPzosd2R6f/+bXDZNnpFPLoTFRy9hJVHy4iJAC/K8WacxJ92V2VyoDor3P3g3VDtzdMRKy4A1QH8KR8vY60WYqG5vfzoHd43ZKEBDpjT7+j1177k05VPvnTUjpPYia9jtt1wCJVACH5PAQvbFXh+7dqThW21s6DqS1V9/eTPWR1H5pIJ2cw2JCEOUuNlNU0gNP2Dki3Mr+MyX7vGojETmPoQOs8jlcrk4q6PDyVHLox/zbuFI1kSfmZQb9PKRwaPEj+qdv9sXEJdlWNg0IRTojP05yt29VDr4VUETtMwienr/WBtqIhG9VDpaPC62QttFjr5gNqxi+c1Qw6M6+LWpGu7HTxE2F970QrQaLozB4SjU6VH2I/LgM2NoTQmUQAl8DQJr2cc+q8PD/zrXMcOB5Lt27KQOSKOknOap4D1PlmObdtfR5AY3TZ4RZQ9YJ6ushR337u6EEWt+6h8NcVAyBeHZhC+OVWqArFGb4MMLFiJCT1l5YZMIGfvUQqTmR7WXw+ymafmAT7d2wlfIo9eQffKoZQA05cLaUIEEkWIay00piZsYxX1oCrLjV7FPX6S8YUXPo783YpG43whSewh5kakvHk0oA8la9ZoaLNze/vS/xCr7QNpCCZRACWwIrGWf9lDtqv5X9fIQQs0szwB80zqfztDnfIGzwQsaHiec29w0+fHjQ3hm6gd2yCxSi4Gbl0dDpighsNmE/YiHmHkbZQTvOl5G8ILNiNDRHR3PjH1qIfSx5lTraqPtNk0ebQQzMaIk1HMzNkydfMlbDuI9o5vhHtJ5kX217JvrIWJjxqNnLBKNcrkZdjwvNc2FF0N8MeuZtZ5xV/ZNUK0pgRIogUcJHMo+KQmdkViZB63v2sszIMZKUFJ5XWGG4Wf5/tTh3U7hehP8dOdS+PLP+wW5MxFmj14eufNENNYJe9ktz5TRLtNgPIufXlQTEWJQ+aL1PYyry+HLb7nN+PGyaZpANqNCNHumjLq6oMXjEjbuUS0thzzym22TFRZiefg7KyIp5+NlTC0LywthrvzZDWvhSzP46Fqim3zp78bQuL3bB+QWSqAESmBD4FD2cVz5th4Hrd+VOaN+1N8NEpnOg0cPAPWPQ1GVfjTGbRX3eNREvoREIY4xP03VZ9Yw9qhwdHgH4TjMRAndwEc6NIo0FTDdXOcdfbYgFMOcTdcNR8GTrOIkHuqPCvMIl4WHhwdJQP8Qg3+kQ+TVTU8kKcdE4zoIuyP1mTWM1XR4MN60LEcY3PlbdqYyVrinuVmovg5V5o8cJSX7KtOkpOI2HpF4wY2o3j16z6M0BV+Xucpz4bkdldWT23siMGdhaco9uuVYw768vVvLJVACJfDFCBzKPh38c2/lzNBR7fe9YiedpDSWg9k7qOmk7Fs6ihNIB4+EZng8auI40SgOwqN6j99tore8Q5S9v9xplE4ptxCHmQcTukp2linT9OfPX5cUiAM6oAYCsp+LHNhzlNIkyCAfELxz9IzT2lddLJJNk4fHSp7Bz6gcS7jTxAX5aUE16uypyTtL62igzxFP6okEvErQrbGu7u5+qRsuNk3IWYgp5jOsMBva3eu9yYO//O/LGgnyqKDAIOkvfbKI3+24R1htlrePbbkESqAEvhiBnex78VTjMHtx+69kUMcGR84reflEZkOJSjSEEtKp/wGTkpRxYf2kILUYUGBPGvvGnSWI39hp3ZVACZRACXxkAm8n+z6vePq8kb/GypNsct0zaz6yNnqm7PuwcnbOdWXfZNKaEiiBEvjmBN5C9vEU5pPeMKvsi4tEQHig5o/weFx49e208PXiL6+WfVJRPCV88cBe3GBl34sjrcESKIES+OwE3kL2fXZGjb8ESqAESqAESqAEvgCByr4vMIlNoQRKoARKoARKoAQeJ1DZ9zij9iiBEiiBEiiBEiiBL0Cgsu8LTGJTKIESKIESKIESKIHHCVT2Pc7oRXosP0mgj4V+2E8/7BPXBzs+0Ucc9um0tQRKoARKoAS+PIG3k30v/nnYFzf4qpNd2feqeGu8BEqgBEqgBErgUQKVfY8iepkOS9n3MqZrpQRKoARKoARKoAROEKjsOwHpJbpU9r0ExdoogRIogRIogRK4nsCh7JNM0VfyLn93S028L039Hx4e+C1ORvF1zf4Fv/6eMP/6X0bxe5361lmNVaKPGtzw8Lw8hru7X/yMqXzFl0t7kP4bFXxB8XIUNNQKLq93RxuMSkp2/F8fLrNes0FxBFPZTchMjaOgEmt7jI/G0w4lUAIlUAIlUAKvRGAt+3SuI27+/PmLXrm5+cFJ792QU+qpJkZdLhfVTEUSvyXgP5EuEYM7d70xuCEVMdzd/UL5SeXw8vb2J+XL5aIgSef+/rcSUdaAim4esHpiQUFGPJfLZY/RDcpX8Hyq7FPWCiZycYxHP6bsk6X+iEV/6aZaLoESKIESKIESeC8Ca9nn8sIjC4l2uVxQTlPW3Nz8QA9tVFr8tJeUkJyGqsCXWqdm8lCX5dvbnx6SYpZyCuOe6UYPxajL5ULMbgE9d1L2eTcwBuF4ucz30UqiVc94qUqnFAZnf9eRR1mHkb4sgRIogRIogRJ4GwIL2bfRE3oS6pGh0uYo9Ir6L1WaRvkjS5UlxUJVhMZaGpQvf4R6c/ODW2LTEaIzjLto2ztyHan7grpNGKwmn6UUnt0co8txj9Bn5EllV2nTNTAjR1zEBPmfAfTx+KlsoQRKoARKoARK4O0JfAjZ5ze3HEGoilBmGzXmRry8kSBh3EXVxlHcPnxt2XckZz3HJ5WVJmp4yrujx7vyEhN0JPuO5vdJobZzCZRACZRACZTAMwksZJ8+ozAVAG9xc5eopXmvKDTWkXiKbm48VAW+1OfIoFuIchj01jDusm+mxsAY5Q95o0nRhgCaKUxf8FFnXL9IgZudS2uPepw8I2ulw93WpZdWlkAJlEAJlEAJvA2BteyT6EGj8JEOneJ8xsKlzEavKBN1mGoyfHnaoSqWkmIadAtRVsDLIWHcZZ9uYvnDYj7SEQY1SirH4ag8NZbqXRVtMM7OkZ1Ep8c5O0QNmjLq9XIGHN1igubdPn8qHWP7sgRKoARKoARK4I0JrGUfbzvT4z90noLjmaArjI1eISXUz83Nj/k5WcziLlRFKLMI0g3icRY8Bg8jjIfs406ngnThqMQJ3j3KCF5cRdGfgrLeY+RzsozySK6QfUGDUFG6OFJB2ZGXt0q8RoQRnsNpuQRKoARKoARK4I0JHMq+N46j7h4lcKRE/Wbho0a8w5SYqnmOVgv17O5aLoESKIESKIESeF8ClX3vy/8J3v1Ttxo2a55g7n/fpMijfO6ees2TDM6HvE8d3v4lUAIlUAIlUAKvR6Cy7/XYvrzl+CTvyefamzjm49qr7x3KS+/2bWi3qQRKoARKoATel0Bl3/vyr/cSKIESKIESKIESeCMClX1vBLpuSqAESqAESqAESuB9CVT2vS//ei+BEiiBEiiBEiiBNyJQ2fdGoOumBEqgBEqgBEqgBN6XwJvKPn2AgK/lezTz+N6+R/urQz9VsAR1Bn7RLdG1sgRKoARKoAS+BoEPIfuOfn+ism8usquV2VvKPvlaftBYcx1N8SXP+hbo+eeB6p/0/TIa4h9PVmz+RdP+JdWXy8U/Lg3/GBXxq5sPjCDPwMcX36TjQeIxWFHP8CXh+b3c/u2M7mgSo3X6wumyICCBQj1n0zMJ84XqHmTY9O9LJ2D18VE0HRX8G9pZpVDyQuTuKwTj3l9lX67LIYxlufps+hAZpP9sigjp2UIJlMBXJfCmsu8IYmXfEZlZf7Xsm6ZmzUsZv739qdPUDzD91rNcPHrKzl+N4wg/eVBJHi3DiMT9rwv361+LeH//22NWE9lJB6AA9P2FauUbsJ/0O3VHV8T8ZsQwq5e3tz89WnRkJM5Lz5rKy+Wi4AE+zXpnLwu7/mW4Ohw1XU0Yv5I4nnjYpKcX5ihvneUzKwrgsUJcnGH5CP7ln79AWFS+GhmLmnfLuvro4wVf6l7fcgmUwPchUNn3yeb6pZTZMu0XMS6t8PDwEMfP7e1PKYBH1YNOVo8Q/bG8YeM9Vb6//63z8tFD2gXWVAkcybPJs/ByBMMPGIY+i27x0qOKppgjZ7UhLINhipekSY0Kd3e/kB1TBUZnXv7581faS05d9m2ariZMqFpvT5J9gjldk0sUNvMSPUNgHRHW30Iu2rDjM6vKaUQ180JbGgwdiaMWSqAEvhWBhezjNgkg4kkB9bOgnv6v/t7VFqZ635Lky/v7EzdtZ4z1DT12VT8LdVZpg5Zl/uaeAVPDuchzED/wtGMSZxhkiDronIsTAuGCR8/dj8bwRdZ494LDxHIUADiPDW5LYBN3MqKxZ7zglEOUAk0qbESSOsw4md+l7FPw4UUvFX/Ml/f0hYQXOtA6c8HynFmGe+FI9i0Jx+JxOxHkDEzrJ+aR5e2mKE/gaiL9Tc8NfDmNtS1Ts2kmcp4wUxBG4iVZqHA0yiOMTSB0cBjkZUzfdfDDl4z4tIqPptuv0FCBRKWekZG3tlwCJfAdCCxknx4kcZdi+XBhicYPNrbs6Lk8YGKXZIjkFPuU248Dyc9CBcz+6E1YngXFQHgcCepJPToJJeFR+ahIypti/42mfcD71pmX13gWqo9pmsbVwQ8VN7gsc+ooL0DReS/7IqQA/rKyT3OELpnpc/ROAcHYmGjSjIKvE29aEt7Y9CBFeM7OJCyDiPsYMheGIoyrTOt2jr25+eEZUQYRNRRm03MIE2cYEVuyZqIVxtEotSpCNh+GyAU2ycgLwV9DPBiPZAMf1G5BjnzT4IojSMKLqSFlj7blEiiBb0VgLfu0v+uZEfpvz8W3oc3zoOUepx12qQ982/UDL/Yvb/IykUzjkc48hwg1zhI//LSVY8ohRFKziVHS2WQaqXm3+dauaN2/JCO6RU2go9v5gtKEdtiXnTgUw/hM32uWsi8s+EtNEPF404QZa0AvNS9zDdA5Jjpc8PJI9tHBC7LphzfLw28SH9ncE9YcYVDPGd0XWiHo6SVaxANelkE0W2fT1YSd/zSCa3Uj+JOjGK6CKLGcln8S+5WuUeoWrlF+QR74XDv+twetfqmG7POY5ZqA47nEyb3dDbZcAiXw2Qkcyj4OA3Yrpartkq0qDg9ehh4CE3sZNXE7x+v9vI9DetPkG6KsuVaIjY8N0Y8Bj0F+yZeCMmVH1hDf8cOgNwkOplTg9iSEqfF4ZnZqZZSsMRE+NuArJAgEYR94vhzzvox2I0oCGh/PJACfSio3BcXjOdLZZ4RKx6jJFcmpJwiVAkaWhSOJtuy8sRlItZ7DyIawesY0xcJwa75WBSE2BO8cZWWBvvHW2XQ1YQ9+GnGnju78KLfgo/iTMhJ0Lxo7a3z7Cpu4k5hzSUd2sTy8D8MpuH33S4cWSqAEvhWBQ9mnQ/FJZ9WRonKgvgdRH7sY9bFJ+e65afJuR1szLigcxbAXQ8+RfbheFuDP3/fqFtktxx5VBvzXkH2xBqRBQ3VtRElM63zD+wvKvjMkOVA5cWGLclrKR7pReNKldH41Lr1vCCueUMOxMIh5Fp7EX1mEKpLN2XQdYWaBvJZ/LKmVm3NPGuUQJqioWU7HXGleExZwp2idHqPiMmGVMtYLvvBioHdruQRK4JsQOJR92iyWu9gSjfbxZZNXLve4o0MuNil2vct/v9oglJl329xK9Kj23eKQ8IFLX9qpIyknGU1uMMo+Sk3hMfrvXwb8afxRubC3Pw1O3aa5W57NwuLnnGritqheerdNVKFv6KlQ9zeu5F1DpiiJ03SZEe7EYXkL1vtQ3qyQWABK5LywloswEguDMKIwIUSHeDknlA6zaRo/Q3j5Z4Z/LAyPvmk8aZRb2PyZp24oSx/lC0n1vrMdwZ/bjnpqxpcXxVzPcUm6X4+w5RIoge9DYC37fPM6OjiD0eag8p7LPe7oDI5Nys+qKPtG703nj9t9/G7f0/HTS2Vuh/iGy06NWNHB46aW5RnVyelYWpvwXecppJAvcjePk6V9RRtN7kJNs2Zf7wbBG5VxT5TWI1y+wunsBQ1kvkKU6NClvxJ3VXd39yukmIsYBvIUOwjPeWdILO8lzGUlFiK1pTSnMwURi6Q09gi+soAhpvgry5ueT1gwYwHj9Cj+o1FzTmfYwfloH4tdKNbkvCqJ2dfMZsVu7vbFxhU7Ko5aKIES+D4EFrJPx7/vyKqZO35g0sbkf4ZymM2mOCq0yWosG3dsUnHg4ej+/refGdpVvTXiXL7cHLTqj0EVoOHutL+DbtN0+e+vQbiaOXJE2A4TwrTOgvfHON2o+fPnr2NUB6Vwxkvcc8W+LDw8PDgNd6qeG4mAqcBLvazxkif7eFEBWbY/ntWZRSizEfwSiLtjDSzhs3j2ss8NEk8YJClM+SjWlcePKYjFEN7pz58rrj8YpYLGLivdLE69UmU1eYRHSsjHQthdxwJ2Vg7KhzxJ9qH8FEnYlLswzksP/v9v74xyHAeBKHiB2dNl7pg9jy/klfZJT08NxiROHCWpP4KhGyqrmVrwgCvtzfk0/3m43gCzr8pF+9zF37676Cf5oIFbUoAABD6VQEf77puqfmpnX9Xkj7B8+pFl/Zrs/kL6yPkyKQhAAAIQgAAE3ojAw7Sv/Z9uW/NGXO4bKtp3Hzd6QQACEIAABCBwAoGHaV+7aznYlThhYi9Jgfa9BDtJIQABCEAAAhCYIfBI7ZvJRxsIQAACEIAABCAAgZcQQPtegp2kEIAABCAAAQhA4GwCaN/ZxMkHAQhAAAIQgAAEXkIA7XsJdpJCAAIQgAAEIACBswmcqn060qUcdnVwxnnc12MjHxxY6f7Uv/Z4avAyET5CAAIQgAAEIPCmBDrapyM9cz46imX3BL7ds0Afrn27ZyznLA6W84zTXRRtrqea2W7w/Go4VrD9dqiBAAQgAAEIfAOBjvbJIbxyJrXqXktQAJVLNcrTZ3wsV2Q+I4WvfEgCd5xNs2tmRwY/Dp6UvvAM7SNg6QsBCEAAAhD4JAId7fMtT1rTKvdODiZ/vvadk1GqNJj4zKOxmc1EGLS5KfjWzVeD+DyCAAQgAAEIQOADCPS1T2cv66pHX9C5O9uBhOUbeLlslhdiehc1G2itUY+8AOmRbGXMXl6ZkxvlXcAaVaZz5CwMVsiUKC/WLNFyd9VXZLYm3ZqlOk7uJmtqy7I4XRlGTmdwv2o2owwBCEAAAhCAwIcR2NQ+S9JAIAqLLQnLZu1Sk41Q75xJpKQ7RYYc311siipkLwuTTEhj0KSkjypPzm7LO+2XOXi/PJeCpXTZzCNc17Vcpq6aeeH2l5XxPYzkf9OssyNlCEAAAhCAAATencCm9t1qHm6fKtbS2dK+ZVnUOPXIy2N65KU1h7UIukYLbylzGXBdVwW5Xv92+2acUtbftWh2fuRornHY4qxlGGmECmICDjVfKMFbCA6VEuxKChCAAAQgAAEIfAOBTe3zipo3SYVDjmK3y41XG88A3Jb2tV2kMk7kQupRm1G9ss3arKV5aiWpd0iVqwRRY49KT1tju1x+RSz/kMJ/F+IVuJTC0rKMaubjpPbJXD2Gmci0gQAEIAABCEDgYwj0tU8acbn8Smty8Www81bC2sa3at/YUdqMM9rndbuu2LVjbmu8VtfVPqlwkbliZvlxfjO3HYlqMppqWs6a9eRXuZWIeghAAAIQgAAE3pdAX/ukCLIilWdm2EpY26vVkVz3Ku3bxqVBN2PpVZRI6ZZl8bJciTnzcaB9fkuvxJcgpsXKC6/Xv7liOpO9bVPm2G7yatY4X4uOGghAAAIQgMD3EOhoX1nhk1LMqElXwgrK4mQ+LKY000fJSqpSadbNmM66/t/h9T615mL7sb2VsOXj5fKb64IWR78p6KepyOl5KndfVSyVTq0dZ0d2fbcw1r7yhXYjUAkBCEAAAhCAwMcTqNongbAnaf6Ta0VdCVME+ZDfz1Mhg2+BVmp3LPa5lTF7uYvsJ6emGjfYGoPc0WPII2Dsc3qawW20Pz9/VN8aXnuSi8fwQO3Lkbs8KZQeDwUIQAACEIAABN6dQNW+d5/PyeOX9t2tUN4RPnnYpIMABCAAAQhA4AsJoH2HvvQj2lde/js0DjpDAAIQgAAEIACBPQJo3x6h4fP7tK+7IzzMw0MIQAACEIAABCBwlADad5Qg/SEAAQhAAAIQgMBbEPgHcOmNLjpPL5IAAAAASUVORK5CYII=;" vertex="1" parent="1">
                    <mxGeometry x="172.5045399876646" y="1152.0015789473682" width="850" height="326" as="geometry"/>
                </mxCell>
                <mxCell id="83" value="" style="rounded=0;whiteSpace=wrap;html=1;fillColor=none;strokeColor=#33001A;" vertex="1" parent="1">
                    <mxGeometry x="172.5" y="1154" width="102.5" height="21" as="geometry"/>
                </mxCell>
                <mxCell id="84" value="" style="rounded=0;whiteSpace=wrap;html=1;fillColor=none;strokeColor=#33001A;" vertex="1" parent="1">
                    <mxGeometry x="172.5" y="1175" width="852.5" height="304" as="geometry"/>
                </mxCell>
                <mxCell id="86" style="edgeStyle=none;html=1;entryX=0;entryY=0.5;entryDx=0;entryDy=0;fontSize=20;" edge="1" parent="1" source="85" target="83">
                    <mxGeometry relative="1" as="geometry"/>
                </mxCell>
                <mxCell id="85" value="状态行" style="text;html=1;strokeColor=none;fillColor=none;align=center;verticalAlign=middle;whiteSpace=wrap;rounded=0;fontSize=20;" vertex="1" parent="1">
                    <mxGeometry x="67" y="1146.5" width="78" height="36" as="geometry"/>
                </mxCell>
                <mxCell id="88" style="edgeStyle=none;html=1;fontSize=20;" edge="1" parent="1" source="87" target="84">
                    <mxGeometry relative="1" as="geometry"/>
                </mxCell>
                <mxCell id="87" value="响应头" style="text;html=1;strokeColor=none;fillColor=none;align=center;verticalAlign=middle;whiteSpace=wrap;rounded=0;fontSize=20;" vertex="1" parent="1">
                    <mxGeometry x="67" y="1309" width="78" height="36" as="geometry"/>
                </mxCell>
            </root>
        </mxGraphModel>
    </diagram>
</mxfile>